<svg width="84" height="70" viewBox="0 0 84 70" fill="none" xmlns="http://www.w3.org/2000/svg">
<g filter="url(#filter0_di_2_30)">
<path d="M79.5 31.5C79.5 43.5 70.9999 58.057 50.5 60.2677C8.51242 64.7956 4.05611 53.351 4.05603 31.5C4.05596 11.2677 17.9461 0.767719 50.5 0.767719C66.1941 0.76772 79.5 3.76772 79.5 31.5Z" fill="#70AF5D"/>
<path d="M77.5 31.5C77.5 42.5444 69.7055 56.185 50.2856 58.2792C39.8631 59.4032 31.8819 59.522 25.7738 58.7707C19.6676 58.0197 15.5685 56.4155 12.7725 54.2066C7.2475 49.8417 6.05607 42.4973 6.05603 31.5C6.056 21.9064 9.30715 14.9077 16.1987 10.198C23.2442 5.38313 34.3665 2.76772 50.5 2.76772C58.3384 2.76772 64.941 3.55256 69.6385 7.29802C74.233 10.9614 77.5 17.8951 77.5 31.5Z" stroke="white" stroke-width="4" stroke-linejoin="bevel"/>
</g>
<g filter="url(#filter1_d_2_30)">
<path d="M20.8355 40.5842L20.7753 39.6251L21.1619 39.3523C21.0781 39.0056 21.0154 38.6678 20.9741 38.3391C20.9315 37.9898 20.8991 37.6398 20.8771 37.2891C20.8525 36.8972 20.8286 36.5157 20.8053 36.1444C20.8013 35.7512 20.7863 35.3483 20.7605 34.9358C20.7333 34.5027 20.6854 34.0708 20.617 33.6403C20.5486 33.2097 20.4492 32.7811 20.3189 32.3544L20.1332 32.3661C20.2225 33.458 20.3207 34.5286 20.428 35.5779C20.5559 36.626 20.6542 37.6966 20.7228 38.7898C20.5213 37.2286 20.2991 35.6688 20.0563 34.1103C19.8342 32.5505 19.6726 30.9662 19.5716 29.3573C19.5418 28.8829 19.5327 28.4073 19.5441 27.9303C19.5749 27.4314 19.6064 26.9428 19.6385 26.4645L17.6295 27.1186L17.6546 27.0239C17.6095 26.9646 17.5405 26.855 17.4476 26.6952C17.3754 26.5341 17.338 26.4329 17.3354 26.3916C17.3289 26.2885 17.4256 26.1789 17.6254 26.0628C17.8445 25.9248 18.0855 25.8061 18.3485 25.7068C18.6321 25.6062 18.8957 25.5172 19.1393 25.4397C19.4036 25.361 19.5866 25.3081 19.6884 25.281L19.5723 24.9156C19.4099 24.9672 19.0728 25.0401 18.561 25.1344C18.0686 25.2067 17.5646 25.259 17.0489 25.2914C16.6364 25.3173 16.2735 25.309 15.9602 25.2666C15.6469 25.2241 15.4838 25.0998 15.4709 24.8935C15.4566 24.6666 15.6487 24.4268 16.0469 24.174C16.4452 23.9212 16.9582 23.6819 17.586 23.4562C18.2331 23.2085 18.9433 22.9775 19.7168 22.7633C20.4902 22.5491 21.234 22.3574 21.9481 22.1884C22.6623 22.0193 23.3062 21.8857 23.8798 21.7876C24.4534 21.6894 24.8537 21.6332 25.0806 21.619C26.1325 21.553 27.1413 21.6242 28.1069 21.8328C29.0919 22.0195 29.9628 22.3686 30.7197 22.8802C31.4753 23.3711 32.0859 24.0265 32.5515 24.8463C33.0377 25.6647 33.3171 26.6515 33.3896 27.8066C33.4194 28.281 33.3783 28.7805 33.2662 29.3052C33.1529 29.8093 32.9565 30.3083 32.6769 30.8021C32.4166 31.274 32.0609 31.7105 31.6098 32.1115C31.1793 32.5113 30.6496 32.8137 30.0205 33.0189C31.1022 33.0959 32.0356 33.2858 32.8207 33.5886C33.6265 33.89 34.2822 34.2733 34.7877 34.7386C35.3138 35.2025 35.7097 35.7368 35.9754 36.3413C36.2411 36.9459 36.396 37.5988 36.44 38.3001C36.497 39.2076 36.3599 39.9927 36.0288 40.6555C35.7183 41.3169 35.2776 41.8829 34.7066 42.3536C34.1356 42.8243 33.4757 43.1971 32.7268 43.4719C31.9791 43.7673 31.1967 44.0028 30.3794 44.1783C29.5621 44.3539 28.7519 44.4772 27.9488 44.5483C27.147 44.6401 26.4161 44.7067 25.756 44.7481C25.591 44.7585 25.2707 44.7682 24.795 44.7774C24.3399 44.7852 23.8629 44.7738 23.364 44.743C22.8651 44.7122 22.4158 44.6472 22.0162 44.548C21.6384 44.4682 21.4437 44.3355 21.4321 44.1498L21.4533 43.9932C22.3286 44.0832 23.2021 44.1423 24.0735 44.1704C24.9463 44.2191 25.8158 44.2163 26.6821 44.1619C27.3422 44.1205 27.9893 44.0385 28.6235 43.9158C29.2578 43.7932 29.8907 43.6499 30.5223 43.486C29.3802 43.7648 28.1801 43.9437 26.9219 44.0226C26.035 44.0783 25.1454 44.0927 24.2533 44.0659C23.3819 44.0378 22.5084 43.9787 21.6331 43.8887L21.7645 43.5078L21.689 43.2951C21.6284 43.3196 21.5363 43.3357 21.4125 43.3435C21.2062 43.3564 20.9664 43.3301 20.6931 43.2644C20.4198 43.1987 20.1555 43.1118 19.9002 43.0036C19.6656 42.8941 19.4606 42.762 19.2852 42.6073C19.1098 42.4527 19.017 42.2928 19.0066 42.1278C19.0001 42.0247 19.0775 41.937 19.2386 41.8648C19.3997 41.7925 19.5827 41.7396 19.7877 41.7061C20.012 41.6506 20.2266 41.606 20.4316 41.5725C20.6366 41.5389 20.7797 41.5092 20.8609 41.4834L20.8355 40.5842ZM23.0088 25.7249C23.0578 25.846 23.1159 26.1116 23.183 26.5215C23.2695 26.9095 23.3502 27.3704 23.4251 27.9041C23.5207 28.4365 23.6085 29.0107 23.6886 29.6269C23.7687 30.2431 23.8372 30.8393 23.8941 31.4156C23.9703 31.9699 24.0329 32.4733 24.082 32.9258C24.1299 33.3576 24.1596 33.6664 24.1712 33.852C24.2399 34.9452 24.2672 36.041 24.2534 37.1393C24.2382 38.217 24.2649 39.3025 24.3335 40.3957C24.3594 40.8082 24.5097 41.0576 24.7843 41.1439C25.0795 41.2289 25.3922 41.2611 25.7222 41.2403C26.7122 41.1782 27.69 41.0857 28.6556 40.963C29.6198 40.8197 30.555 40.5435 31.4612 40.1346L31.5773 40.5C31.9769 40.2679 32.3223 39.9977 32.6136 39.6895C32.9242 39.3594 33.0639 38.9469 33.0328 38.4518C32.9979 37.8949 32.7928 37.4315 32.4175 37.0616C32.041 36.6711 31.5871 36.3683 31.0559 36.1532C30.5454 35.9367 29.9975 35.7848 29.4122 35.6973C28.8475 35.6085 28.3486 35.5777 27.9154 35.6049C27.8742 35.6074 27.7936 35.6436 27.6737 35.7132C27.5526 35.7622 27.4617 35.799 27.4011 35.8235C27.6912 35.826 28.0554 35.8549 28.4937 35.9102C28.932 35.9655 29.3826 36.0511 29.8454 36.167C30.307 36.2623 30.7505 36.4001 31.176 36.5805C31.6014 36.7609 31.956 36.9664 32.2397 37.1971C31.8284 36.9123 31.2759 36.6881 30.5823 36.5246C29.8681 36.3623 29.1358 36.2427 28.3855 36.1655C27.6558 36.0871 26.9796 36.0363 26.357 36.0133C25.733 35.9696 25.3063 35.9343 25.0768 35.9073L24.7065 32.4828L24.7684 32.4789C25.3047 32.4452 25.8557 32.3174 26.4216 32.0956C27.0068 31.8517 27.5359 31.539 28.009 31.1573C28.4807 30.7549 28.866 30.2959 29.1649 29.7801C29.4626 29.2438 29.5926 28.6765 29.5551 28.0783C29.5188 27.5008 29.3653 27.0342 29.0945 26.6784C28.8237 26.3227 28.4755 26.0547 28.05 25.8743C27.6439 25.672 27.1914 25.5555 26.6925 25.5247C26.1923 25.4732 25.705 25.4624 25.2306 25.4922C24.8593 25.5155 24.4893 25.5594 24.1206 25.624C23.7507 25.6679 23.38 25.7016 23.0088 25.7249ZM24.4635 41.9716C24.8168 41.9909 25.1487 42.0011 25.4594 42.0023C25.7907 42.0022 26.1317 41.9912 26.4824 41.9691C26.8124 41.9484 27.2139 41.9129 27.687 41.8625C28.1795 41.7901 28.6912 41.6959 29.2223 41.5797C29.7741 41.4623 30.3135 41.3145 30.8407 41.1364C31.3886 40.9571 31.872 40.7404 32.2909 40.4863C32.7098 40.2322 33.0429 39.9318 33.2903 39.5849C33.5584 39.2368 33.6782 38.8358 33.6497 38.382C33.6342 38.1345 33.578 37.8999 33.4813 37.6782C33.3845 37.4565 33.2575 37.2471 33.1001 37.0499C33.2136 37.2084 33.3078 37.3888 33.3826 37.5912C33.4768 37.7717 33.5303 37.965 33.5433 38.1713C33.5873 38.8726 33.3851 39.4444 32.9366 39.8867C32.4881 40.329 31.9306 40.6849 31.2642 40.9546C30.6171 41.2023 29.9345 41.3797 29.2165 41.4869C28.4985 41.5941 27.8816 41.6639 27.366 41.6962C26.8916 41.726 26.4062 41.7461 25.9099 41.7566C25.4329 41.7451 24.9559 41.7337 24.4789 41.7222L24.4635 41.9716ZM21.6479 41.6514C21.6439 40.9269 21.6185 40.1934 21.5719 39.4509L21.434 37.2542C21.4081 36.8417 21.3726 36.4401 21.3273 36.0495C21.2834 35.6795 21.2292 35.3102 21.1646 34.9415C21.1983 35.4778 21.2319 36.0141 21.2656 36.5503C21.3212 37.106 21.3665 37.6622 21.4014 38.2191C21.4377 38.7966 21.463 39.3645 21.4773 39.9227C21.4916 40.4809 21.475 41.041 21.4275 41.6031L21.6479 41.6514ZM26.94 32.4357C27.297 32.1856 27.6327 31.9263 27.9472 31.6581C28.2823 31.3886 28.5839 31.0798 28.8519 30.7316C28.7488 30.7381 28.6947 30.7001 28.6895 30.6176C28.0941 31.359 27.3343 31.9554 26.4101 32.4069L26.94 32.4357ZM28.7294 35.2121C29.3547 35.2764 30.027 35.4309 30.7464 35.6756C31.3601 35.8856 31.9145 36.1407 32.4096 36.4409C31.9326 36.0981 31.3762 35.8121 30.7406 35.5828C30.0392 35.2955 29.3791 35.1713 28.7604 35.2101L28.7294 35.2121ZM21.1023 26.5279L21.2878 26.0193L20.7967 26.1122C20.7993 26.1535 20.8019 26.1947 20.8045 26.236C20.8264 26.2553 20.8386 26.2856 20.8412 26.3268C20.8438 26.3681 20.8361 26.41 20.8181 26.4525C20.8194 26.4732 20.8213 26.5041 20.8239 26.5454L21.1023 26.5279ZM35.5722 39.8144C35.7448 39.2652 35.8162 38.7534 35.7864 38.279L35.7651 37.9386C35.7573 37.8149 35.7399 37.7021 35.7128 37.6003C35.7542 38.2603 35.7208 38.8836 35.6127 39.4702C35.5239 40.0349 35.2785 40.5783 34.8764 41.1005C35.1857 40.7498 35.4176 40.3211 35.5722 39.8144ZM23.6515 35.4687C23.5936 35.8658 23.5667 36.2609 23.5706 36.6541C23.5707 36.9854 23.5818 37.3264 23.6038 37.6771C23.6037 37.3458 23.6139 37.0138 23.6344 36.6812C23.6511 36.2867 23.6568 35.8826 23.6515 35.4687ZM34.8184 41.1663C34.4524 41.6034 34.04 41.9606 33.5811 42.2379C33.1223 42.5152 32.6415 42.7732 32.1388 43.0118C32.6634 42.7925 33.1552 42.5442 33.614 42.2669C34.0729 41.9896 34.4743 41.6227 34.8184 41.1663ZM33.4243 34.2961C33.6202 34.4495 33.8059 34.6035 33.9813 34.7582L34.4416 35.1641C34.3062 34.9862 34.1618 34.8296 34.0083 34.6943C33.8536 34.5384 33.6589 34.4057 33.4243 34.2961ZM23.8233 41.1732L23.765 40.245C23.7547 40.4113 23.7438 40.5673 23.7322 40.713C23.7413 40.8574 23.751 41.0121 23.7614 41.1771L23.8233 41.1732ZM32.3054 37.2551C32.6523 37.5025 32.8374 37.8118 32.8607 38.1831L32.8646 38.245C32.7794 37.8776 32.593 37.5476 32.3054 37.2551ZM32.3563 39.5504C32.1824 39.7477 31.9645 39.9063 31.7029 40.0262L32.3563 39.5504ZM23.7461 41.9235L23.8699 41.9157L23.8563 41.6991L23.7325 41.7069L23.7461 41.9235ZM32.6946 39.0011C32.674 39.0024 32.6624 38.9824 32.6598 38.9412C32.6572 38.8999 32.6643 38.8477 32.681 38.7845C32.7171 38.6994 32.7544 38.635 32.7931 38.5911L32.6946 39.0011ZM32.8762 38.4306C32.8775 38.4512 32.8588 38.4835 32.8202 38.5273L32.8743 38.3997L32.8762 38.4306ZM39.8162 40.3866C40.1755 39.1838 40.395 37.8965 40.4745 36.5248C40.5528 35.1325 40.5898 33.7428 40.5855 32.3557C40.5726 32.1494 40.55 31.9541 40.5177 31.7698C40.5073 31.6047 40.4976 31.4501 40.4885 31.3057C40.5225 32.8359 40.4945 34.37 40.4047 35.908C40.3381 37.4859 40.0781 38.9517 39.6247 40.3055C39.5318 40.1456 39.4609 40.0051 39.4119 39.884C39.3629 39.7628 39.3332 39.6197 39.3228 39.4547C39.2917 38.9597 39.3419 38.4389 39.4732 37.8922C39.6046 37.3456 39.6727 36.7822 39.6777 36.2021L40.0992 35.9893C40.0358 34.9786 40.0142 33.9756 40.0346 32.9804C40.0536 31.9645 40.0314 30.9513 39.968 29.9406C39.9356 29.4249 39.8833 28.9209 39.8109 28.4285C39.7592 27.9347 39.665 27.423 39.5282 26.8932L39.3426 26.9048C39.5583 28.3615 39.7082 29.7602 39.7923 31.1009C39.8351 31.7815 39.8552 32.4326 39.8528 33.0539C39.8478 33.6341 39.8125 34.2264 39.747 34.8311C39.7804 34.3734 39.7944 33.9377 39.7891 33.5238C39.8006 33.0469 39.7895 32.5402 39.7559 32.0039C39.651 30.3332 39.4726 28.6464 39.2208 26.9435C38.9882 25.2187 38.7634 23.452 38.5464 21.6434L38.492 20.7771C38.5383 20.5257 38.5524 20.2556 38.5343 19.9668C38.5368 19.6768 38.5502 19.3964 38.5747 19.1256C38.5991 18.8549 38.6577 18.6338 38.7505 18.4623C38.8626 18.2689 39.0527 18.1638 39.3208 18.147L39.8565 18.2687L40.0654 18.6283L40.3439 18.6108C40.4186 18.4819 40.5076 18.4142 40.6107 18.4077C40.7344 18.3999 40.8614 18.4437 40.9917 18.5391C41.1206 18.6138 41.2676 18.646 41.4326 18.6356C41.742 18.6162 41.9721 18.8192 42.1231 19.2446C42.2727 19.6493 42.3883 20.1701 42.4697 20.8069C42.5498 21.4231 42.6138 22.1128 42.6617 22.876C42.7083 23.6185 42.7936 24.3172 42.9175 24.972C43.0169 25.5663 43.1067 26.1715 43.1868 26.7877C43.2862 27.382 43.3553 27.9885 43.3942 28.6073C43.433 29.2261 43.4577 29.9493 43.4683 30.7769C43.4788 31.6046 43.4707 32.4644 43.4438 33.3565C43.4363 34.2267 43.4082 35.0982 43.3595 35.971C43.3107 36.8437 43.2458 37.6243 43.1648 38.3128C43.0838 39.0012 42.9744 39.5672 42.8365 40.0107C42.6974 40.4335 42.5454 40.6502 42.3804 40.6605C42.3391 40.6631 42.2759 40.6464 42.1908 40.6103C42.2938 39.9412 42.3864 39.2727 42.4688 38.6049C42.5717 37.9358 42.6521 37.2371 42.7099 36.5087C42.6069 37.1778 42.495 37.8682 42.374 38.5798C42.2723 39.2696 42.1475 39.9193 41.9994 40.5291C41.9117 40.4518 41.806 40.417 41.6822 40.4248C41.641 40.4274 41.5926 40.4822 41.5372 40.5892C41.5025 40.6949 41.4484 40.8226 41.3749 40.9721C41.3002 41.1011 41.2042 41.221 41.0869 41.3319C40.9696 41.4428 40.8388 41.5028 40.6944 41.5118C40.55 41.5209 40.4346 41.4971 40.3482 41.4404C40.2618 41.3837 40.1851 41.316 40.1181 41.2374C40.0703 41.1369 40.0123 41.037 39.9439 40.9377C39.8962 40.8372 39.8285 40.7482 39.7408 40.6709L39.8162 40.3866ZM42.8457 31.2509C42.7479 31.6712 42.679 32.0586 42.6392 32.4131C42.6186 32.7457 42.6077 33.0674 42.6065 33.378C42.626 33.6874 42.646 34.0071 42.6668 34.3372C42.6849 34.6259 42.6946 34.9463 42.696 35.2982C42.7345 34.5917 42.7666 33.9478 42.7922 33.3664C42.8358 32.7424 42.8537 32.0373 42.8457 31.2509ZM39.7547 34.9548C39.7521 34.9136 39.7496 34.8723 39.747 34.8311C39.7496 34.8723 39.7521 34.9136 39.7547 34.9548ZM54.9812 43.2551C55.9069 43.4869 56.8442 43.573 57.793 43.5135C58.8655 43.4462 59.8555 43.2183 60.763 42.8301C61.6704 42.4418 62.4876 41.9349 63.2145 41.3095C63.9414 40.684 64.5697 39.9716 65.0993 39.1722C65.4782 38.61 65.8029 38.0098 66.0734 37.3716C65.8415 37.966 65.5678 38.5526 65.2521 39.1315C64.8062 39.9464 64.2308 40.6762 63.5259 41.321C62.8415 41.9645 62.0359 42.4913 61.1091 42.9015C60.1836 43.3323 59.1227 43.5853 57.9264 43.6604L57.5242 43.6857C55.8123 43.7931 54.3032 43.5048 52.9971 42.8206C51.691 42.1364 50.5886 41.2324 49.6897 40.1085C48.7896 38.964 48.0873 37.6724 47.5828 36.2339C47.099 34.794 46.8124 33.3625 46.7231 31.9393C46.6855 31.3411 46.6769 30.7101 46.6974 30.0462C46.7165 29.3616 46.8079 28.6726 46.9714 27.979C47.1349 27.2854 47.3823 26.6072 47.7134 25.9445C48.0639 25.2598 48.5523 24.6287 49.1786 24.051C49.6877 23.5841 50.2426 23.1869 50.8433 22.8593C51.4632 22.5098 52.0813 22.295 52.6975 22.2149C52.6382 22.26 52.6099 22.3032 52.6125 22.3445C52.6177 22.427 52.6647 22.5172 52.7537 22.6151C52.862 22.6912 52.9194 22.7808 52.9259 22.8839L52.9298 22.9458C52.935 23.0283 52.8873 23.0934 52.7867 23.1411C52.7068 23.1875 52.5663 23.2585 52.3652 23.3539C52.1629 23.4288 51.9012 23.5487 51.5802 23.7138C51.2593 23.8789 50.881 24.1201 50.4453 24.4374C50.5769 24.5533 50.6446 24.6423 50.6485 24.7042C51.0274 24.4733 51.3793 24.3062 51.7041 24.203C52.029 24.0998 52.3358 24.0391 52.6245 24.021C53.2227 23.9835 53.6623 24.0594 53.9434 24.2488C54.2245 24.4382 54.3683 24.5845 54.3747 24.6877C54.3851 24.8527 54.2595 24.9952 53.9978 25.1151C53.7568 25.2338 53.4661 25.3866 53.1258 25.5736C52.8049 25.7387 52.4672 25.967 52.1127 26.2585C51.757 26.5293 51.4915 26.9187 51.3163 27.4267C51.0174 27.9424 50.7984 28.5774 50.6594 29.3316C50.541 30.0845 50.5058 30.8425 50.5537 31.6056C50.6352 32.9051 50.8644 34.0814 51.2411 35.1345C51.6178 36.1876 52.1093 37.0886 52.7154 37.8375C53.3421 38.585 54.0713 39.1501 54.9029 39.5327C55.7551 39.9141 56.6969 40.0724 57.7282 40.0077C58.7182 39.9455 59.5896 39.6423 60.3423 39.0981C61.1157 38.5526 61.7542 37.8395 62.2581 36.9589C62.7606 36.0576 63.1213 35.041 63.3401 33.9091C63.5577 32.7565 63.6263 31.5408 63.546 30.262C63.5072 29.6432 63.4277 29.0373 63.3077 28.4444C63.2069 27.8295 63.0257 27.2507 62.7638 26.708C62.5226 26.1641 62.1905 25.6569 61.7675 25.1865C61.3652 24.7147 60.8417 24.292 60.197 23.9184C59.3873 23.555 58.7298 23.3064 58.2244 23.1725C57.7177 23.0179 57.4592 22.8581 57.4488 22.6931C57.4449 22.6313 57.4817 22.5565 57.559 22.4688C58.6045 22.6309 59.556 22.9439 60.4134 23.4078C61.2064 23.8343 61.8846 24.4129 62.4482 25.1437C61.8382 24.333 61.1683 23.7228 60.4385 23.313C59.643 22.8453 58.7102 22.5001 57.6402 22.2773C57.7368 22.1677 57.7825 22.0717 57.7774 21.9892C57.7722 21.9067 57.613 21.8442 57.2997 21.8017C57.007 21.758 56.6828 21.7059 56.327 21.6454C55.9712 21.5849 55.6347 21.5025 55.3175 21.3981C55.021 21.2925 54.8669 21.1469 54.8552 20.9612C54.841 20.7343 55.0163 20.5577 55.381 20.4312C55.7458 20.3048 56.1918 20.1526 56.7191 19.9745C56.8634 19.9655 56.9988 19.9777 57.1252 20.0111C57.2721 20.0433 57.3985 20.0768 57.5042 20.1116C58.5265 20.2338 59.5064 20.5036 60.4437 20.921C61.4016 21.3372 62.2649 21.8938 63.0334 22.591C63.8226 23.287 64.497 24.135 65.0568 25.1353C65.6153 26.1149 66.0068 27.2396 66.2315 28.5093C66.052 27.2988 65.7042 26.2128 65.1883 25.2513C64.6917 24.2678 64.0579 23.4068 63.2867 22.6683C62.5363 21.9286 61.6698 21.3203 60.6873 20.8436C59.7048 20.3669 58.6683 20.0178 57.5776 19.7964C58.5264 19.7368 59.4772 19.8739 60.4299 20.2075C61.4021 20.5192 62.3033 21.0217 63.1337 21.715C63.9628 22.3878 64.6998 23.2423 65.3447 24.2786C65.9895 25.3149 66.4791 26.5162 66.8134 27.8826C66.7721 27.8852 66.7115 27.9097 66.6316 27.9562C66.5504 27.982 66.4892 27.9962 66.4479 27.9987C66.6996 29.039 66.8565 30.0542 66.9187 31.0442C67.0093 32.4881 66.8711 33.9152 66.5041 35.3256C66.1577 36.7348 65.596 38.0125 64.8189 39.1587C64.0612 40.2831 63.0946 41.2135 61.9191 41.9499C60.7449 42.707 59.374 43.1347 57.8064 43.2331C56.8782 43.2914 55.9623 43.2143 55.0585 43.0018C54.1548 42.7893 53.3071 42.4802 52.5154 42.0743C52.5593 42.113 52.5825 42.1529 52.5851 42.1942C52.5877 42.2354 52.5374 42.2593 52.4343 42.2658C53.2285 42.7129 54.0775 43.0427 54.9812 43.2551ZM66.4759 31.4137C66.4233 32.2246 66.321 33.0697 66.1692 33.9489C66.0366 34.8062 65.8209 35.6584 65.5221 36.5055C65.2438 37.3512 64.8696 38.1512 64.3992 38.9055C63.9276 39.6392 63.3573 40.2858 62.6884 40.8455C63.3586 40.3065 63.9405 39.6798 64.4341 38.9655C64.9263 38.2305 65.3219 37.4395 65.6207 36.5925C65.9402 35.7441 66.1643 34.8603 66.2929 33.9411C66.4409 33 66.5071 32.0744 66.4913 31.1642C66.4746 31.2274 66.4695 31.3106 66.4759 31.4137ZM64.1135 33.3635C63.9976 34.1577 63.798 34.9364 63.5146 35.6997C63.2299 36.4423 62.8479 37.1185 62.3685 37.7284C62.8698 37.1379 63.2628 36.4713 63.5475 35.7286C63.8322 34.986 64.0209 34.1977 64.1135 33.3635ZM67.1293 30.4409C67.1513 30.7915 67.1533 31.1537 67.1354 31.5276C67.1367 31.8795 67.1285 32.2424 67.1105 32.6163C67.0885 32.2657 67.0845 31.8725 67.0986 31.4367C67.1114 30.9804 67.1009 30.484 67.0672 29.9478L67.0323 29.3909C67.0633 29.5546 67.0846 29.7293 67.0962 29.9149L67.1293 30.4409ZM64.1135 33.3635C64.1881 32.9033 64.2318 32.445 64.2446 31.9886C64.2767 31.5103 64.2778 31.034 64.248 30.5596C64.2157 30.044 64.1517 29.5199 64.0562 28.9875C64.091 29.2131 64.1149 29.4291 64.1279 29.6353C64.1615 29.8403 64.1854 30.0562 64.1996 30.2831C64.2657 31.335 64.2369 32.3618 64.1135 33.3635ZM67.1222 32.8019L66.9389 34.3354C66.8591 34.7132 66.7792 35.0909 66.6994 35.4687C66.6183 35.8258 66.5166 36.1842 66.3942 36.5439C66.5809 35.8902 66.7264 35.2392 66.8307 34.5907C66.9555 33.9409 67.0501 33.3034 67.1144 32.6782L67.1222 32.8019ZM52.4691 42.3257C52.4678 42.3051 52.4562 42.2851 52.4343 42.2658C52.4356 42.2864 52.4472 42.3064 52.4691 42.3257ZM66.3942 36.5439C66.3581 36.629 66.3317 36.7031 66.315 36.7663C66.3317 36.7031 66.3581 36.629 66.3942 36.5439ZM66.1005 37.3078C66.1378 37.2433 66.1649 37.1795 66.1816 37.1163C66.1649 37.1795 66.1378 37.2433 66.1005 37.3078ZM62.6494 25.3796C62.6261 25.3396 62.5926 25.3003 62.5488 25.2617C62.572 25.3016 62.6055 25.3409 62.6494 25.3796ZM66.315 36.7663C66.2802 36.872 66.2454 36.9777 66.2106 37.0835C66.2454 36.9777 66.2802 36.872 66.315 36.7663Z" fill="white"/>
</g>
<defs>
<filter id="filter0_di_2_30" x="0.0560303" y="0.767719" width="83.444" height="68.4792" filterUnits="userSpaceOnUse" color-interpolation-filters="sRGB">
<feFlood flood-opacity="0" result="BackgroundImageFix"/>
<feColorMatrix in="SourceAlpha" type="matrix" values="0 0 0 0 0 0 0 0 0 0 0 0 0 0 0 0 0 0 127 0" result="hardAlpha"/>
<feOffset dy="4"/>
<feGaussianBlur stdDeviation="2"/>
<feComposite in2="hardAlpha" operator="out"/>
<feColorMatrix type="matrix" values="0 0 0 0 0 0 0 0 0 0 0 0 0 0 0 0 0 0 0.25 0"/>
<feBlend mode="normal" in2="BackgroundImageFix" result="effect1_dropShadow_2_30"/>
<feBlend mode="normal" in="SourceGraphic" in2="effect1_dropShadow_2_30" result="shape"/>
<feColorMatrix in="SourceAlpha" type="matrix" values="0 0 0 0 0 0 0 0 0 0 0 0 0 0 0 0 0 0 127 0" result="hardAlpha"/>
<feOffset dy="4"/>
<feGaussianBlur stdDeviation="2"/>
<feComposite in2="hardAlpha" operator="arithmetic" k2="-1" k3="1"/>
<feColorMatrix type="matrix" values="0 0 0 0 0 0 0 0 0 0 0 0 0 0 0 0 0 0 0.25 0"/>
<feBlend mode="normal" in2="shape" result="effect2_innerShadow_2_30"/>
</filter>
<filter id="filter1_d_2_30" x="11.1426" y="16.4564" width="60.7771" height="37.7851" filterUnits="userSpaceOnUse" color-interpolation-filters="sRGB">
<feFlood flood-opacity="0" result="BackgroundImageFix"/>
<feColorMatrix in="SourceAlpha" type="matrix" values="0 0 0 0 0 0 0 0 0 0 0 0 0 0 0 0 0 0 127 0" result="hardAlpha"/>
<feOffset dy="4"/>
<feGaussianBlur stdDeviation="2"/>
<feComposite in2="hardAlpha" operator="out"/>
<feColorMatrix type="matrix" values="0 0 0 0 0 0 0 0 0 0 0 0 0 0 0 0 0 0 0.25 0"/>
<feBlend mode="normal" in2="BackgroundImageFix" result="effect1_dropShadow_2_30"/>
<feBlend mode="normal" in="SourceGraphic" in2="effect1_dropShadow_2_30" result="shape"/>
</filter>
</defs>
</svg>
