<svg width="55" height="40" viewBox="0 0 55 40" fill="none" xmlns="http://www.w3.org/2000/svg">
<g id="BIO" clip-path="url(#clip0_1_2)">
<g id="Ellipse 2" filter="url(#filter0_d_1_2)">
<path d="M52.0822 17.0255C52.3225 31.5958 42.3203 31.3816 26.7527 31.9727C18.6852 32.2791 8.49305 30.7062 4.66286 26.1172C1.10213 21.8511 4.06047 15.2882 4.45582 10.5462C5.49435 -1.91061 23.4809 0.452196 36.0548 4.65112C44.9168 7.61046 51.8419 2.45515 52.0822 17.0255Z" fill="#F2FFE7"/>
</g>
<path id="Ellipse 1" d="M50.0891 16.8593C50.3294 31.4297 44.6457 27.5616 29.0782 28.1527C21.0106 28.4591 10.4861 30.8723 6.65595 26.2834C3.09521 22.0173 5.34758 17.9042 5.74293 13.1622C6.78146 0.705378 14.8025 2.23736 27.3765 6.43628C36.2385 9.39562 49.8488 2.289 50.0891 16.8593Z" fill="#A2B532"/>
<path id="BIO_2" d="M23.1851 13.0911C23.1004 14.1075 22.6683 14.9566 21.889 15.6382C21.1107 16.3078 20.0204 16.7468 18.6183 16.955C19.3428 17.2201 19.8769 17.6018 20.2207 18.1001C20.5655 18.5864 20.7129 19.1285 20.6631 19.7265C20.5843 20.6712 20.2171 21.4654 19.5613 22.1092C18.9175 22.7539 18.0117 23.2203 16.8437 23.5082C15.6767 23.7842 14.292 23.8554 12.6896 23.7218C12.0917 23.672 11.6148 23.6142 11.259 23.5484C11.2192 23.8822 11.0547 24.1214 10.7657 24.2659C10.4767 24.4104 10.117 24.4647 9.68646 24.4288C9.25596 24.3929 8.96497 24.2723 8.8135 24.067C8.67399 23.8627 8.63165 23.5762 8.68647 23.2075C8.93368 21.5422 9.28901 19.8078 9.75247 18.004C10.2169 16.1883 10.7596 14.4454 11.3805 12.7752C11.4892 12.4832 11.674 12.2879 11.9351 12.1893C12.1962 12.0906 12.5301 12.0582 12.9367 12.0921C13.6661 12.153 14.0139 12.3867 13.98 12.7933C13.9661 12.9607 13.9142 13.149 13.8245 13.3583C13.4358 14.2651 13.0192 15.5068 12.5747 17.0833C12.1312 18.6479 11.7834 20.1482 11.5312 21.5842C12.1012 21.6799 12.5656 21.7427 12.9243 21.7726C14.5985 21.9122 15.8442 21.7752 16.6614 21.3617C17.4915 20.9372 17.938 20.3482 18.0008 19.5948C18.0447 19.0686 17.8544 18.6072 17.4299 18.2106C17.0173 17.815 16.2863 17.5553 15.237 17.4317C14.9988 17.3998 14.8364 17.3261 14.7497 17.2105C14.663 17.0949 14.6296 16.9175 14.6495 16.6783C14.6785 16.3315 14.7736 16.0565 14.9351 15.8532C15.0965 15.6499 15.3691 15.5582 15.7528 15.5782C16.6038 15.625 17.3796 15.5633 18.0802 15.3929C18.7927 15.2235 19.3633 14.952 19.7918 14.5783C20.2213 14.1926 20.459 13.7248 20.5049 13.1747C20.5627 12.4811 20.2673 11.9085 19.6185 11.4571C18.9708 10.9937 17.9414 10.7031 16.5303 10.5855C15.2507 10.4788 13.999 10.5431 12.7753 10.7782C11.5525 11.0014 10.5016 11.3292 9.62265 11.7617C9.22104 11.957 8.88869 12.0437 8.6256 12.0217C8.41035 12.0038 8.24891 11.9181 8.14129 11.7646C8.04662 11.6002 8.00876 11.4043 8.0277 11.1771C8.05263 10.8782 8.13386 10.626 8.27139 10.4208C8.42088 10.2165 8.74626 9.99675 9.24753 9.76158C10.2999 9.27132 11.5152 8.92108 12.8934 8.71086C14.2717 8.50064 15.6663 8.45435 17.0774 8.572C19.2419 8.75245 20.8259 9.25178 21.8294 10.07C22.8329 10.8882 23.2848 11.8952 23.1851 13.0911ZM31.6157 10.1453C31.9266 10.1712 32.1832 10.2709 32.3855 10.4443C32.5888 10.6057 32.6814 10.7941 32.6635 11.0093C32.6316 11.392 32.4861 11.693 32.227 11.9122C31.9689 12.1195 31.6186 12.2047 31.1761 12.1678C30.4825 12.11 29.9558 12.0721 29.5961 12.0541C29.5602 12.1956 29.3987 12.8324 29.1117 13.9645C28.7898 15.2261 28.5929 15.9984 28.5212 16.2814L27.9486 18.5999C27.5389 20.3358 27.207 21.7893 26.9528 22.9602C27.205 22.9692 27.5463 22.9916 27.9768 23.0275C28.6106 23.0804 29.0341 23.2 29.2474 23.3863C29.4606 23.5727 29.5533 23.8333 29.5254 24.1681C29.4995 24.479 29.352 24.7317 29.0829 24.926C28.8258 25.1213 28.476 25.2005 28.0335 25.1636C27.7346 25.1387 27.2632 25.0874 26.6194 25.0096C26.0235 24.9358 25.6299 24.891 25.4385 24.875C24.6851 24.8122 23.8545 24.8092 22.9467 24.866C22.547 24.8929 22.2635 24.8993 22.0961 24.8854C21.833 24.8634 21.6178 24.7732 21.4504 24.6148C21.2829 24.4563 21.2107 24.2396 21.2336 23.9645C21.2695 23.534 21.4888 23.2151 21.8914 23.0079C22.294 22.8006 22.8426 22.7199 23.5372 22.7658L24.3818 22.8181L24.4685 22.428C24.915 20.5385 25.2369 19.2047 25.4343 18.4264L26.0248 16.1094C26.3796 14.7422 26.714 13.3311 27.028 11.8761L25.5197 11.7685C25.0892 11.7326 24.7957 11.6419 24.6393 11.4964C24.4958 11.3399 24.4345 11.1361 24.4554 10.885C24.5232 10.0718 25.1456 9.68416 26.3225 9.72208C26.8746 9.74402 27.5453 9.78789 28.3345 9.85369L31.6157 10.1453ZM37.1854 25.9085C36.1211 25.8198 35.1783 25.5004 34.3572 24.9503C33.548 24.4011 32.9307 23.6452 32.5052 22.6826C32.0807 21.7079 31.9223 20.5748 32.03 19.2833C32.1815 17.4656 32.644 15.8906 33.4174 14.5583C34.2027 13.2269 35.1948 12.2319 36.3936 11.5732C37.6045 10.9155 38.9035 10.6445 40.2907 10.7602C41.355 10.8489 42.2917 11.1678 43.1009 11.717C43.922 12.2671 44.5448 13.0295 44.9693 14.0041C45.3948 14.9668 45.5537 16.0939 45.4461 17.3854C45.2945 19.2031 44.8261 20.7776 44.0408 22.109C43.2674 23.4413 42.2753 24.4363 41.0645 25.094C39.8656 25.7527 38.5726 26.0242 37.1854 25.9085ZM37.5412 23.8068C38.474 23.8846 39.3171 23.6659 40.0705 23.1507C40.8358 22.6365 41.4522 21.8871 41.9196 20.9026C42.3881 19.906 42.6761 18.762 42.7838 17.4705C42.9024 16.0474 42.6932 14.9462 42.1561 14.1669C41.62 13.3757 40.8795 12.9406 39.9348 12.8619C39.014 12.7851 38.1769 13.0043 37.4235 13.5195C36.6711 14.0227 36.0547 14.7721 35.5743 15.7676C35.095 16.7512 34.8009 17.8947 34.6923 19.1982C34.5736 20.6213 34.7824 21.7284 35.3185 22.5197C35.8556 23.299 36.5965 23.7281 37.5412 23.8068Z" fill="#F2FFE7"/>
</g>
<defs>
<filter id="filter0_d_1_2" x="-1.0723" y="1.28046" width="57.1587" height="38.7291" filterUnits="userSpaceOnUse" color-interpolation-filters="sRGB">
<feFlood flood-opacity="0" result="BackgroundImageFix"/>
<feColorMatrix in="SourceAlpha" type="matrix" values="0 0 0 0 0 0 0 0 0 0 0 0 0 0 0 0 0 0 127 0" result="hardAlpha"/>
<feOffset dy="4"/>
<feGaussianBlur stdDeviation="2"/>
<feComposite in2="hardAlpha" operator="out"/>
<feColorMatrix type="matrix" values="0 0 0 0 0 0 0 0 0 0 0 0 0 0 0 0 0 0 0.25 0"/>
<feBlend mode="normal" in2="BackgroundImageFix" result="effect1_dropShadow_1_2"/>
<feBlend mode="normal" in="SourceGraphic" in2="effect1_dropShadow_1_2" result="shape"/>
</filter>
<clipPath id="clip0_1_2">
<rect width="55" height="40" fill="white"/>
</clipPath>
</defs>
</svg>
