<svg width="140" height="40" viewBox="0 0 140 40" fill="none" xmlns="http://www.w3.org/2000/svg">
<g id="Gluten" clip-path="url(#clip0_5_6)">
<g id="Ellipse 4" filter="url(#filter0_d_5_6)">
<path d="M124.957 19.4342C122.842 36.8706 78.5647 33.31 67.447 32.9185C55.0476 32.4819 26.7405 29.3776 20.7752 22.7696C5.84796 6.23401 21.4791 2.78201 54.5115 2.44437C72.6064 2.25941 86.4646 1.93512 105.927 5.75599C116.858 7.90204 126.403 7.51121 124.957 19.4342Z" fill="#FCE3C0"/>
</g>
<path id="Ellipse 5" d="M122.923 20.3632C122.736 25.6743 116.69 28.8243 106.616 28.7945C91.1084 28.7487 83.4723 32.4822 63.4847 31.7783C54.7541 31.4709 37.6063 27.8651 27.236 23.9978C17.2918 20.2893 16.8299 6.48012 26.3881 5.45643C38.0103 4.21168 45.5147 4.97494 58.9207 5.10118C69.8446 5.20405 75.9982 3.20106 99.3956 6.52659C112.678 8.41449 124.345 8.40585 122.923 20.3632Z" fill="#ECBA16"/>
<g id="Sans Gluten">
<path d="M27.8347 21.6614C26.2397 21.6052 24.973 21.2604 24.0347 20.627C23.0969 19.9816 22.6499 19.0353 22.6938 17.7881C22.7171 17.1285 22.8487 16.6288 23.0888 16.289C23.3289 15.9493 23.6709 15.7872 24.1146 15.8028C24.4384 15.8142 24.6993 15.9075 24.8972 16.0826C25.0952 16.2576 25.1895 16.4771 25.1802 16.7409C25.1718 16.9808 25.1464 17.19 25.1041 17.3686C25.1024 17.4166 25.0874 17.5001 25.0592 17.6192C25.043 17.7387 25.0326 17.8644 25.0279 17.9963C25.0089 18.536 25.2646 18.9473 25.795 19.2301C26.3374 19.5134 27.1002 19.6723 28.0836 19.7069C29.103 19.7428 29.9068 19.591 30.4952 19.2515C31.0839 18.9 31.3899 18.3945 31.4131 17.7349C31.4275 17.3272 31.3078 16.9747 31.0541 16.6776C30.8008 16.3685 30.4797 16.111 30.0907 15.9052C29.7021 15.6874 29.1531 15.4219 28.4437 15.1088C27.5329 14.7165 26.7894 14.3481 26.2132 14.0036C25.649 13.6595 25.1667 13.2043 24.7664 12.6378C24.3785 12.0598 24.1991 11.3571 24.2282 10.5296C24.2586 9.6661 24.5135 8.90661 24.9929 8.25107C25.4843 7.59596 26.1682 7.09772 27.0448 6.75636C27.9333 6.41542 28.9652 6.26565 30.1405 6.30704C31.016 6.33787 31.8148 6.49808 32.5371 6.78768C33.2598 7.06529 33.8277 7.47553 34.2408 8.01841C34.666 8.56171 34.865 9.21712 34.838 9.98464C34.8114 10.7402 34.6774 11.3058 34.436 11.6815C34.1946 12.0573 33.8521 12.2373 33.4084 12.2217C33.0966 12.2107 32.8361 12.1055 32.627 11.906C32.4299 11.707 32.336 11.4755 32.3453 11.2117C32.3533 10.9838 32.3787 10.7746 32.4214 10.584C32.4701 10.2255 32.4961 9.99823 32.4994 9.90229C32.5172 9.3986 32.2848 9.00618 31.8024 8.72502C31.32 8.44387 30.7131 8.29042 29.9815 8.26465C28.9502 8.22833 28.1519 8.39234 27.5867 8.75667C27.034 9.10944 26.7455 9.62761 26.7215 10.3112C26.7054 10.7669 26.8296 11.1615 27.094 11.495C27.3705 11.829 27.7147 12.1113 28.1269 12.3419C28.539 12.5726 29.1176 12.8511 29.8625 13.1775C30.7609 13.5814 31.4806 13.9429 32.0217 14.2622C32.5628 14.5814 33.0162 15.0056 33.3818 15.5348C33.7593 16.0644 33.9348 16.707 33.9082 17.4626C33.8584 18.8777 33.2803 19.95 32.1739 20.6795C31.08 21.3975 29.6336 21.7247 27.8347 21.6614ZM38.0427 21.9669C37.2992 21.9407 36.7151 21.6499 36.2903 21.0946C35.8656 20.5393 35.6687 19.824 35.6995 18.9485C35.7333 17.9891 35.987 17.0915 36.4608 16.2556C36.9349 15.4078 37.5468 14.7389 38.2965 14.249C39.0586 13.7475 39.8534 13.5113 40.6809 13.5405C40.9448 13.5498 41.1168 13.6099 41.1969 13.7208C41.2895 13.8201 41.3611 14.0027 41.4118 14.2687C41.6653 14.2296 41.93 14.2149 42.2058 14.2246C42.7934 14.2453 43.0799 14.4655 43.0651 14.8852C43.0562 15.1371 42.9452 15.7335 42.7319 16.6746C42.4075 18.044 42.2358 18.9986 42.2168 19.5383C42.2105 19.7181 42.2474 19.8635 42.3275 19.9744C42.4197 20.0857 42.5377 20.1439 42.6816 20.149C42.9094 20.157 43.1903 20.0228 43.5243 19.7464C43.8586 19.458 44.3133 18.9937 44.8881 18.3535C45.038 18.1907 45.2028 18.1125 45.3827 18.1188C45.5386 18.1243 45.656 18.2005 45.7349 18.3473C45.8258 18.4946 45.8668 18.6942 45.8579 18.946C45.841 19.4257 45.714 19.7935 45.4768 20.0493C44.9636 20.6436 44.4238 21.1409 43.8573 21.5412C43.2909 21.9415 42.7498 22.1326 42.2341 22.1145C41.8384 22.1005 41.4773 21.9557 41.1508 21.6801C40.8367 21.3928 40.6039 21.0124 40.4525 20.5388C39.7934 21.5242 38.9901 22.0002 38.0427 21.9669ZM38.7543 20.1728C39.0182 20.1821 39.2755 20.035 39.5263 19.7317C39.7772 19.4283 39.9656 19.0207 40.0917 18.5088L40.8739 15.2223C40.3698 15.2166 39.8953 15.392 39.4505 15.7485C39.018 16.0935 38.6654 16.5614 38.3924 17.1522C38.1194 17.7429 37.9711 18.3741 37.9475 19.0457C37.9344 19.4175 37.9966 19.6958 38.1342 19.8808C38.2838 20.0662 38.4905 20.1635 38.7543 20.1728ZM46.0968 22.2505C45.6411 22.2344 45.3257 21.9832 45.1508 21.4967C44.9878 21.0107 44.9249 20.24 44.962 19.1847C45.0169 17.6256 45.2909 16.1524 45.7841 14.7649C45.9043 14.4209 46.087 14.1751 46.3324 14.0277C46.5901 13.8687 46.9409 13.797 47.3846 13.8126C47.6244 13.821 47.7913 13.8569 47.8851 13.9203C47.9789 13.9836 48.0229 14.0992 48.017 14.2671C48.0102 14.459 47.9051 14.8876 47.7015 15.5528C47.5647 16.0283 47.454 16.4447 47.3694 16.8019C47.2847 17.1591 47.2092 17.6008 47.1426 18.1267C47.5747 17.1093 48.048 16.2855 48.5625 15.6552C49.077 15.0249 49.5729 14.5801 50.0504 14.3207C50.5398 14.0618 50.9824 13.9393 51.3781 13.9532C52.1576 13.9807 52.5337 14.3842 52.5062 15.1637C52.4897 15.6314 52.328 16.4722 52.0211 17.6862C51.7565 18.7215 51.6183 19.4071 51.6065 19.7429C51.5896 20.2226 51.755 20.4685 52.1028 20.4808C52.3427 20.4892 52.6296 20.3552 52.9635 20.0788C53.3099 19.7908 53.7705 19.3268 54.3454 18.6866C54.4952 18.5238 54.66 18.4455 54.8399 18.4519C54.9958 18.4573 55.1132 18.5335 55.1921 18.6804C55.283 18.8277 55.324 19.0272 55.3151 19.2791C55.2982 19.7588 55.1712 20.1266 54.934 20.3824C54.396 20.9998 53.82 21.5018 53.206 21.8885C52.604 22.2755 51.9252 22.4558 51.1697 22.4291C50.5581 22.4076 50.1025 22.2175 49.8029 21.8587C49.5038 21.4879 49.366 20.9668 49.3897 20.2952C49.4015 19.9594 49.5066 19.3627 49.7049 18.5052C49.8874 17.7551 49.9837 17.2362 49.9938 16.9484C50.0006 16.7565 49.938 16.6582 49.8061 16.6536C49.6502 16.6481 49.4212 16.8441 49.119 17.2418C48.8292 17.6278 48.5228 18.1453 48.1998 18.7944C47.8887 19.4438 47.6304 20.1312 47.4247 20.8564C47.2729 21.4154 47.1035 21.7936 46.9165 21.9912C46.7418 22.1771 46.4686 22.2636 46.0968 22.2505ZM57.6154 23.0524C56.9918 23.0304 56.5172 22.8696 56.1915 22.57C55.8779 22.2708 55.7274 21.9413 55.74 21.5815C55.751 21.2697 55.8744 21.0038 56.1103 20.784C56.3462 20.5642 56.686 20.4621 57.1297 20.4777C57.2856 20.4832 57.4649 20.5075 57.6675 20.5507C57.8825 20.5823 58.0438 20.6059 58.1513 20.6217C58.1503 20.3095 58.0887 20.0132 57.9665 19.7327C57.8563 19.4526 57.7097 19.1833 57.5266 18.9247C57.3441 18.6541 57.1722 18.4199 57.011 18.2221C56.6144 18.9166 56.2219 19.4911 55.8337 19.9458C55.4574 20.4008 55.046 20.8306 54.5995 21.2351C54.376 21.4434 54.1444 21.5433 53.9045 21.5348C53.7127 21.5281 53.5591 21.4566 53.4438 21.3205C53.3289 21.1724 53.2751 20.9964 53.2823 20.7925C53.2907 20.5526 53.3825 20.3337 53.5576 20.1358L53.8015 19.8562C54.4899 19.0639 55.0112 18.4099 55.3656 17.894C55.5937 17.5538 55.8241 17.1477 56.0569 16.6756C56.3016 16.2039 56.6185 15.5607 57.0074 14.7458C57.2538 14.2262 57.7368 13.979 58.4564 14.0044C58.7922 14.0162 59.025 14.0544 59.1548 14.119C59.2846 14.1836 59.3472 14.2819 59.3425 14.4138C59.34 14.4858 59.312 14.5989 59.2585 14.7531C59.2051 14.9073 59.1336 15.0609 59.0442 15.2138C58.8131 15.6379 58.6923 15.9999 58.6817 16.2997C58.6754 16.4796 58.7284 16.6796 58.8407 16.8997C58.965 17.1202 59.1534 17.397 59.4058 17.7301C59.7719 18.2473 60.0445 18.6892 60.2237 19.0557C60.4153 19.4107 60.5037 19.798 60.489 20.2178C60.4712 20.7215 60.3344 21.1969 60.0785 21.6442C59.835 22.0799 59.4986 22.4283 59.0691 22.6893C58.6396 22.9504 58.1551 23.0714 57.6154 23.0524ZM82.5288 19.463C82.6847 19.4685 82.8019 19.5507 82.8804 19.7095C82.9713 19.8568 83.0127 20.0444 83.0047 20.2722C82.9949 20.5481 82.9454 20.7625 82.8559 20.9154C82.7665 21.0684 82.6297 21.2016 82.4456 21.3152C81.7216 21.758 80.5672 22.4858 78.9826 23.4987C78.4275 25.9647 77.753 27.8981 76.9592 29.2991C76.1654 30.7 75.1989 31.3804 74.0596 31.3403C73.448 31.3187 72.957 31.1093 72.5868 30.7121C72.2161 30.3268 72.0415 29.8283 72.0631 29.2167C72.0829 28.653 72.2289 28.0878 72.501 27.5211C72.7731 26.9543 73.2643 26.3052 73.9745 25.5737C74.6967 24.8427 75.7045 24.0136 76.9979 23.0866L77.0639 22.7467C76.1025 23.1091 75.1661 23.2742 74.2547 23.2421C72.9115 23.1948 71.7394 22.8954 70.7381 22.3438C69.7374 21.7802 68.972 21.0088 68.4422 20.0296C67.9123 19.0503 67.6698 17.9251 67.7145 16.6539C67.777 14.879 68.1679 13.3258 68.8873 11.9942C69.607 10.6507 70.5676 9.62792 71.769 8.92577C72.9829 8.21205 74.3214 7.88095 75.7845 7.93248C77.1876 7.98189 78.2253 8.34864 78.8977 9.03273C79.5824 9.70525 79.9058 10.5812 79.8678 11.6605C79.8429 12.3681 79.6909 12.9331 79.4119 13.3555C79.1452 13.7664 78.7721 13.9634 78.2924 13.9465C77.9686 13.9351 77.7075 13.8478 77.5091 13.6847C77.3227 13.5221 77.2344 13.3028 77.2441 13.027C77.2483 12.9071 77.2795 12.7041 77.3376 12.4179C77.4214 12.0847 77.4666 11.8221 77.4734 11.6302C77.4911 11.1265 77.3489 10.7313 77.0469 10.4445C76.7568 10.1581 76.2519 10.0022 75.5324 9.97687C74.6569 9.94604 73.8325 10.1692 73.0593 10.6462C72.298 11.1238 71.6718 11.8582 71.1806 12.8495C70.6898 13.8288 70.4197 15.0201 70.3703 16.4232C70.3196 17.8623 70.6701 18.9913 71.4217 19.8103C72.1858 20.6177 73.3114 21.0476 74.7984 21.0999C75.6259 21.1291 76.4959 20.9736 77.4085 20.6335L77.7376 18.4477L75.9027 18.3831C75.567 18.3713 75.3119 18.2843 75.1375 18.122C74.9635 17.9478 74.883 17.6748 74.8961 17.303C74.908 16.9672 75.0072 16.7066 75.1938 16.521C75.3805 16.3355 75.6237 16.248 75.9235 16.2585L79.2874 16.377C79.5513 16.3863 79.764 16.4838 79.9255 16.6696C80.0995 16.8439 80.1628 17.0923 80.1154 17.4148C80.0659 17.7973 79.9154 18.6625 79.6638 20.0105L79.4178 21.3707C80.4025 20.6849 81.2999 20.0921 82.11 19.5923C82.2693 19.5019 82.4089 19.4588 82.5288 19.463ZM74.3189 29.6023C74.6307 29.6133 74.985 29.2716 75.3816 28.5771C75.7783 27.8826 76.1662 26.7556 76.5454 25.196C75.6065 25.9434 74.9222 26.6217 74.4925 27.231C74.0743 27.8526 73.8568 28.4033 73.8399 28.883C73.8234 29.3507 73.9831 29.5905 74.3189 29.6023ZM89.2858 19.6649C89.4417 19.6704 89.5591 19.7466 89.6379 19.8935C89.7288 20.0408 89.7698 20.2403 89.7609 20.4922C89.7441 20.9719 89.617 21.3396 89.3799 21.5954C88.8418 22.2129 88.2598 22.7147 87.6338 23.1009C87.0198 23.4875 86.3291 23.6673 85.5615 23.6403C84.5062 23.6032 83.7376 23.0958 83.2557 22.1182C82.7858 21.1411 82.5777 19.891 82.6313 18.3679C82.6828 16.9048 82.9274 15.2444 83.3651 13.3867C83.8147 11.5293 84.429 9.94197 85.2078 8.62456C85.9986 7.30758 86.9037 6.66704 87.9231 6.70294C88.4988 6.72321 88.939 7.00888 89.2438 7.55995C89.561 8.09945 89.7021 8.86689 89.667 9.86227C89.6167 11.2894 89.1627 12.9304 88.3049 14.7854C87.4471 16.6403 86.3081 18.4674 84.8879 20.2665C84.9545 20.7612 85.08 21.1198 85.2642 21.3424C85.4489 21.5531 85.6972 21.6639 86.009 21.6748C86.5007 21.6922 86.9373 21.5695 87.3188 21.3067C87.7007 21.032 88.1915 20.563 88.7912 19.8997C88.941 19.7368 89.1059 19.6586 89.2858 19.6649ZM87.4646 8.4699C87.1888 8.46018 86.8595 8.94689 86.4766 9.93003C86.0938 10.9132 85.7445 12.1376 85.4287 13.6034C85.1129 15.0692 84.9192 16.4793 84.8475 17.8336C85.7484 16.4604 86.4753 15.0812 87.0285 13.6958C87.582 12.2984 87.8792 11.0181 87.9202 9.85479C87.9523 8.94335 87.8004 8.48172 87.4646 8.4699ZM90.5655 23.8165C90.0259 23.7975 89.5908 23.5361 89.2603 23.0321C88.9423 22.5166 88.7963 21.8871 88.8225 21.1435C88.8542 20.2441 88.9431 19.4247 89.0892 18.6854C89.2357 17.9341 89.4617 17.1436 89.7671 16.3138C89.8997 15.9582 90.0767 15.7063 90.298 15.558C90.5194 15.4097 90.8639 15.3438 91.3316 15.3603C91.5955 15.3696 91.7739 15.4179 91.8669 15.5052C91.9718 15.5929 92.0214 15.7208 92.0155 15.8887C92.0121 15.9846 91.9347 16.3061 91.7834 16.8531C91.6478 17.2926 91.5377 17.691 91.4531 18.0482C91.1689 19.299 91.0194 20.1342 91.0046 20.554C90.9958 20.8058 91.0194 20.9868 91.0756 21.0968C91.1322 21.1949 91.2264 21.2462 91.3583 21.2509C91.5382 21.2572 91.7664 21.0851 92.0429 20.7346C92.3314 20.3846 92.6385 19.849 92.964 19.1281C93.3016 18.4075 93.6331 17.5186 93.9585 16.4614C94.0671 16.105 94.2201 15.8522 94.4175 15.7031C94.6268 15.5544 94.9294 15.487 95.3252 15.5009C95.601 15.5106 95.7916 15.5534 95.897 15.6291C96.0028 15.6929 96.0526 15.8147 96.0462 15.9946C96.0357 16.2944 95.8568 17.1106 95.5097 18.4432C95.1199 19.9664 94.9186 20.9079 94.9059 21.2677C94.8979 21.4956 94.9395 21.6772 95.0308 21.8125C95.1226 21.9358 95.2464 22.0002 95.4023 22.0056C95.6421 22.0141 95.929 21.8801 96.2629 21.6037C96.6093 21.3157 97.0699 20.8516 97.6448 20.2115C97.7946 20.0486 97.9595 19.9704 98.1394 19.9767C98.2953 19.9822 98.4127 20.0584 98.4915 20.2053C98.5824 20.3525 98.6234 20.5521 98.6146 20.804C98.5977 21.2837 98.4706 21.6514 98.2335 21.9072C97.6954 22.5247 97.1194 23.0267 96.5054 23.4133C95.9034 23.8004 95.2246 23.9806 94.4691 23.954C93.8935 23.9337 93.4756 23.6969 93.2153 23.2434C92.9671 22.7904 92.8572 22.1622 92.8855 21.3587C92.6529 22.167 92.3249 22.7858 91.9015 23.2152C91.4786 23.6326 91.0332 23.833 90.5655 23.8165ZM105.747 20.2446C105.903 20.2501 106.02 20.3263 106.099 20.4732C106.19 20.6205 106.231 20.82 106.222 21.0719C106.205 21.5516 106.078 21.9193 105.841 22.1752C105.303 22.7926 104.721 23.2944 104.095 23.6806C103.469 24.0668 102.76 24.246 101.969 24.2181C99.5224 24.132 98.3598 22.368 98.481 18.9261C98.4996 18.3984 98.5364 17.8654 98.5914 17.327L97.8898 17.3023C97.53 17.2896 97.2865 17.215 97.1592 17.0784C97.0439 16.9423 96.9914 16.7303 97.0015 16.4425C97.0252 15.7709 97.3068 15.4446 97.8465 15.4636L98.8718 15.4997C99.1222 14.1877 99.4764 12.9935 99.9346 11.9169C100.393 10.8404 100.927 9.98865 101.538 9.36174C102.16 8.73526 102.813 8.43406 103.497 8.45813C104 8.47587 104.388 8.71167 104.66 9.16553C104.933 9.61939 105.057 10.1821 105.033 10.8537C104.968 12.7125 104.131 14.3041 102.524 15.6283L104.538 15.6993C104.73 15.706 104.867 15.7529 104.948 15.8398C105.029 15.9267 105.065 16.0841 105.057 16.3119C105.028 17.1394 104.336 17.5293 102.981 17.4816L100.786 17.4043C100.741 18.0031 100.712 18.4703 100.701 18.8061C100.657 20.0534 100.77 20.9339 101.04 21.4477C101.322 21.962 101.781 22.2303 102.416 22.2527C102.932 22.2708 103.393 22.131 103.8 21.8331C104.207 21.5352 104.691 21.084 105.253 20.4794C105.402 20.3166 105.567 20.2383 105.747 20.2446ZM102.95 10.168C102.77 10.1616 102.558 10.3823 102.314 10.83C102.083 11.2661 101.851 11.8823 101.619 12.6787C101.399 13.4634 101.206 14.3392 101.04 15.3059C101.769 14.7192 102.321 14.0542 102.695 13.3109C103.082 12.5561 103.286 11.8668 103.308 11.2432C103.333 10.5357 103.214 10.1772 102.95 10.168ZM113.349 20.5123C113.505 20.5178 113.622 20.594 113.701 20.7409C113.792 20.8882 113.833 21.0877 113.824 21.3396C113.807 21.8193 113.68 22.187 113.443 22.4429C112.98 22.9669 112.333 23.4424 111.502 23.8694C110.682 24.2968 109.81 24.4943 108.887 24.4618C107.628 24.4174 106.662 24.0412 105.991 23.3331C105.319 22.6251 105.005 21.6774 105.046 20.4901C105.076 19.6626 105.277 18.9012 105.649 18.2059C106.022 17.4986 106.522 16.9459 107.148 16.5477C107.787 16.1499 108.496 15.9647 109.275 15.9922C109.971 16.0167 110.521 16.2462 110.926 16.6807C111.332 17.1032 111.522 17.6683 111.497 18.3758C111.468 19.2033 111.143 19.9063 110.522 20.4848C109.914 21.0518 108.896 21.4842 107.468 21.7822C107.749 22.3444 108.309 22.6403 109.148 22.6698C109.688 22.6889 110.306 22.5245 111.003 22.1768C111.712 21.8175 112.329 21.341 112.854 20.7471C113.004 20.5843 113.169 20.506 113.349 20.5123ZM108.907 17.7443C108.464 17.7287 108.077 17.9732 107.747 18.4779C107.429 18.9831 107.257 19.6014 107.231 20.3329L107.23 20.3689C107.944 20.2259 108.51 19.9937 108.93 19.6723C109.349 19.3509 109.567 18.9683 109.582 18.5246C109.59 18.2967 109.531 18.1145 109.404 17.9779C109.289 17.8298 109.123 17.7519 108.907 17.7443ZM114.06 24.6439C113.605 24.6279 113.289 24.3766 113.114 23.8902C112.951 23.4041 112.888 22.6335 112.925 21.5781C112.98 20.0191 113.254 18.5458 113.747 17.1583C113.868 16.8143 114.05 16.5686 114.296 16.4211C114.554 16.2621 114.904 16.1904 115.348 16.206C115.588 16.2145 115.755 16.2504 115.849 16.3137C115.942 16.3771 115.986 16.4927 115.98 16.6606C115.974 16.8525 115.868 17.281 115.665 17.9463C115.528 18.4218 115.417 18.8381 115.333 19.1954C115.248 19.5526 115.173 19.9942 115.106 20.5202C115.538 19.5028 116.011 18.6789 116.526 18.0486C117.04 17.4184 117.536 16.9735 118.014 16.7142C118.503 16.4552 118.946 16.3327 119.342 16.3467C119.725 16.3602 120.01 16.4723 120.194 16.6829C120.391 16.882 120.483 17.1734 120.47 17.5571C120.459 17.8689 120.372 18.4543 120.21 19.3131C120.064 20.0404 119.944 20.7326 119.848 21.3896C119.754 22.0347 119.692 22.759 119.664 23.5625C119.648 24.0182 119.54 24.3446 119.341 24.5417C119.154 24.7273 118.851 24.8127 118.432 24.7979C118.036 24.784 117.752 24.6719 117.579 24.4617C117.406 24.2515 117.327 23.9425 117.341 23.5347C117.358 23.055 117.47 22.2665 117.677 21.1691C117.854 20.2147 117.948 19.6057 117.957 19.3418C117.964 19.1499 117.901 19.0517 117.77 19.047C117.614 19.0415 117.385 19.2376 117.082 19.6352C116.793 20.0213 116.486 20.5388 116.163 21.1878C115.852 21.8373 115.594 22.5246 115.388 23.2498C115.236 23.8088 115.067 24.1871 114.88 24.3846C114.705 24.5706 114.432 24.657 114.06 24.6439Z" fill="#925600"/>
</g>
</g>
<defs>
<filter id="filter0_d_5_6" x="11.0978" y="2.34633" width="118.005" height="39.1302" filterUnits="userSpaceOnUse" color-interpolation-filters="sRGB">
<feFlood flood-opacity="0" result="BackgroundImageFix"/>
<feColorMatrix in="SourceAlpha" type="matrix" values="0 0 0 0 0 0 0 0 0 0 0 0 0 0 0 0 0 0 127 0" result="hardAlpha"/>
<feOffset dy="4"/>
<feGaussianBlur stdDeviation="2"/>
<feComposite in2="hardAlpha" operator="out"/>
<feColorMatrix type="matrix" values="0 0 0 0 0 0 0 0 0 0 0 0 0 0 0 0 0 0 0.25 0"/>
<feBlend mode="normal" in2="BackgroundImageFix" result="effect1_dropShadow_5_6"/>
<feBlend mode="normal" in="SourceGraphic" in2="effect1_dropShadow_5_6" result="shape"/>
</filter>
<clipPath id="clip0_5_6">
<rect width="140" height="40" fill="white"/>
</clipPath>
</defs>
</svg>
