<svg width="270" height="80" viewBox="0 0 270 80" fill="none" xmlns="http://www.w3.org/2000/svg">
<g filter="url(#filter0_di_2_24)">
<path d="M256.054 54.8605C258.23 82.1462 186.529 67.3605 126.054 67.3605C48.0538 71.8605 20.2689 56.3605 14.5537 34.8605C2.19295 -11.6395 65.5537 9.86047 134.655 4.71349C198.655 -8.28651 252.054 4.71349 256.054 54.8605Z" fill="#DADA7D"/>
<path d="M126.054 65.3605L125.939 65.3638C87.0366 67.6081 60.8956 64.8443 43.8486 58.9696C26.8852 53.1237 19.1288 44.2864 16.4866 34.3467C13.4843 23.0524 15.2547 16.6406 19.7016 12.7642C24.4156 8.65512 32.69 6.81752 44.1502 6.27738C53.5772 5.83306 64.7467 6.27091 77.1531 6.75724C79.6935 6.85683 82.2858 6.95845 84.9256 7.05494C100.403 7.62068 117.412 8.00339 134.803 6.70797L135.053 6.67347C166.876 0.209424 195.811 0.270158 217.175 7.98789C227.831 11.8376 236.551 17.572 242.847 25.3039C249.133 33.025 253.089 42.8439 254.06 55.0195C254.294 57.9567 253.543 60.1737 252.047 61.9385C250.502 63.7618 248.022 65.2651 244.532 66.4272C237.516 68.7631 227.164 69.4855 214.571 69.3428C203.207 69.214 190.236 68.3885 176.579 67.5193C175.163 67.4292 173.741 67.3387 172.311 67.2484C157.122 66.2887 141.243 65.3605 126.054 65.3605Z" stroke="white" stroke-width="4" stroke-linejoin="bevel"/>
</g>
<g filter="url(#filter1_d_2_24)">
<path d="M35.478 38.0429C35.4858 37.9191 35.5652 37.8102 35.7161 37.7162C35.867 37.6222 36.0378 37.5398 36.2287 37.469C36.4401 37.3995 36.6406 37.3397 36.8302 37.2895C37.0403 37.2407 37.1983 37.1989 37.304 37.1641C38.2862 37.3504 39.2697 37.516 40.2546 37.661C41.2394 37.806 42.2268 37.9097 43.2168 37.9722C43.5881 37.9956 44.1037 38.0282 44.7638 38.0698C45.4251 38.0909 46.1496 38.0952 46.9373 38.0828C47.7249 38.0704 48.5249 38.0277 49.3371 37.9547C50.1506 37.8611 50.8952 37.7113 51.5708 37.5055C52.2465 37.2996 52.8023 37.0241 53.2382 36.6789C53.6741 36.3337 53.9097 35.8826 53.9448 35.3257C53.9735 34.8719 53.8957 34.4632 53.7116 34.0996C53.5494 33.7166 53.3118 33.3806 52.9987 33.0917C52.7075 32.7834 52.3719 32.5241 51.9917 32.3137C51.8525 32.2221 51.7024 32.1401 51.5413 32.0678C51.7011 32.1608 51.8506 32.253 51.9897 32.3446C52.348 32.5743 52.6617 32.853 52.931 33.1806C53.2221 33.4889 53.4488 33.8345 53.611 34.2175C53.7745 34.5798 53.8419 34.9879 53.8133 35.4416C53.782 35.9367 53.5697 36.3478 53.1763 36.675C52.8049 36.9829 52.3232 37.232 51.7314 37.4224C51.1602 37.6142 50.52 37.7498 49.8109 37.8293C49.1225 37.9101 48.436 37.9599 47.7514 37.9788C47.0669 37.9978 46.4352 37.9993 45.8564 37.9835C45.2788 37.947 44.8251 37.9184 44.4951 37.8976C43.4432 37.8312 42.3829 37.7332 41.3143 37.6036C40.2676 37.4547 39.2215 37.2955 38.1761 37.126C38.5539 37.0463 38.9297 36.9975 39.3036 36.9797C39.6994 36.9426 40.0932 36.9364 40.4851 36.9611C41.1451 37.0028 41.7942 37.0541 42.4323 37.1151C43.0717 37.1554 43.7111 37.1958 44.3505 37.2361C45.1136 37.2843 45.8671 37.3215 46.6109 37.3478C47.356 37.3534 48.1244 37.319 48.916 37.2447L48.9854 37.6219C49.2986 37.5795 49.6964 37.5114 50.1786 37.4176C50.6621 37.3032 51.1269 37.1565 51.5731 36.9776C52.0399 36.8 52.4377 36.5662 52.7666 36.2764C53.1162 35.9878 53.3039 35.6373 53.33 35.2248C53.3677 34.6266 53.1844 34.087 52.7799 33.6059C52.3754 33.1248 51.8439 32.6875 51.1853 32.2939C50.5488 31.8809 49.8161 31.5137 48.9874 31.1922C48.1586 30.8707 47.3383 30.5808 46.5263 30.3225C45.7349 30.0654 44.9835 29.8316 44.272 29.6211C43.5605 29.4105 42.9927 29.2194 42.5687 29.0476L42.557 29.2333C42.9797 29.4256 43.5359 29.6367 44.2254 29.8666C44.9163 30.0759 45.6574 30.309 46.4488 30.5661C47.2608 30.8244 48.0708 31.1137 48.8789 31.4339C49.6883 31.7335 50.412 32.0794 51.0499 32.4717C51.7084 32.8653 52.2296 33.302 52.6135 33.7818C53.018 34.2629 53.202 34.7922 53.1655 35.3697C53.1447 35.6997 52.9718 35.9787 52.6468 36.2067C52.3218 36.4347 51.9368 36.6278 51.492 36.7861C51.0691 36.9251 50.6378 37.0324 50.1981 37.1082C49.7585 37.184 49.4239 37.2354 49.1944 37.2623C49.4665 37.2174 49.812 37.1563 50.231 37.0793C50.672 36.9828 51.0942 36.8542 51.4978 36.6933C51.9221 36.5337 52.2864 36.3393 52.5908 36.11C52.8964 35.8601 53.0603 35.5598 53.0825 35.2092C53.1189 34.6316 52.9226 34.1326 52.4936 33.7121C52.0646 33.2916 51.4886 32.9032 50.7656 32.5469C50.0426 32.1907 49.2145 31.8589 48.2813 31.5515C47.3482 31.2441 46.3854 30.9141 45.393 30.5616C44.4212 30.2103 43.4726 29.8191 42.5472 29.388C41.6219 28.9568 40.8055 28.4394 40.0982 27.8356C39.3908 27.2319 38.8343 26.5341 38.4287 25.7423C38.0231 24.9505 37.8541 24.0184 37.9218 22.9458C37.9882 21.8939 38.2917 21.0226 38.8323 20.332C39.3948 19.622 40.0823 19.0649 40.8947 18.6606C41.729 18.237 42.6271 17.952 43.5889 17.8056C44.5507 17.6592 45.475 17.614 46.3619 17.67C47.6613 17.752 48.9181 18.0177 50.1322 18.4671C51.3669 18.9177 52.5204 19.5082 53.5925 20.2385C53.4661 20.272 53.39 20.3293 53.3642 20.4105C53.3397 20.4711 53.3145 20.542 53.2887 20.6232C53.2835 20.7057 53.2583 20.7766 53.2131 20.8358C53.1886 20.8964 53.1248 20.9234 53.0216 20.9169C52.9391 20.9117 52.7761 20.8704 52.5325 20.7929C52.3108 20.6961 52.0685 20.5979 51.8056 20.4985C51.5439 20.3785 51.292 20.2694 51.0497 20.1712C50.8074 20.0731 50.6463 20.0008 50.5664 19.9544L50.456 20.227C50.6364 20.3212 50.8658 20.4599 51.1441 20.6431C51.4444 20.807 51.7215 21.0109 51.9753 21.2547C52.251 21.4792 52.4739 21.721 52.6439 21.9803C52.8345 22.2408 52.922 22.4948 52.9064 22.7423C52.8895 23.0104 52.7573 23.1367 52.5098 23.1211C52.2004 23.1015 51.8343 22.9956 51.4116 22.8033C51.0095 22.6122 50.5565 22.4076 50.0526 22.1894C49.55 21.9506 49.0048 21.7299 48.417 21.5271C47.8499 21.3256 47.2673 21.206 46.6692 21.1683C46.2773 21.1436 45.8106 21.1555 45.2691 21.2042C44.7496 21.2335 44.2358 21.3357 43.7278 21.5107C43.2417 21.6664 42.8225 21.9091 42.4704 22.2389C42.1196 22.5481 41.9279 22.9605 41.8953 23.4762C41.8654 23.9506 42.0566 24.3664 42.4689 24.7238C42.9018 25.0824 43.4708 25.4186 44.1757 25.7323C44.9013 26.0473 45.7204 26.3578 46.6329 26.6639C47.5455 26.97 48.4767 27.3083 49.4265 27.6789C50.3984 28.0302 51.336 28.431 52.2394 28.8815C53.1428 29.3319 53.9379 29.8584 54.6246 30.4609C55.332 31.0646 55.8782 31.7617 56.2632 32.5522C56.6687 33.344 56.839 34.2556 56.7739 35.2868C56.7101 36.2975 56.4498 37.1404 55.9931 37.8157C55.5363 38.4909 54.9526 39.0442 54.242 39.4757C53.5327 39.8865 52.7365 40.1986 51.8533 40.4121C50.9714 40.6049 50.0618 40.7442 49.1246 40.83C48.2092 40.8965 47.2971 40.9114 46.3883 40.8747C45.4988 40.86 44.6931 40.8299 43.9712 40.7843L40.8774 40.589C40.6917 40.5773 40.4346 40.5507 40.1058 40.5093C39.7965 40.4897 39.4884 40.4496 39.1816 40.3888C38.8735 40.3487 38.6086 40.2802 38.387 40.1834C38.1653 40.0865 38.0584 39.9762 38.0662 39.8525L38.1069 39.6997C38.9499 39.7944 39.7826 39.8883 40.6051 39.9817C41.4288 40.0544 42.2635 40.1174 43.1091 40.1708C43.8929 40.2202 44.6767 40.2697 45.4605 40.3192C46.163 40.3428 46.8669 40.3458 47.5721 40.3282C47.2201 40.3267 46.8682 40.3252 46.5163 40.3237C46.0831 40.2964 45.6603 40.2697 45.2478 40.2436L44.0103 40.1655C42.0714 40.0432 40.1675 39.8609 38.2984 39.6186C38.35 39.4562 38.3778 39.3441 38.3817 39.2822C38.3869 39.1997 38.3715 39.1159 38.3355 39.0308C38.2942 39.0282 38.2317 39.0346 38.1479 39.05C38.086 39.0461 38.0035 39.0409 37.9004 39.0344C37.6735 39.0201 37.4163 38.9935 37.1289 38.9547C36.862 38.9171 36.5965 38.8589 36.3323 38.7801C36.0887 38.7026 35.8773 38.6065 35.6982 38.4916C35.541 38.3575 35.4676 38.2079 35.478 38.0429ZM54.525 38.4374C54.1548 38.7247 53.7673 38.9591 53.3624 39.1406C53 39.3041 52.628 39.4566 52.2463 39.5982C52.6254 39.4979 52.9955 39.3763 53.3565 39.2334C53.7588 39.0931 54.1483 38.8278 54.525 38.4374ZM69.9208 34.1597C69.3639 34.1246 68.9417 34.0876 68.6543 34.0487C68.3874 34.0112 68.1406 33.9852 67.9137 33.9709C67.2949 33.9319 66.7464 33.9283 66.2681 33.9602C65.7898 33.9922 65.3798 34.0905 65.0381 34.2554C64.6964 34.4202 64.4319 34.6727 64.2448 35.0129C64.0577 35.3531 63.9459 35.812 63.9094 36.3895C63.856 37.2351 63.9091 37.8701 64.0687 38.2943C64.2503 38.6992 64.5105 39.0056 64.8494 39.2133C65.2103 39.4017 65.6472 39.5329 66.1602 39.6067C66.6733 39.6805 67.2449 39.8097 67.8752 39.9945C68.2439 40.0591 68.6132 40.1135 68.9831 40.1576C69.3544 40.181 69.7257 40.2044 70.0969 40.2279L72.3245 40.3685C71.2971 40.2415 70.2678 40.1455 69.2365 40.0804C68.2271 39.996 67.3152 39.8452 66.5006 39.6281C65.7066 39.4124 65.0648 39.082 64.5752 38.6369C64.1062 38.1931 63.8984 37.5484 63.9518 36.7028C63.9947 36.0221 64.1098 35.5117 64.2969 35.1715C64.506 34.8119 64.7601 34.5588 65.0593 34.412C65.3804 34.2459 65.7478 34.1655 66.1616 34.171C66.5767 34.1557 67.0215 34.1631 67.4959 34.193C68.0734 34.2295 68.6593 34.2975 69.2535 34.3972C68.77 34.5116 68.2782 34.5945 67.7779 34.6457C67.2996 34.6776 66.8516 34.7218 66.4339 34.7783C66.0175 34.8142 65.6507 34.8842 65.3335 34.9884C65.0382 35.0733 64.8325 35.2156 64.7164 35.4154L64.6285 36.8076L64.3732 36.9158C64.4231 37.4366 64.4706 37.833 64.5155 38.1051C64.5824 38.3578 64.7763 38.5668 65.0972 38.732C65.4194 38.8765 65.9389 39.0129 66.6556 39.1409C67.3929 39.2703 68.4569 39.4721 69.8478 39.7462L72.0753 39.8868C72.4672 39.9115 72.6947 39.9156 72.7579 39.8988C72.843 39.8628 72.8959 39.8454 72.9165 39.8467L72.7435 38.1585C72.7283 37.7434 72.7002 37.3688 72.6591 37.0349C72.6181 36.701 72.5577 36.3452 72.478 35.9674C72.4535 36.028 72.3897 36.055 72.2865 36.0485C72.3675 36.4056 72.4266 36.7821 72.4637 37.1779C72.5215 37.575 72.56 37.9502 72.5791 38.3034C72.6188 38.6579 72.6412 38.9596 72.6462 39.2084C72.6718 39.4585 72.704 39.6055 72.7426 39.6494L72.5531 39.6995C72.5105 39.7176 72.448 39.724 72.3655 39.7188L72.1799 39.707C72.0355 39.6979 71.8711 39.6772 71.6868 39.6449C71.5038 39.5919 71.2679 39.5563 70.9791 39.5381L69.9582 39.4736C69.1538 39.4229 68.4138 39.3347 67.7384 39.2093C67.1042 39.0864 66.5538 38.9481 66.0872 38.7945C66.5551 38.9275 67.1274 39.0465 67.8042 39.1513C68.5209 39.2794 69.1886 39.3629 69.8074 39.402C70.0755 39.4189 70.3539 39.4365 70.6427 39.4547C70.9534 39.4536 71.2841 39.4641 71.6347 39.4863L72.6557 39.5507C72.5977 39.4849 72.5274 39.4494 72.4449 39.4442L72.3831 39.4403C72.3904 38.0119 72.2907 36.6389 72.0839 35.3213C71.8772 34.0036 71.4847 32.8399 70.9065 31.8302C70.3296 30.7998 69.5437 29.9633 68.5489 29.3207C67.5554 28.6575 66.2851 28.277 64.7382 28.1794C64.3051 28.1521 63.87 28.1557 63.4329 28.1902C62.9959 28.2247 62.5472 28.2792 62.087 28.3537C62.1308 28.3151 62.1541 28.2751 62.1567 28.2339C62.1632 28.1308 62.1278 28.0353 62.0505 27.9476C61.9745 27.8393 61.9397 27.7336 61.9463 27.6304C61.9541 27.5067 62.085 27.4011 62.339 27.3135C62.6149 27.2067 63.179 27.1284 64.0311 27.0787C63.9925 27.0348 63.9655 26.971 63.95 26.8872C63.9553 26.8047 63.9592 26.7428 63.9618 26.7016C62.848 26.6313 61.983 26.556 61.3668 26.4756C60.752 26.3747 60.4524 26.2005 60.468 25.953C60.4745 25.8499 60.6074 25.7133 60.8666 25.5433C61.1464 25.3746 61.5288 25.2227 62.0136 25.0876C62.4997 24.9319 63.0766 24.813 63.7445 24.731C64.4342 24.6295 65.1916 24.6049 66.0166 24.6569C67.6048 24.7572 68.9505 25.0906 70.0536 25.6572C71.1581 26.2032 72.0665 26.9025 72.7789 27.755C73.5132 28.5883 74.0857 29.5252 74.4963 30.5658C74.9275 31.6077 75.2549 32.6534 75.4786 33.7029C75.7242 34.7331 75.8886 35.7374 75.9718 36.716C76.0563 37.6739 76.1383 38.5073 76.2178 39.2164C76.21 39.3402 76.2022 39.4639 76.1944 39.5877C76.2072 39.7127 76.2084 39.8578 76.198 40.0228C76.1602 40.6209 76.0136 41.1397 75.758 41.5792C75.5244 41.9993 75.2026 42.3413 74.7925 42.6054C74.4017 42.8913 73.9439 43.0902 73.4192 43.202C72.9137 43.3358 72.3723 43.3845 71.7947 43.348C71.341 43.3194 70.7538 43.272 70.0332 43.2058C69.3126 43.1396 68.6256 43.0341 67.9721 42.8893C67.5454 42.7588 67.0762 42.6464 66.5645 42.552C66.0515 42.4782 65.5307 42.3625 65.0023 42.2049C64.4738 42.0473 63.9589 41.8388 63.4576 41.5793C62.9769 41.3212 62.5446 40.9523 62.1608 40.4725C61.7988 39.9733 61.5175 39.3447 61.3169 38.5866C61.1369 37.8297 61.0826 36.8841 61.1542 35.7497C61.2219 34.6771 61.5235 33.8368 62.0588 33.2286C62.5955 32.5999 63.2152 32.1316 63.918 31.824C64.6427 31.497 65.3693 31.3047 66.0977 31.2471C66.8274 31.1689 67.4191 31.1442 67.8729 31.1728C68.4504 31.2092 68.8294 31.2746 69.0098 31.3688C69.1902 31.463 69.2778 31.5514 69.2726 31.6339C69.2687 31.6958 69.2551 31.7467 69.2319 31.7866C68.7163 31.7541 68.055 31.733 67.248 31.7235C66.441 31.714 65.6487 31.7986 64.8712 31.9773C64.1144 32.1573 63.4529 32.4676 62.8867 32.9082C62.3218 33.3281 62.0126 33.9609 61.9593 34.8065C62.193 34.0551 62.5402 33.4765 63.0007 33.0707C63.4831 32.6455 64.0195 32.3481 64.6101 32.1783C65.2019 31.9878 65.7982 31.8909 66.3989 31.8874C67.0216 31.8645 67.5805 31.8688 68.0755 31.9L69.1274 31.9664C69.0397 32.0437 68.9932 32.1236 68.988 32.2061C68.9828 32.2886 69.0195 32.3634 69.0981 32.4305L70.3047 32.5066C70.6308 32.5893 70.8608 32.7177 70.9948 32.8919C71.1301 33.0454 71.1938 33.184 71.186 33.3077C71.1743 33.4934 71.071 33.6525 70.8763 33.7852C70.6816 33.9178 70.3631 34.0427 69.9208 34.1597ZM64.2506 41.3188C64.8138 41.5821 65.3906 41.7945 65.9809 41.956C66.5918 42.1188 67.1951 42.2397 67.7906 42.3187C68.3849 42.4184 68.9398 42.4845 69.4554 42.517C69.0455 42.4497 68.6376 42.3515 68.2316 42.2223C67.805 42.0919 67.4292 41.975 67.1044 41.8716C66.759 41.767 66.4116 41.6933 66.0623 41.6506C65.7349 41.5885 65.3875 41.5148 65.0201 41.4295C64.6734 41.3455 64.3183 41.2299 63.9549 41.0827C63.5927 40.9149 63.2345 40.6852 62.8801 40.3936C63.2499 40.769 63.7067 41.0774 64.2506 41.3188ZM64.765 38.0898C64.7457 38.0678 64.8037 38.1336 64.9389 38.2871C65.0549 38.4187 65.214 38.5219 65.4164 38.5968C65.3158 38.549 65.1644 38.4877 64.9621 38.4128C64.7404 38.316 64.6347 38.1851 64.6452 38.0201L64.765 38.0898ZM65.5092 38.6027C65.4886 38.6014 65.4576 38.5994 65.4164 38.5968C65.437 38.5981 65.4679 38.6001 65.5092 38.6027ZM80.0126 40.9469C80.0191 40.8438 80.0579 40.722 80.1289 40.5815C80.1999 40.441 80.2406 40.2883 80.251 40.1233C80.3441 39.6322 80.4075 39.2841 80.4411 39.0792C80.4761 38.8536 80.4988 38.6583 80.5092 38.4933C80.5638 37.627 80.5915 36.6969 80.5921 35.703C80.6146 34.6897 80.6243 33.7171 80.621 32.785C80.6392 32.4962 80.6504 32.1553 80.6545 31.7621C80.6792 31.3702 80.6781 31.0595 80.6512 30.83C80.7586 30.112 80.8551 29.4037 80.9406 28.705C81.0261 28.0064 81.0916 27.2961 81.1372 26.5742L81.186 25.8007C81.2029 25.5326 81.2096 25.2638 81.2059 24.9944C81.2638 25.0602 81.3238 25.095 81.3856 25.0989C81.4681 25.1041 81.5526 25.0784 81.639 25.0217C81.746 24.9663 81.8408 24.9413 81.9233 24.9465C82.0677 24.9556 82.1714 25.1174 82.2343 25.432C82.3179 25.7479 82.3265 26.4318 82.2601 27.4837L82.5386 27.5013C82.7146 26.3528 82.9272 25.4447 83.1765 24.7771C83.4463 24.1107 83.6947 23.7847 83.9215 23.7991C84.0247 23.8056 84.1754 24.0429 84.3736 24.511C84.5731 24.9584 84.643 25.6565 84.5831 26.6053L84.9586 26.0699C85.2024 25.8161 85.4674 25.5533 85.7538 25.2814C86.0608 25.0109 86.3968 24.7732 86.7617 24.5685C87.1267 24.3637 87.5303 24.2029 87.9725 24.0858C88.4161 23.9481 88.9163 23.8969 89.4732 23.932C90.5457 23.9997 91.4583 24.3058 92.2108 24.8503C92.9852 25.3755 93.6159 26.0468 94.1027 26.8645C94.5908 27.6615 94.9686 28.5654 95.2361 29.5763C95.5256 30.5678 95.7312 31.5747 95.853 32.5971C95.9762 33.5989 96.0394 34.5658 96.0427 35.4978C96.046 36.4299 96.0268 37.2259 95.9852 37.8859C95.9474 38.4841 95.8834 38.8424 95.7931 38.961C95.7247 39.0602 95.597 39.1143 95.4101 39.1232C95.4691 37.5324 95.4681 35.9068 95.4073 34.2463C95.3464 32.5858 95.0554 30.9626 94.5343 29.3766C94.9883 31.0412 95.2374 32.6721 95.2816 34.2694C95.3476 35.8474 95.3306 37.4305 95.2303 39.0186C95.1105 38.9489 94.999 38.9109 94.8958 38.9043C94.8133 38.8991 94.7392 38.9255 94.6734 38.9835C94.663 39.1485 94.6623 39.3245 94.6712 39.5114C94.6814 39.6777 94.6813 39.8434 94.6709 40.0084C94.6811 40.1747 94.6816 40.33 94.6725 40.4744C94.5188 40.941 94.3736 41.2735 94.2368 41.4719C94.1 41.6704 93.9801 41.7663 93.877 41.7598C93.7532 41.752 93.6533 41.6939 93.5773 41.5856C93.5026 41.4567 93.4293 41.3071 93.3572 41.1369C93.3057 40.9679 93.2446 40.7881 93.1738 40.5972C93.1249 40.3871 93.0445 40.1853 92.9324 39.9918C92.9958 39.6438 93.0443 39.3673 93.078 39.1623C93.1129 38.9368 93.135 38.7518 93.1441 38.6074C93.1792 38.0505 93.2112 37.3795 93.2401 36.5945C93.2689 35.8094 93.2584 34.9908 93.2087 34.1386C93.1809 33.2671 93.0905 32.402 92.9376 31.5434C92.8067 30.6654 92.5867 29.8853 92.2777 29.2032C91.9907 28.5017 91.6024 27.9284 91.1127 27.4834C90.6244 27.0177 90.0193 26.7621 89.2974 26.7165C88.8024 26.6852 88.3486 26.8223 87.9359 27.1275C87.5438 27.4341 87.1871 27.8361 86.8658 28.3335C86.5651 28.8322 86.2921 29.3845 86.0468 29.9902C85.8028 30.5754 85.6013 31.1425 85.4424 31.6915C85.6645 31.1257 85.8872 30.5496 86.1106 29.9632C86.3546 29.3781 86.6263 28.8465 86.9257 28.3684C87.2457 27.8916 87.6011 27.5102 87.9919 27.2243C88.384 26.9177 88.8275 26.78 89.3225 26.8113C89.9619 26.8516 90.4974 27.0614 90.9291 27.4407C91.3813 27.8213 91.7446 28.2998 92.0188 28.8762C92.3137 29.4539 92.5311 30.1096 92.6712 30.8432C92.8332 31.5575 92.9423 32.2892 92.9986 33.0382C93.0562 33.7666 93.0731 34.4821 93.0495 35.1847C93.0478 35.8679 93.0313 36.457 93.0001 36.952C92.9753 37.3439 92.9403 37.7352 92.8949 38.1258C92.8702 38.5176 92.8345 38.9192 92.7878 39.3304C92.6517 38.5349 92.5587 37.7111 92.5089 36.8589C92.4811 35.9874 92.4417 35.1359 92.3906 34.3044C92.3409 33.4522 92.2576 32.6394 92.1407 31.8658C92.0458 31.0729 91.8748 30.3374 91.6277 29.6591L91.8638 29.3634C91.6875 28.876 91.4731 28.5001 91.2206 28.2356C90.99 27.9519 90.7549 27.7403 90.5152 27.601C90.2755 27.4616 90.0531 27.3751 89.8482 27.3414C89.6432 27.3078 89.5098 27.289 89.4479 27.2851C88.9323 27.2526 88.4565 27.4089 88.0206 27.7541C87.6052 28.1006 87.2227 28.5838 86.873 29.2037C86.5452 29.8043 86.2418 30.5099 85.9628 31.3206C85.6839 32.1313 85.4332 32.9852 85.211 33.8823C84.9887 34.7794 84.7864 35.6882 84.604 36.6085C84.423 37.5082 84.2658 38.3577 84.1326 39.1569L84.411 39.1744C84.5584 38.4797 84.7103 37.7127 84.8668 36.8736C85.044 36.0357 85.2218 35.1876 85.4002 34.3291C85.6005 33.4513 85.8196 32.6058 86.0573 31.7925C86.295 30.9792 86.5584 30.2503 86.8476 29.6059C87.1574 28.9628 87.5006 28.4461 87.8773 28.0557C88.232 27.6846 88.6485 27.4831 89.1268 27.4512C88.6666 27.5257 88.2668 27.7904 87.9274 28.2452C87.5662 28.7194 87.239 29.3096 86.9459 30.0159C86.6529 30.7222 86.3759 31.502 86.1149 32.3552C85.8759 33.1892 85.6492 33.9928 85.4347 34.7662L84.5309 39.2441C84.4301 39.5277 84.352 39.7816 84.2964 40.0059L84.1317 40.6478C84.0774 40.8514 84.0218 41.0757 83.9649 41.3206C83.9094 41.5449 83.8409 41.8098 83.7595 42.1152L83.6432 42.4806L83.4576 42.4689L80.3992 41.2198C80.2974 41.1927 80.2168 41.1565 80.1576 41.1114C80.1189 41.0675 80.0706 41.0127 80.0126 40.9469ZM86.3977 25.4152C85.963 25.7398 85.6089 26.1006 85.3354 26.4975C85.0838 26.8751 84.8418 27.2636 84.6095 27.6631L84.6076 27.694C84.9341 27.1141 85.3747 26.531 85.9294 25.9448C86.4608 25.3985 87.1482 25.007 87.9914 24.7704C87.7181 24.8359 87.4551 24.9022 87.2024 24.969C86.9071 25.054 86.6389 25.2027 86.3977 25.4152ZM90.1747 24.6286C90.0729 24.6015 89.9292 24.582 89.7435 24.5703C90.3931 24.777 91.0002 25.0017 91.5647 25.2444C92.1305 25.4665 92.653 25.8825 93.1322 26.4926C92.8115 25.9961 92.3708 25.5955 91.8102 25.2909C91.2703 24.9877 90.7251 24.7669 90.1747 24.6286ZM90.7874 28.2083C90.6302 28.0741 90.4402 27.969 90.2172 27.8928C90.0161 27.7972 89.7648 27.6778 89.4632 27.5346L89.4362 27.4707C89.7855 27.5135 90.0897 27.6155 90.3487 27.7768C90.6091 27.9175 90.8526 28.1607 91.0792 28.5063L90.7874 28.2083ZM93.1901 26.5584C93.4568 26.9272 93.6995 27.3464 93.9184 27.8157C94.1373 28.2851 94.3284 28.701 94.4919 29.0634C94.3156 28.5759 94.147 28.1304 93.9861 27.7268C93.8252 27.3232 93.5599 26.9338 93.1901 26.5584ZM101.586 39.2955C101.909 39.4195 102.289 39.6298 102.726 39.9266C103.184 40.2247 103.692 40.5363 104.251 40.8615C104.811 41.1867 105.423 41.4843 106.09 41.7541C106.777 42.0252 107.512 42.1856 108.296 42.235L108.636 42.2565C108.76 42.2643 108.905 42.2528 109.073 42.222L109.398 42.491C110.218 42.2942 110.907 41.8718 111.466 41.2237C112.026 40.555 112.343 39.6328 112.417 38.4571C112.47 37.6115 112.3 37.0209 111.907 36.6855C111.536 36.3308 110.815 36.1195 109.742 36.0519C109.082 36.0102 108.388 36.0181 107.659 36.0757C106.953 36.114 106.208 36.1083 105.424 36.0589C105.073 36.0367 104.713 36.0036 104.343 35.9596C103.975 35.8949 103.598 35.7986 103.212 35.6708L103.2 35.8564C104.012 36.1147 104.821 36.2693 105.625 36.32C106.409 36.3695 107.154 36.3751 107.86 36.3369C108.589 36.2793 109.283 36.2714 109.943 36.313C110.5 36.3482 110.929 36.4374 111.231 36.5807C111.554 36.7046 111.793 36.8646 111.946 37.0607C112.099 37.2567 112.188 37.4901 112.212 37.7608C112.259 38.0123 112.272 38.2927 112.252 38.602C112.191 39.5714 111.881 40.3802 111.323 41.0283C110.787 41.6365 110.174 42.0016 109.483 42.1236C110.263 41.9036 110.891 41.4773 111.365 40.8446C111.863 40.172 112.14 39.4025 112.194 38.5363C112.234 37.9175 112.098 37.4327 111.789 37.0819C111.501 36.7323 110.965 36.5328 110.181 36.4833C109.541 36.443 108.817 36.4387 108.007 36.4704C107.198 36.5021 106.339 36.4894 105.432 36.4321C104.875 36.3969 104.23 36.2837 103.496 36.0925C102.783 35.9026 102.109 35.5908 101.474 35.1573C100.839 34.7237 100.316 34.1523 99.9049 33.443C99.4954 32.7131 99.3258 31.7913 99.3961 30.6775C99.4521 29.7906 99.6788 28.9869 100.076 28.2665C100.496 27.5268 101.022 26.8974 101.655 26.3783C102.29 25.8385 102.999 25.4277 103.783 25.1458C104.588 24.8653 105.403 24.7408 106.23 24.7722C107.013 24.8217 107.749 24.982 108.436 25.2531C109.145 25.5049 109.808 25.8263 110.425 26.2173C111.043 26.5877 111.629 26.9974 112.18 27.4463C112.731 27.8953 113.242 28.3416 113.711 28.7854L113.053 29.3651C112.908 29.356 112.697 29.2598 112.419 29.0766C112.142 28.8727 111.718 28.5354 111.147 28.0645L110.944 28.3312C111.649 28.9762 112.15 29.567 112.447 30.1034C112.765 30.6412 112.915 31.0545 112.897 31.3432C112.845 31.5056 112.737 31.5816 112.572 31.5712C112.407 31.5608 112.085 31.4059 111.607 31.1065C111.129 30.8071 110.581 30.4723 109.962 30.1019C109.364 29.7328 108.723 29.3921 108.039 29.0797C107.355 28.7673 106.724 28.5929 106.146 28.5565C105.816 28.5356 105.482 28.5767 105.144 28.6796C104.807 28.7825 104.496 28.939 104.214 29.1489C103.933 29.3383 103.69 29.5818 103.484 29.8794C103.3 30.1784 103.196 30.5135 103.173 30.8848C103.135 31.4829 103.388 31.9027 103.932 32.1441C104.476 32.3855 105.201 32.5348 106.109 32.5921C106.294 32.6038 106.49 32.6162 106.697 32.6292C106.925 32.6229 107.133 32.605 107.321 32.5755C107.796 32.6054 108.106 32.6146 108.251 32.6031C108.419 32.5723 108.575 32.5614 108.719 32.5705C109.606 32.6265 110.489 32.7443 111.368 32.9241C112.247 33.1038 113.025 33.4221 113.7 33.8788C114.375 34.3356 114.905 34.9592 115.29 35.7497C115.675 36.5402 115.827 37.5749 115.747 38.8536C115.691 39.7405 115.48 40.6177 115.115 41.4851C114.771 42.3331 114.278 43.0889 113.636 43.7524C112.995 44.3953 112.218 44.895 111.305 45.2516C110.39 45.6287 109.335 45.7795 108.139 45.704C107.417 45.6585 106.57 45.4601 105.598 45.1088C104.646 44.7795 103.738 44.4012 102.874 43.974C102.033 43.5274 101.316 43.0784 100.723 42.6268C100.151 42.1765 99.874 41.807 99.8922 41.5183C99.8974 41.4358 99.9529 41.3771 100.059 41.3424C101.258 42.35 102.489 43.1938 103.75 43.874C104.994 44.5116 106.284 44.9036 107.621 45.0501C106.964 44.9672 106.311 44.8121 105.662 44.5848C104.995 44.3356 104.33 44.0451 103.667 43.7134C103.027 43.3624 102.409 42.9817 101.814 42.5714C101.24 42.1417 100.687 41.7134 100.155 41.2864L100.645 40.9135C100.584 40.8889 100.475 40.8096 100.318 40.6754C100.161 40.5412 100.006 40.3761 99.8524 40.1801C99.7198 39.9853 99.5981 39.7809 99.4873 39.5669C99.3766 39.3528 99.3271 39.153 99.3388 38.9673C99.3518 38.7611 99.4015 38.6296 99.4879 38.5729C99.5743 38.5163 99.6691 38.4912 99.7722 38.4977C99.8754 38.5042 100.087 38.5901 100.408 38.7553C100.729 38.9205 101.122 39.1006 101.586 39.2955ZM108.224 42.8828C107.502 42.8372 106.707 42.6421 105.838 42.2973C104.991 41.9333 104.191 41.4893 103.437 40.9655C104.049 41.4389 104.736 41.8757 105.498 42.2758C106.261 42.6553 107.158 42.8776 108.189 42.9427C109.571 43.0299 110.691 42.6761 111.548 41.8812C112.427 41.0876 112.911 39.9793 113.001 38.5561L113.02 38.2467C112.959 37.5802 112.766 37.0296 112.441 36.595C112.139 36.141 111.638 35.8712 110.939 35.7857C111.367 35.8956 111.709 36.0518 111.966 36.2543C112.243 36.4582 112.445 36.6987 112.573 36.976C112.722 37.2339 112.818 37.5195 112.86 37.8328C112.902 38.1461 112.913 38.4677 112.892 38.7977C112.724 40.1538 112.223 41.199 111.39 41.9333C110.558 42.647 109.503 42.9635 108.224 42.8828ZM112.077 44.3374C112.613 44.0399 113.051 43.6637 113.391 43.2089C113.73 42.754 114.029 42.2759 114.289 41.7746C113.801 42.6135 113.155 43.3389 112.35 43.9508C111.566 44.5639 110.653 44.9205 109.611 45.0204C110.007 44.9833 110.414 44.9261 110.833 44.849C111.274 44.7526 111.689 44.5821 112.077 44.3374ZM115.383 38.7065C115.397 38.4796 115.37 38.2604 115.3 38.0489C115.249 37.88 115.208 37.7015 115.179 37.5132L115.184 37.9174C115.195 38.0837 115.191 38.3112 115.172 38.6C115.137 39.1569 115.041 39.6892 114.885 40.1971C114.729 40.7049 114.542 41.2004 114.325 41.6837C114.54 41.2417 114.745 40.7784 114.941 40.2938C115.159 39.7898 115.307 39.2607 115.383 38.7065ZM115.185 37.4204C115.183 37.441 115.181 37.472 115.179 37.5132C115.181 37.472 115.183 37.441 115.185 37.4204ZM109.45 42.1526C109.43 42.1513 109.409 42.15 109.388 42.1487C109.409 42.15 109.43 42.1513 109.45 42.1526ZM146.41 48.2127C146.245 48.2023 146.043 48.1171 145.805 47.9571C145.586 47.819 145.483 47.6469 145.496 47.4406C145.518 47.09 145.58 46.7626 145.682 46.4584C145.785 46.1336 145.868 45.8075 145.93 45.4801L145.8 45.5651L145.318 47.3051C145.092 46.9389 144.991 46.5804 145.013 46.2298C145.018 46.1473 145.044 46.0661 145.09 45.9862C144.687 46.1471 144.275 46.2764 143.854 46.3741C143.455 46.4731 143.038 46.509 142.605 46.4816C141.491 46.4113 140.449 46.2006 139.477 45.8493C138.526 45.4994 137.569 45.0766 136.606 44.581L136.477 44.169C135.513 43.694 134.63 43.0792 133.829 42.3245C133.048 41.5712 132.376 40.7315 131.813 39.8056C131.272 38.8603 130.859 37.861 130.574 36.8075C130.309 35.7554 130.21 34.6931 130.278 33.6206C130.336 32.6924 130.517 31.7927 130.821 30.9214C131.145 30.0515 131.589 29.2512 132.153 28.5206L131.973 28.416C131.43 29.1479 130.976 29.9373 130.612 30.784C130.269 31.6321 130.068 32.5202 130.009 33.4483C129.952 34.3558 130.018 35.2815 130.207 36.2253C130.397 37.1484 130.692 38.0471 131.093 38.9214C131.493 39.7957 131.98 40.6133 132.553 41.3743C133.129 42.094 133.772 42.7248 134.484 43.2667C133.79 42.7673 133.145 42.1675 132.547 41.4671C131.952 40.7255 131.443 39.9272 131.021 39.0722C130.621 38.1979 130.315 37.2986 130.104 36.3741C129.894 35.429 129.817 34.5234 129.872 33.6571C129.968 32.1308 130.397 30.7497 131.158 29.5139C131.942 28.2587 132.919 27.2022 134.092 26.3444C135.264 25.4865 136.568 24.844 138.003 24.4169C139.46 23.9705 140.91 23.7928 142.354 23.8839C143.282 23.9425 144.161 24.1223 144.991 24.4231C145.842 24.7253 146.691 25.0481 147.539 25.3916C147.432 25.4469 147.365 25.5255 147.338 25.6274C147.332 25.7305 147.315 25.833 147.288 25.9348C147.262 26.016 147.216 26.0856 147.15 26.1435C147.105 26.2028 147 26.2272 146.835 26.2168C146.567 26.1999 146.301 26.1417 146.038 26.0423C145.796 25.9442 145.565 25.8364 145.344 25.7189L145.226 26.1153C145.368 26.1657 145.548 26.2599 145.768 26.3979C146.007 26.5373 146.235 26.6967 146.452 26.876C146.69 27.036 146.886 27.214 147.039 27.4101C147.213 27.6074 147.295 27.7886 147.285 27.9536C147.269 28.2011 147.156 28.3493 146.946 28.3981C146.758 28.4277 146.571 28.4366 146.385 28.4249C145.766 28.3858 145.153 28.2539 144.546 28.0293C143.939 27.8046 143.326 27.6727 142.708 27.6337C141.594 27.5634 140.512 27.6504 139.461 27.8946C138.41 28.1389 137.474 28.5354 136.652 29.0841C135.832 29.6121 135.157 30.2943 134.628 31.1307C134.101 31.9464 133.802 32.9111 133.731 34.0249C133.66 35.1593 133.87 36.2494 134.363 37.2952C134.858 38.3204 135.514 39.2419 136.332 40.0597C137.172 40.8582 138.125 41.5086 139.191 42.0107C140.257 42.5128 141.326 42.7977 142.399 42.8654C142.481 42.8706 142.605 42.8785 142.77 42.8889C142.957 42.88 143.153 42.882 143.36 42.895C143.648 42.9133 143.904 42.9605 144.127 43.0367C144.372 43.0935 144.5 43.2051 144.51 43.3714C144.219 43.3945 143.916 43.4271 143.603 43.4695C143.291 43.4912 142.991 43.493 142.702 43.4747C141.856 43.4214 140.987 43.2526 140.094 42.9684C141.045 43.3184 142.005 43.5239 142.974 43.5851C143.201 43.5995 143.439 43.6041 143.688 43.5991C143.937 43.5941 144.176 43.5781 144.405 43.5512L144.691 43.942C144.88 43.9125 145.036 43.9016 145.159 43.9094C145.284 43.8966 145.505 43.8381 145.823 43.7338C145.864 43.0738 145.936 42.4364 146.037 41.8215C146.139 41.186 146.211 40.5383 146.252 39.8783L146.28 39.4451C146.303 39.0739 146.297 38.68 146.261 38.2636C146.247 37.8279 146.124 37.4784 145.892 37.2153L145.701 37.2964C145.877 37.7838 145.979 38.2976 146.007 38.8378C146.035 39.3779 146.033 39.9162 145.999 40.4524C145.943 41.3393 145.827 42.1914 145.651 43.0086C145.756 42.3319 145.83 41.6532 145.873 40.9725C145.882 40.8281 145.879 40.5484 145.864 40.1333C145.87 39.6988 145.856 39.2631 145.822 38.826C145.789 38.3684 145.731 37.961 145.65 37.6038C145.59 37.248 145.508 37.0668 145.405 37.0603C144.91 37.0291 144.407 36.9559 143.897 36.8409C143.407 36.7271 142.915 36.6546 142.42 36.6234L142.265 36.6136L141.428 36.5918C141.432 36.53 141.426 36.4571 141.411 36.3733C141.416 36.2908 141.421 36.2083 141.426 36.1258C141.437 35.9608 141.477 35.8081 141.548 35.6676C141.619 35.5271 141.768 35.464 141.995 35.4783L142.364 35.5327L142.388 35.1615C142.104 35.0607 141.814 34.9078 141.516 34.7026C141.239 34.4988 141.111 34.2215 141.134 33.8709C141.149 33.6234 141.296 33.4359 141.573 33.3084C141.85 33.181 142.166 33.0974 142.521 33.0576C142.897 32.9986 143.261 32.9698 143.613 32.9713C143.965 32.9728 144.234 32.9794 144.42 32.9911C146.297 33.1096 147.679 33.6835 148.566 34.7128C149.475 35.7433 149.869 37.1971 149.751 39.074C149.673 40.3116 149.492 41.5426 149.207 42.7671C148.924 43.971 148.744 45.1917 148.666 46.4293C148.649 46.6974 148.592 46.9423 148.495 47.164C148.419 47.387 148.216 47.488 147.886 47.4672L148.181 45.2494L147.768 47.3666C147.706 47.3627 147.644 47.3588 147.582 47.3549C147.519 47.3716 147.456 47.378 147.394 47.3741C147.353 47.3715 147.323 47.3592 147.304 47.3373C147.283 47.336 147.252 47.334 147.211 47.3314L147.182 47.7955C146.997 48.0945 146.74 48.2335 146.41 48.2127ZM145.172 45.6807C144.799 45.6779 144.425 45.6957 144.05 45.7342C143.696 45.7739 143.333 45.7821 142.961 45.7586C141.497 45.6662 140.058 45.3372 138.644 44.7717C137.231 44.1856 135.954 43.4216 134.813 42.4798C133.693 41.5187 132.749 40.3927 131.982 39.1018C131.44 38.1772 131.057 37.1901 130.833 36.1406C131.048 37.3345 131.465 38.4273 132.086 39.419C132.892 40.7538 133.908 41.8946 135.132 42.8416C136.356 43.7886 137.728 44.5275 139.247 45.0583C140.767 45.5891 142.31 45.9039 143.878 46.0028L144.064 46.0146C144.27 46.0276 144.467 46.0193 144.655 45.9898C144.843 45.9603 145.016 45.8572 145.172 45.6807ZM133.957 38.3257L133.953 38.3875C133.94 38.5938 134.058 38.8498 134.308 39.1554C134.558 39.4611 134.849 39.7694 135.182 40.0803C135.515 40.3706 135.839 40.6499 136.154 40.9182C136.49 41.1672 136.738 41.3382 136.898 41.4311C136.721 41.275 136.486 41.0738 136.191 40.8273C135.916 40.5822 135.633 40.3159 135.34 40.0282C135.048 39.7405 134.766 39.4535 134.494 39.1672C134.244 38.8615 134.065 38.581 133.957 38.3257ZM146.221 43.8211C146.292 43.3493 146.383 42.8995 146.493 42.4715C146.604 42.023 146.674 41.5615 146.704 41.0871C146.722 40.7984 146.73 40.5193 146.726 40.2498C146.722 39.9804 146.699 39.6993 146.655 39.4067C146.608 40.1492 146.551 40.8911 146.483 41.6323C146.416 42.3735 146.308 43.1018 146.159 43.8172L146.221 43.8211ZM149.081 40.3364C148.795 40.9395 148.643 41.5408 148.626 42.1402C148.611 42.6984 148.545 43.2534 148.427 43.8051C148.566 43.2547 148.684 42.6927 148.782 42.1191C148.903 41.5261 149.002 40.9319 149.081 40.3364ZM130.704 35.2316C130.747 35.5449 130.79 35.8479 130.833 36.1406C130.79 35.8479 130.747 35.5449 130.704 35.2316ZM130.695 34.8894C130.708 35.0144 130.711 35.1285 130.704 35.2316C130.69 35.1272 130.687 35.0131 130.695 34.8894ZM160.697 45.387C160.573 45.3792 160.445 45.4333 160.314 45.5492C159.87 45.6869 159.407 45.8027 158.925 45.8965C158.465 45.971 157.987 45.9926 157.492 45.9613C156.09 45.8728 155.063 45.4042 154.413 44.5556C153.763 43.6863 153.488 42.4782 153.585 40.9312C153.632 40.1887 153.71 39.4482 153.819 38.7095C153.926 37.9915 154.01 37.3238 154.069 36.7063C153.967 37.3418 153.854 37.9767 153.732 38.6109C153.586 39.285 153.489 39.9933 153.442 40.7358C153.419 41.1071 153.42 41.5835 153.445 42.1649C153.491 42.7476 153.641 43.3265 153.895 43.9016C154.15 44.4561 154.563 44.9585 155.135 45.4088C155.709 45.8384 156.521 46.0864 157.573 46.1528C158.068 46.1841 158.546 46.1624 159.006 46.088C159.488 45.9941 159.951 45.8784 160.395 45.7407C160.084 46.0731 159.674 46.3269 159.166 46.5019C158.679 46.6782 158.105 46.7455 157.445 46.7039C156.6 46.6505 155.786 46.4231 155.003 46.0217C154.242 45.6216 153.681 44.996 153.32 44.1449L153.527 43.8163C153.198 43.1329 153.029 42.532 153.02 42.0138C153.012 41.4749 153.004 40.9464 152.996 40.4281L153.863 35.0471C154.025 34.1254 154.156 33.2018 154.256 32.2763L154.167 32.2086C153.941 33.1675 153.748 34.0872 153.589 34.9676C153.431 35.8274 153.294 36.6782 153.179 37.5199L153.23 36.7155C153.414 35.7745 153.586 34.8535 153.746 33.9525C153.908 33.0309 154.101 32.1009 154.326 31.1625C154.551 30.2241 154.82 29.2471 155.132 28.2315C155.465 27.2171 155.886 26.1358 156.393 24.9875C157.02 24.2401 157.409 23.4881 157.56 22.7315C157.622 22.7354 157.684 22.7496 157.744 22.7742C157.805 22.7987 157.928 22.8168 158.113 22.8285C158.237 22.8363 158.338 22.8738 158.417 22.9409C158.518 22.9886 158.563 23.095 158.552 23.26C158.54 23.4457 158.461 23.7202 158.314 24.0836C158.355 24.0862 158.416 24.1108 158.496 24.1572C158.577 24.1831 158.638 24.1973 158.679 24.1999C158.999 23.7231 159.284 23.3165 159.533 22.9802C159.802 22.6452 160.051 22.4849 160.277 22.4992C160.422 22.5083 160.54 22.6089 160.631 22.8011C160.745 22.9739 160.789 23.2562 160.764 23.6481C160.676 24.388 160.508 25.0815 160.26 25.7285C160.033 26.3768 159.786 27.0032 159.52 27.6076C159.254 28.2121 158.988 28.8268 158.72 29.4519C158.474 30.0783 158.277 30.7389 158.129 31.4336C157.955 32.2302 157.779 33.0474 157.602 33.8853C157.426 34.7025 157.261 35.5204 157.105 36.3389C156.95 37.1574 156.797 37.945 156.646 38.7016C156.515 39.4595 156.408 40.1672 156.325 40.8246C156.288 41.4228 156.341 42.0474 156.487 42.6985C156.579 42.87 156.664 42.9996 156.742 43.0874C156.82 43.1544 156.963 43.1945 157.169 43.2075C157.416 43.2231 157.686 43.2091 157.979 43.1655C158.292 43.1231 158.563 43.1091 158.789 43.1234C158.934 43.1325 159.036 43.1597 159.095 43.2048C159.154 43.25 159.201 43.3254 159.236 43.4312C158.937 43.5779 158.62 43.6822 158.284 43.7438C157.949 43.8055 157.637 43.8272 157.348 43.809L156.915 43.7817C156.833 43.7765 156.761 43.7719 156.699 43.768C156.923 43.8236 157.21 43.8624 157.561 43.8846C158.097 43.9184 158.652 43.8291 159.224 43.6168C159.212 43.8024 159.265 43.961 159.381 44.0926C159.444 44.0759 159.593 44.0128 159.827 43.9033C160.062 43.7939 160.262 43.7444 160.427 43.7548C160.922 43.7861 161.156 44.0079 161.13 44.4204C161.126 44.4823 161.1 44.5738 161.051 44.695C161.002 44.8161 160.884 45.0468 160.697 45.387ZM152.76 40.7238C152.769 40.5794 152.78 40.3938 152.795 40.1669C152.83 39.9414 152.865 39.7158 152.9 39.4902L153.006 38.7825C153.043 38.5363 153.077 38.321 153.109 38.1367C153.069 38.4448 153.024 38.8354 152.973 39.3085C152.945 39.7622 152.923 40.1026 152.909 40.3294L152.831 41.567C152.82 41.732 152.809 41.9073 152.797 42.0929C152.806 42.2799 152.816 42.4565 152.826 42.6228C152.764 42.2876 152.733 41.9646 152.732 41.6539C152.732 41.3226 152.741 41.0126 152.76 40.7238ZM155.799 40.7914C155.829 40.3171 155.89 39.8549 155.98 39.4051C156.071 38.9552 156.151 38.4944 156.223 38.0226C156.09 38.4905 155.978 38.9494 155.887 39.3992C155.817 39.8504 155.747 40.3118 155.676 40.7836L155.648 41.2168C155.639 41.3611 155.64 41.5165 155.65 41.6828L155.664 41.4662C155.67 41.3631 155.688 41.2503 155.716 41.1279C155.744 41.0054 155.772 40.8933 155.799 40.7914ZM153.111 38.1058C153.114 38.0645 153.116 38.0336 153.117 38.013C153.139 37.9936 153.151 37.9737 153.152 37.953C153.147 38.0355 153.133 38.0865 153.111 38.1058ZM180.861 30.3834L180.733 30.9344C180.566 31.9386 180.436 33.0175 180.342 34.1713C180.25 35.3044 180.095 36.4439 179.878 37.5898C180.115 36.4658 180.319 35.3605 180.491 34.2738C180.666 33.1459 180.839 32.0387 181.011 30.952C181.094 31.2885 181.154 31.6444 181.192 32.0195C181.251 32.396 181.268 32.7905 181.242 33.203C181.074 34.2278 180.918 35.212 180.776 36.1555C180.634 37.0991 180.458 38.082 180.248 39.1041L179.84 39.1716C179.677 40.1138 179.396 41.1315 178.995 42.2244C178.595 43.3174 178.045 44.3181 177.346 45.2265C176.667 46.1362 175.813 46.8795 174.782 47.4564C173.753 48.0127 172.548 48.2472 171.166 48.16C170.712 48.1314 170.229 48.0698 169.718 47.9754C169.228 47.8617 168.75 47.7176 168.285 47.5433C167.821 47.3484 167.38 47.1135 166.963 46.8386C166.545 46.5638 166.193 46.231 165.907 45.8402L165.935 45.904L165.933 45.935L165.9 45.9639L165.809 45.9271C165.921 46.1206 166.044 46.294 166.18 46.4475C165.829 46.0941 165.513 45.691 165.231 45.2384C164.76 44.5046 164.4 43.6432 164.152 42.6543C164.002 42.065 163.895 41.4681 163.83 40.8634C163.764 40.2588 163.732 39.6251 163.732 38.9625C163.734 38.2793 163.749 37.5451 163.778 36.76C163.828 35.9763 163.882 35.11 163.942 34.1612C164.175 33.4304 164.366 32.697 164.516 31.961C164.666 31.225 164.785 30.487 164.873 29.7471C164.935 29.751 165.008 29.7452 165.092 29.7298C165.175 29.7144 165.259 29.7093 165.341 29.7145C165.486 29.7236 165.604 29.8139 165.697 29.9854C165.81 30.1582 165.85 30.5128 165.816 31.049L165.798 31.3275C165.793 31.41 165.777 31.5022 165.75 31.604L166.121 31.6274C166.341 30.7716 166.578 30.1239 166.834 29.6845C167.09 29.245 167.331 29.0325 167.558 29.0468C167.723 29.0572 167.852 29.3035 167.946 29.7857C168.062 30.2486 168.088 30.975 168.026 31.9651C167.98 32.687 167.913 33.4179 167.825 34.1578C167.737 34.8977 167.668 35.6595 167.619 36.4433C167.542 37.6602 167.524 38.767 167.565 39.7635C167.626 40.7613 167.799 41.6213 168.085 42.3434C168.371 43.0655 168.8 43.6414 169.374 44.071C169.969 44.4813 170.752 44.7171 171.721 44.7783C172.525 44.829 173.211 44.6238 173.779 44.1627C174.346 43.7015 174.842 43.0701 175.265 42.2685C175.688 41.4669 176.058 40.5377 176.373 39.4808C176.71 38.4045 177.029 37.2858 177.33 36.1244C177.392 35.797 177.444 35.4689 177.485 35.1402C177.527 34.8115 177.559 34.4719 177.581 34.1212L177.641 33.1621C177.679 32.564 177.742 32.0606 177.83 31.652C177.918 31.2434 178.108 31.0173 178.401 30.9736C178.334 32.0255 178.238 33.0652 178.111 34.0925C178.007 35.08 177.862 36.0648 177.676 37.047C177.881 36.0867 178.056 35.1245 178.2 34.1603C178.346 33.1548 178.473 32.1275 178.581 31.0781C178.699 31.1685 178.8 31.2162 178.882 31.2214C178.965 31.2266 179.05 31.1906 179.137 31.1133L179.208 29.9995C179.334 29.6348 179.454 29.3835 179.566 29.2456C179.679 29.0871 179.798 29.0117 179.922 29.0196C180.046 29.0274 180.165 29.0971 180.281 29.2286C180.397 29.3602 180.511 29.5227 180.623 29.7161L180.861 30.3834ZM166.976 47.119C167.454 47.4184 167.946 47.6669 168.451 47.8644C168.978 48.0426 169.467 48.177 169.917 48.2675C170.387 48.3594 170.767 48.4144 171.055 48.4326C172.499 48.5237 173.747 48.2815 174.798 47.7059C175.849 47.1303 176.724 46.3883 177.423 45.4798C178.144 44.5521 178.715 43.5527 179.134 42.4817C179.529 41.4712 179.837 40.5381 180.056 39.6822C179.857 40.5394 179.57 41.4841 179.194 42.5165C178.773 43.6082 178.202 44.6179 177.481 45.5456C176.78 46.4747 175.914 47.238 174.883 47.8355C173.851 48.433 172.634 48.6875 171.231 48.599C170.447 48.5495 169.681 48.3976 168.93 48.1432C168.18 47.8887 167.489 47.5241 166.856 47.0493C166.896 47.0726 166.936 47.0958 166.976 47.119ZM179.306 40.2561C179.39 39.9093 179.463 39.5723 179.525 39.2449C179.584 38.9587 179.644 38.6725 179.703 38.3864C179.522 39.2861 179.256 40.2322 178.903 41.2246C178.548 42.2583 178.083 43.2333 177.507 44.1495C176.933 45.0451 176.231 45.8291 175.402 46.5015C174.616 47.1353 173.721 47.5447 172.715 47.7297C173.593 47.5988 174.389 47.2867 175.104 46.7934C175.84 46.2807 176.479 45.6688 177.021 44.9575C177.563 44.2462 178.015 43.4775 178.378 42.6514C178.761 41.8266 179.071 41.0281 179.306 40.2561ZM176.106 42.2284C175.851 42.6679 175.566 43.0847 175.251 43.479C174.957 43.8746 174.624 44.2264 174.252 44.5342C174.643 44.2483 174.986 43.9075 175.28 43.5119C175.595 43.1176 175.87 42.6898 176.106 42.2284ZM166.856 47.0493C166.619 46.8687 166.394 46.6681 166.18 46.4475C166.394 46.6681 166.619 46.8687 166.856 47.0493ZM180.101 39.4676L180.056 39.6822L180.101 39.4676ZM179.744 38.2337C179.72 38.2942 179.706 38.3451 179.703 38.3864C179.706 38.3451 179.72 38.2942 179.744 38.2337ZM195.816 34.7131C195.631 34.7013 195.371 34.716 195.037 34.7571C194.724 34.7994 194.399 34.8514 194.064 34.9131C193.75 34.9761 193.456 35.0403 193.182 35.1059C192.93 35.1728 192.771 35.2249 192.706 35.2623C193.248 35.2136 193.749 35.152 194.209 35.0775C194.671 34.9824 195.17 34.9518 195.706 34.9856C195.591 35.1648 195.448 35.3007 195.276 35.3934C195.105 35.4861 194.914 35.5569 194.704 35.6058C194.516 35.6353 194.307 35.6635 194.077 35.6905C193.849 35.6968 193.609 35.723 193.358 35.7693L193.159 35.4772C192.758 35.5968 192.453 35.6708 192.244 35.699C192.036 35.7066 191.819 35.7033 191.592 35.6889C191.345 35.6733 191.087 35.657 190.819 35.6401C190.573 35.6039 190.295 35.576 189.986 35.5565C189.979 35.6596 189.964 35.7414 189.939 35.802C190.413 35.8319 190.816 35.8573 191.146 35.8782C191.477 35.8784 191.882 35.8625 192.36 35.8306C191.901 35.8844 191.495 35.9209 191.142 35.94C190.809 35.9605 190.406 35.9557 189.931 35.9258C189.819 36.3949 189.717 36.8545 189.627 37.3043C189.536 37.7542 189.477 38.1957 189.45 38.6288C189.434 38.8763 189.426 39.1657 189.426 39.497C189.426 39.8284 189.425 40.17 189.424 40.5219C189.444 40.8545 189.455 41.1762 189.456 41.4869C189.458 41.7769 189.455 41.9941 189.446 42.1385L189.329 43.9948C189.406 44.4139 189.685 44.7421 190.167 44.9796C190.649 45.2171 191.354 45.3652 192.283 45.4237L193.273 45.4862C193.623 45.5084 193.858 45.5646 193.976 45.6549C194.117 45.7259 194.183 45.8233 194.175 45.947C194.169 46.0501 194.082 46.1068 193.916 46.117C193.751 46.1066 193.586 46.0962 193.421 46.0858C192.823 46.048 192.197 45.9671 191.542 45.8429C190.928 45.7213 190.326 45.5901 189.734 45.4492C190.323 45.6314 190.944 45.8052 191.596 45.9706C192.27 46.1166 192.927 46.2099 193.566 46.2502L193.845 46.2678C193.927 46.273 194.02 46.2686 194.125 46.2544C194.118 46.3576 194.113 46.4504 194.107 46.5329C194.123 46.6167 194.148 46.7115 194.183 46.8172L194.434 46.7709C194.497 46.7542 194.57 46.7485 194.652 46.7537C194.736 46.7382 194.8 46.7112 194.844 46.6726C195.5 46.7761 195.816 47.0238 195.791 47.4157C195.777 47.6426 195.703 47.8243 195.57 47.9609C195.437 48.0974 195.276 48.2011 195.085 48.2719C194.894 48.3427 194.684 48.3915 194.454 48.4185C194.226 48.4248 194.009 48.4214 193.803 48.4084C193.081 48.3628 192.372 48.2767 191.676 48.1499C191.002 48.0038 190.338 47.8584 189.684 47.7136C190.249 47.9563 190.97 48.1675 191.85 48.3473C192.729 48.527 193.622 48.6455 194.529 48.7028C194.293 48.8328 194.018 48.9294 193.704 48.9923C193.389 49.0553 193.067 49.0764 192.737 49.0556L190.527 48.6365C190.241 48.577 190.016 48.5215 189.854 48.4698C189.712 48.4194 189.57 48.3691 189.429 48.3187C189.288 48.2477 189.127 48.1754 188.945 48.1018C188.784 48.0295 188.552 47.9424 188.247 47.8404L188.269 47.5C187.742 47.3218 187.324 47.047 187.016 46.6755C186.708 46.304 186.475 45.9062 186.315 45.482C186.155 45.0577 186.058 44.6374 186.022 44.221C185.987 43.7839 185.981 43.4004 186.001 43.0704C186.023 42.7198 186.044 42.4001 186.062 42.1113C186.102 41.8032 186.132 41.4945 186.151 41.1851C186.166 40.9582 186.174 40.6688 186.175 40.3169C186.197 39.9662 186.21 39.5943 186.214 39.2011C186.219 38.808 186.223 38.4045 186.229 37.9906C186.255 37.5781 186.28 37.1862 186.303 36.815C186.317 36.5881 186.331 36.3715 186.344 36.1653C186.378 35.9603 186.41 35.776 186.441 35.6123L186.132 35.5928C186.102 35.7358 186.081 35.9002 186.069 36.0858L186.034 36.6427C185.997 37.2409 185.969 37.8397 185.952 38.4391C185.936 39.0179 185.913 39.5548 185.881 40.0498C185.871 40.5462 185.864 40.9806 185.861 41.3532C185.86 41.7051 185.854 41.9636 185.843 42.1286L185.765 43.3661L185.75 43.6136C185.723 43.0528 185.711 42.2548 185.714 41.2197C185.728 40.0195 185.78 38.6975 185.871 37.2537L185.907 36.6968C185.921 36.4699 185.935 36.2533 185.948 36.0471C185.981 35.8421 186.022 35.6894 186.07 35.5889L185.022 35.4606C184.804 35.3019 184.584 35.1741 184.363 35.0773C184.141 34.9805 183.937 34.9262 183.752 34.9145L183.791 34.2957C183.798 34.172 183.815 34.0695 183.841 33.9883C183.889 33.8878 183.995 33.8427 184.16 33.8531C184.202 33.8557 184.303 33.8829 184.466 33.9345L184.489 33.5633C184.27 33.4252 184.095 33.2485 183.964 33.0331C183.833 32.7971 183.776 32.5657 183.79 32.3388C183.824 31.8025 184.222 31.5585 184.985 31.6066C185.274 31.6249 185.572 31.6644 185.879 31.7252C186.186 31.7859 186.503 31.837 186.832 31.8785C186.943 31.4299 187.041 31.0323 187.125 30.6856C187.21 30.3182 187.294 29.9715 187.377 29.6454C187.461 29.2987 187.554 28.9629 187.658 28.6381C187.762 28.2927 187.888 27.9382 188.035 27.5748C188.247 27.174 188.419 26.7396 188.553 26.2717C188.687 25.7832 188.79 25.3031 188.861 24.8313L189.509 24.9033C189.612 24.9098 189.692 24.9459 189.75 25.0117C189.829 25.0788 189.861 25.2258 189.847 25.4526C189.835 25.6383 189.788 25.8838 189.707 26.1893L190.072 26.3056C190.273 25.7591 190.497 25.3177 190.746 24.9814C191.016 24.6464 191.264 24.486 191.491 24.5003C191.842 24.5225 192.03 24.9796 192.057 25.8717L192.022 26.4286C191.988 26.9648 191.915 27.4676 191.802 27.9367C191.712 28.3866 191.6 28.8352 191.469 29.2824C191.337 29.7297 191.205 30.1872 191.071 30.6551C190.938 31.123 190.813 31.6328 190.695 32.1845C191.145 32.275 191.587 32.3339 192.02 32.3612C192.226 32.3743 192.432 32.3873 192.639 32.4003C192.846 32.3927 193.053 32.3954 193.259 32.4084C193.466 32.4214 193.687 32.3526 193.925 32.2019C194.162 32.0512 194.373 31.9817 194.559 31.9935C194.724 32.0039 194.845 32.0633 194.921 32.1716C194.997 32.2799 195.031 32.396 195.023 32.5197C194.645 32.5994 194.267 32.6894 193.888 32.7897C193.53 32.8707 193.184 32.9524 192.847 33.0347C193.18 33.0143 193.535 32.9642 193.913 32.8845C194.292 32.7842 194.691 32.6955 195.11 32.6184C195.103 32.7215 195.097 32.8143 195.092 32.8968C195.108 32.9806 195.133 33.0754 195.167 33.1811C195.209 33.1838 195.261 33.1767 195.324 33.16C195.45 33.1265 195.524 33.1105 195.545 33.1118C195.744 33.2279 195.87 33.3704 195.921 33.5393C195.974 33.6876 195.995 33.8546 195.983 34.0402C195.974 34.1846 195.945 34.3174 195.896 34.4385C195.848 34.539 195.821 34.6306 195.816 34.7131ZM186.897 45.6119C186.643 45.0368 186.523 44.4804 186.536 43.9428C186.55 43.4053 186.551 42.898 186.539 42.421L186.558 37.7008L186.43 38.2518C186.342 39.6337 186.304 40.8945 186.315 42.0341C186.348 43.1544 186.438 44.0298 186.584 44.6603C186.573 44.8459 186.555 44.969 186.53 45.0296C186.526 45.0915 186.523 45.143 186.52 45.1843C186.518 45.2255 186.535 45.2784 186.572 45.3429C186.63 45.4087 186.739 45.4983 186.897 45.6119ZM188.766 44.0525C188.735 43.8849 188.726 43.7083 188.737 43.5226L188.833 42.0067C188.799 42.2116 188.766 42.4166 188.732 42.6215C188.7 42.8059 188.677 43.0011 188.664 43.2074C188.63 43.7437 188.635 44.1581 188.679 44.4508C188.725 44.7022 188.836 44.9163 189.011 45.093C188.916 44.9627 188.852 44.8241 188.82 44.6771C188.81 44.5108 188.792 44.3026 188.766 44.0525ZM185.767 43.8322L185.75 43.6136L185.767 43.8322ZM189.071 45.1278C189.052 45.1059 189.032 45.0943 189.011 45.093C189.032 45.0943 189.052 45.1059 189.071 45.1278ZM209.15 51.6446C208.35 51.8633 207.742 51.9699 207.329 51.9645C206.913 51.9797 206.55 51.9879 206.24 51.989C205.085 51.916 204.057 51.6337 203.156 51.142C202.255 50.6503 201.498 50.0124 200.885 49.2282C200.272 48.444 199.811 47.5452 199.502 46.5317C199.215 45.4989 199.108 44.4153 199.179 43.2809C199.221 42.6209 199.326 41.9442 199.494 41.2507C199.663 40.5366 199.893 39.8471 200.183 39.182C200.475 38.4964 200.836 37.8668 201.266 37.2934C201.675 36.7187 202.152 36.2105 202.698 35.7686C202.134 36.1679 201.648 36.6549 201.239 37.2296C200.809 37.803 200.438 38.4319 200.126 39.1162C199.814 39.78 199.574 40.4792 199.403 41.2139C199.234 41.928 199.128 42.6253 199.085 43.306C199.03 44.1723 199.105 45.1089 199.311 46.1158C199.539 47.1035 199.935 48.0396 200.5 48.9243C201.067 49.7884 201.818 50.5295 202.752 51.1476C203.707 51.767 204.885 52.1209 206.288 52.2094C206.948 52.2511 207.645 52.2019 208.378 52.0618C207.562 52.528 206.669 52.7305 205.7 52.6693C204.916 52.6198 204.181 52.4492 203.496 52.1574C202.829 51.8876 202.211 51.5172 201.64 51.0463C201.089 50.5974 200.594 50.0692 200.156 49.4617C199.718 48.8542 199.355 48.2101 199.066 47.5292L199.361 47.2993C199.054 46.5759 198.841 45.8584 198.72 45.1467C198.62 44.4363 198.592 43.7202 198.638 42.9983C198.704 41.9463 198.913 40.9448 199.263 39.9936C199.633 39.0438 200.093 38.1513 200.643 37.3163L201.45 36.3422C201.588 36.1231 201.778 35.9073 202.019 35.6947C202.281 35.4834 202.562 35.2838 202.864 35.0958C203.167 34.8871 203.479 34.71 203.799 34.5646C204.14 34.3998 204.46 34.2543 204.758 34.1281C205.524 33.8037 206.287 33.5206 207.048 33.2787C207.81 33.0162 208.691 32.844 209.69 32.7621L209.572 32.6615C207.663 32.7273 206.025 33.0899 204.658 33.7491C203.292 34.3876 202.163 35.2069 201.272 36.2067C200.381 37.2065 199.71 38.3238 199.259 39.5585C198.81 40.7726 198.547 41.9778 198.472 43.1741C198.431 43.8135 198.442 44.4665 198.503 45.133C198.587 45.7802 198.722 46.4307 198.908 47.0844C198.471 45.8143 198.296 44.4883 198.383 43.1064C198.469 41.7451 198.781 40.4084 199.319 39.0964C199.858 37.7844 200.647 36.5918 201.688 35.5185C202.997 34.4622 204.403 33.6812 205.905 33.1755C207.409 32.6492 208.841 32.429 210.202 32.5149C210.635 32.5422 211.074 32.6424 211.519 32.8154C211.964 32.9884 212.362 33.2414 212.714 33.5742C213.067 33.8864 213.342 34.2868 213.539 34.7755C213.756 35.2655 213.843 35.8509 213.8 36.5315C213.765 37.0884 213.588 37.7606 213.269 38.5481C212.951 39.3355 212.499 40.0939 211.914 40.8232C211.352 41.5332 210.662 42.1316 209.844 42.6184C209.028 43.0846 208.104 43.2851 207.073 43.22L206.052 43.1556C205.299 42.9424 204.61 42.7125 203.983 42.4659C203.379 42.2 202.802 41.9875 202.253 41.8286C202.15 42.1534 202.078 42.4699 202.038 42.778C202.019 43.0667 202.001 43.3555 201.983 43.6442C201.945 44.2424 201.97 44.8341 202.057 45.4194C202.167 45.9855 202.351 46.5148 202.609 47.0074C202.868 47.5 203.204 47.925 203.616 48.2823C204.05 48.6203 204.585 48.8508 205.219 48.9736C205.605 49.0809 205.942 49.1539 206.23 49.1928C206.519 49.211 206.755 49.2363 206.94 49.2686C207.146 49.2816 207.288 49.3217 207.367 49.3888C207.467 49.4365 207.513 49.5326 207.504 49.677C207.294 49.7258 207.075 49.7534 206.846 49.7597C206.639 49.7673 206.422 49.764 206.195 49.7497C205.473 49.7041 204.83 49.5497 204.267 49.2863C203.705 49.0024 203.228 48.6927 202.835 48.3573C203.279 48.8616 203.825 49.2377 204.472 49.4856C205.12 49.7129 205.764 49.8467 206.404 49.8871C206.754 49.9092 207.117 49.9011 207.492 49.8626C207.443 49.9838 207.418 50.0547 207.417 50.0753C207.409 50.199 207.455 50.2848 207.556 50.3326C207.64 50.3171 207.787 50.2747 207.999 50.2052C208.211 50.1151 208.424 50.0353 208.635 49.9658C208.868 49.877 209.09 49.8082 209.3 49.7593C209.512 49.6898 209.659 49.6577 209.741 49.6629C209.844 49.6694 209.936 49.6959 210.016 49.7423C210.097 49.7682 210.131 49.8842 210.118 50.0905C210.105 50.2967 210.017 50.5397 209.855 50.8193C209.692 51.099 209.457 51.3741 209.15 51.6446ZM205.654 39.1235L206.327 39.2902C206.551 39.3458 206.756 39.3794 206.942 39.3911C207.148 39.4042 207.389 39.3573 207.665 39.2504C207.963 39.1243 208.254 38.9459 208.537 38.7153C208.842 38.486 209.109 38.1923 209.339 37.834C209.589 37.4771 209.781 37.0647 209.914 36.5968L209.987 36.4151C209.698 36.3969 209.261 36.4417 208.674 36.5496C208.088 36.6576 207.477 36.8158 206.843 37.0242C206.21 37.212 205.614 37.454 205.057 37.7502C204.502 38.0257 204.109 38.3426 203.879 38.7009C204.185 38.7823 204.48 38.863 204.765 38.9431C205.071 39.0039 205.368 39.064 205.654 39.1235ZM204.086 41.3231C204.13 41.2845 204.155 41.2239 204.16 41.1414C204.186 41.0602 204.2 40.999 204.203 40.9577L202.782 40.34L202.6 40.7634L204.086 41.3231ZM202.777 48.2915C202.643 48.1174 202.509 47.9432 202.375 47.7691C202.26 47.6169 202.166 47.466 202.093 47.3165C202.256 47.6788 202.484 48.0038 202.777 48.2915ZM216.093 49.5358C216.1 49.4326 216.139 49.3108 216.21 49.1704C216.281 49.0299 216.321 48.8771 216.332 48.7121C216.425 48.221 216.488 47.873 216.522 47.668C216.557 47.4425 216.58 47.2472 216.59 47.0822C216.645 46.2159 216.672 45.2858 216.673 44.2919C216.695 43.2786 216.705 42.3059 216.702 41.3739C216.72 41.0851 216.731 40.7441 216.735 40.351C216.76 39.9591 216.759 39.6484 216.732 39.4189C216.839 38.7009 216.936 37.9926 217.021 37.2939C217.107 36.5952 217.172 35.885 217.218 35.1631L217.267 34.3896C217.284 34.1215 217.29 33.8527 217.287 33.5832C217.345 33.649 217.405 33.6839 217.466 33.6878C217.549 33.693 217.633 33.6673 217.72 33.6106C217.827 33.5552 217.922 33.5301 218.004 33.5353C218.148 33.5445 218.252 33.7063 218.315 34.0209C218.399 34.3368 218.407 35.0207 218.341 36.0726L218.619 36.0902C218.795 34.9416 219.008 34.0336 219.257 33.3659C219.527 32.6996 219.775 32.3736 220.002 32.3879C220.105 32.3944 220.256 32.6317 220.454 33.0998C220.654 33.5473 220.724 34.2454 220.664 35.1942L221.039 34.6588C221.283 34.405 221.548 34.1421 221.835 33.8703C222.142 33.5998 222.478 33.3621 222.842 33.1574C223.207 32.9526 223.611 32.7917 224.053 32.6747C224.497 32.537 224.997 32.4858 225.554 32.5209C226.627 32.5886 227.539 32.8947 228.292 33.4392C229.066 33.9643 229.697 34.6357 230.183 35.4533C230.672 36.2503 231.049 37.1543 231.317 38.1651C231.606 39.1567 231.812 40.1636 231.934 41.186C232.057 42.1877 232.12 43.1546 232.123 44.0867C232.127 45.0187 232.108 45.8148 232.066 46.4748C232.028 47.0729 231.964 47.4313 231.874 47.5498C231.805 47.6491 231.678 47.7031 231.491 47.712C231.55 46.1213 231.549 44.4956 231.488 42.8352C231.427 41.1747 231.136 39.5515 230.615 37.9655C231.069 39.6301 231.318 41.261 231.362 42.8583C231.428 44.4363 231.411 46.0193 231.311 47.6075C231.191 47.5378 231.08 47.4997 230.977 47.4932C230.894 47.488 230.82 47.5144 230.754 47.5724C230.744 47.7374 230.743 47.9133 230.752 48.1003C230.762 48.2666 230.762 48.4322 230.752 48.5972C230.762 48.7635 230.762 48.9189 230.753 49.0633C230.6 49.5298 230.454 49.8624 230.318 50.0608C230.181 50.2592 230.061 50.3552 229.958 50.3487C229.834 50.3409 229.734 50.2828 229.658 50.1745C229.583 50.0455 229.51 49.8959 229.438 49.7257C229.386 49.5568 229.325 49.3769 229.255 49.1861C229.206 48.9759 229.125 48.7741 229.013 48.5807C229.077 48.2327 229.125 47.9562 229.159 47.7512C229.194 47.5256 229.216 47.3407 229.225 47.1963C229.26 46.6394 229.292 45.9684 229.321 45.1833C229.35 44.3982 229.339 43.5796 229.289 42.7275C229.262 41.856 229.171 40.9909 229.018 40.1322C228.887 39.2543 228.667 38.4742 228.359 37.792C228.071 37.0906 227.683 36.5173 227.194 36.0722C226.705 35.6065 226.1 35.3509 225.378 35.3054C224.883 35.2741 224.429 35.4111 224.017 35.7164C223.625 36.023 223.268 36.425 222.947 36.9224C222.646 37.4211 222.373 37.9733 222.128 38.5791C221.884 39.1642 221.682 39.7313 221.523 40.2804C221.745 39.7146 221.968 39.1385 222.191 38.5521C222.435 37.9669 222.707 37.4353 223.006 36.9572C223.326 36.4805 223.682 36.0991 224.073 35.8131C224.465 35.5066 224.908 35.3689 225.403 35.4001C226.043 35.4405 226.578 35.6503 227.01 36.0296C227.462 36.4102 227.825 36.8887 228.1 37.4651C228.394 38.0428 228.612 38.6985 228.752 39.4321C228.914 40.1464 229.023 40.878 229.079 41.6271C229.137 42.3555 229.154 43.0709 229.13 43.7735C229.129 44.4568 229.112 45.0459 229.081 45.5409C229.056 45.9328 229.021 46.324 228.976 46.7146C228.951 47.1065 228.915 47.5081 228.869 47.9193C228.732 47.1238 228.639 46.3 228.59 45.4478C228.562 44.5763 228.522 43.7248 228.471 42.8933C228.422 42.0411 228.338 41.2282 228.222 40.4547C228.127 39.6618 227.956 38.9262 227.709 38.248L227.945 37.9523C227.768 37.4649 227.554 37.0889 227.301 36.8245C227.071 36.5408 226.836 36.3292 226.596 36.1898C226.356 36.0504 226.134 35.9639 225.929 35.9303C225.724 35.8966 225.591 35.8779 225.529 35.874C225.013 35.8414 224.537 35.9978 224.101 36.343C223.686 36.6895 223.303 37.1727 222.954 37.7926C222.626 38.3931 222.323 39.0987 222.044 39.9095C221.765 40.7202 221.514 41.5741 221.292 42.4712C221.069 43.3683 220.867 44.277 220.685 45.1974C220.504 46.0971 220.347 46.9465 220.213 47.7457L220.492 47.7633C220.639 47.0685 220.791 46.3016 220.948 45.4624C221.125 44.6246 221.303 43.7765 221.481 42.918C221.681 42.0402 221.9 41.1946 222.138 40.3813C222.376 39.568 222.639 38.8392 222.928 38.1948C223.238 37.5517 223.581 37.0349 223.958 36.6446C224.313 36.2735 224.729 36.072 225.208 36.0401C224.747 36.1146 224.348 36.3792 224.008 36.8341C223.647 37.3083 223.32 37.8985 223.027 38.6048C222.734 39.3111 222.457 40.0908 222.196 40.9441C221.957 41.778 221.73 42.5817 221.516 43.355L220.612 47.833C220.511 48.1165 220.433 48.3705 220.377 48.5947L220.212 49.2366C220.158 49.4403 220.103 49.6646 220.046 49.9095C219.99 50.1337 219.922 50.3986 219.84 50.7041L219.724 51.0695L219.538 51.0578L216.48 49.8087C216.378 49.7815 216.298 49.7454 216.238 49.7002C216.2 49.6564 216.151 49.6015 216.093 49.5358ZM222.478 34.0041C222.044 34.3287 221.69 34.6895 221.416 35.0864C221.165 35.4639 220.923 35.8524 220.69 36.2519L220.688 36.2829C221.015 35.703 221.455 35.1199 222.01 34.5337C222.542 33.9874 223.229 33.5959 224.072 33.3592C223.799 33.4248 223.536 33.491 223.283 33.5579C222.988 33.6428 222.72 33.7916 222.478 34.0041ZM226.255 33.2175C226.154 33.1903 226.01 33.1709 225.824 33.1592C226.474 33.3659 227.081 33.5905 227.645 33.8333C228.211 34.0553 228.734 34.4714 229.213 35.0815C228.892 34.5849 228.452 34.1844 227.891 33.8798C227.351 33.5765 226.806 33.3558 226.255 33.2175ZM226.868 36.7972C226.711 36.663 226.521 36.5578 226.298 36.4816C226.097 36.3861 225.846 36.2667 225.544 36.1234L225.517 36.0596C225.866 36.1024 226.171 36.2044 226.43 36.3657C226.69 36.5064 226.933 36.7495 227.16 37.0952L226.868 36.7972ZM229.271 35.1472C229.538 35.5161 229.78 35.9352 229.999 36.4046C230.218 36.874 230.409 37.2899 230.573 37.6522C230.396 37.1648 230.228 36.7193 230.067 36.3157C229.906 35.9121 229.641 35.5226 229.271 35.1472Z" fill="white"/>
</g>
<defs>
<filter id="filter0_di_2_24" x="9" y="0" width="251.102" height="79.3601" filterUnits="userSpaceOnUse" color-interpolation-filters="sRGB">
<feFlood flood-opacity="0" result="BackgroundImageFix"/>
<feColorMatrix in="SourceAlpha" type="matrix" values="0 0 0 0 0 0 0 0 0 0 0 0 0 0 0 0 0 0 127 0" result="hardAlpha"/>
<feOffset dy="4"/>
<feGaussianBlur stdDeviation="2"/>
<feComposite in2="hardAlpha" operator="out"/>
<feColorMatrix type="matrix" values="0 0 0 0 0 0 0 0 0 0 0 0 0 0 0 0 0 0 0.25 0"/>
<feBlend mode="normal" in2="BackgroundImageFix" result="effect1_dropShadow_2_24"/>
<feBlend mode="normal" in="SourceGraphic" in2="effect1_dropShadow_2_24" result="shape"/>
<feColorMatrix in="SourceAlpha" type="matrix" values="0 0 0 0 0 0 0 0 0 0 0 0 0 0 0 0 0 0 127 0" result="hardAlpha"/>
<feOffset dy="4"/>
<feGaussianBlur stdDeviation="2"/>
<feComposite in2="hardAlpha" operator="arithmetic" k2="-1" k3="1"/>
<feColorMatrix type="matrix" values="0 0 0 0 0 0 0 0 0 0 0 0 0 0 0 0 0 0 0.25 0"/>
<feBlend mode="normal" in2="shape" result="effect2_innerShadow_2_24"/>
</filter>
<filter id="filter1_d_2_24" x="31.2339" y="14.7153" width="206.054" height="47.5869" filterUnits="userSpaceOnUse" color-interpolation-filters="sRGB">
<feFlood flood-opacity="0" result="BackgroundImageFix"/>
<feColorMatrix in="SourceAlpha" type="matrix" values="0 0 0 0 0 0 0 0 0 0 0 0 0 0 0 0 0 0 127 0" result="hardAlpha"/>
<feOffset dy="4"/>
<feGaussianBlur stdDeviation="2"/>
<feComposite in2="hardAlpha" operator="out"/>
<feColorMatrix type="matrix" values="0 0 0 0 0 0 0 0 0 0 0 0 0 0 0 0 0 0 0.25 0"/>
<feBlend mode="normal" in2="BackgroundImageFix" result="effect1_dropShadow_2_24"/>
<feBlend mode="normal" in="SourceGraphic" in2="effect1_dropShadow_2_24" result="shape"/>
</filter>
</defs>
</svg>
