<svg width="80" height="40" viewBox="0 0 80 40" fill="none" xmlns="http://www.w3.org/2000/svg">
<g id="Vegan" clip-path="url(#clip0_5_2)">
<g id="Ellipse 2" filter="url(#filter0_d_5_2)">
<path d="M66.8029 8.34101C68.6702 13.6632 68.3794 23.2145 63.0092 27.959C57.6389 32.7036 48.5805 36.0051 35.6958 35.5549C15.6083 34.853 11.211 28.2921 10.6694 14.766C10.3158 5.9365 22.2968 -4.3622 40.2324 4.8398C46.6483 8.13155 63.6927 -0.523358 66.8029 8.34101Z" fill="#3D7000"/>
</g>
<path id="Ellipse 3" d="M64.4328 9.61881C66.3001 14.941 67.6485 21.2253 62.2782 25.9699C56.9079 30.7145 50.78 33.2371 37.8952 32.7869C30.8844 32.5419 25.8689 31.8801 22.5377 30.5185C16.3242 27.979 14.0594 23.7269 13.7068 14.9216C13.3532 6.0921 20.0405 -2.09088 37.976 7.11111C44.392 10.4029 61.3227 0.754442 64.4328 9.61881Z" fill="#BDD14C"/>
<path id="V&#195;&#169;gan" d="M29.7836 16.3265C30.0578 16.2951 30.2614 16.3322 30.3943 16.4378C30.539 16.542 30.6224 16.6895 30.6442 16.8802C30.6797 17.1902 30.6157 17.4753 30.4522 17.7356C30.3007 17.9945 30.0289 18.1525 29.6368 18.2094C28.6858 18.3424 27.8311 18.3678 27.0728 18.2855C26.4297 20.1588 25.5736 21.7545 24.5045 23.0726C23.446 24.3774 22.3147 25.0987 21.1106 25.2366C19.8707 25.3785 18.8642 24.7629 18.091 23.39C17.3179 22.017 16.7907 20.1025 16.5096 17.6465C16.2695 15.5482 16.2029 13.6475 16.3099 11.9443C16.3462 11.312 16.4475 10.8777 16.6137 10.6413C16.7904 10.3915 17.1173 10.2394 17.5942 10.1848C18.381 10.0947 18.8133 10.3895 18.8911 11.069C18.8993 11.1406 18.9024 11.2731 18.9004 11.4666C18.7883 13.6535 18.8319 15.6173 19.0312 17.3579C19.24 19.182 19.548 20.5539 19.9552 21.4735C20.373 22.3799 20.8859 22.7983 21.4939 22.7287C22.1138 22.6577 22.7383 22.1514 23.3673 21.2098C23.9963 20.2682 24.5405 19.1128 24.9998 17.7437C24.2207 17.3739 23.6054 16.8525 23.1539 16.1795C22.7011 15.4945 22.4208 14.6811 22.313 13.7393C22.2052 12.7974 22.2575 11.9882 22.4699 11.3117C22.6929 10.6218 23.0364 10.0873 23.5003 9.70809C23.9761 9.32751 24.5239 9.10174 25.1439 9.03078C25.9069 8.94345 26.5404 9.14875 27.0443 9.64668C27.5601 10.1432 27.8726 10.8684 27.9817 11.8222C28.1387 13.1932 28.0119 14.7236 27.6013 16.4132C28.2455 16.4482 28.9729 16.4193 29.7836 16.3265ZM24.1048 13.4073C24.2386 14.5757 24.7131 15.3971 25.5283 15.8714C25.8404 14.4829 25.9467 13.3535 25.8471 12.4832C25.7897 11.9825 25.6826 11.6264 25.5255 11.4149C25.367 11.1914 25.1746 11.0927 24.948 11.1186C24.6261 11.1554 24.3857 11.3762 24.2267 11.7809C24.0663 12.1737 24.0257 12.7158 24.1048 13.4073ZM37.7706 19.1989C37.9256 19.1811 38.053 19.239 38.1528 19.3725C38.2646 19.5047 38.3348 19.6959 38.3634 19.9463C38.418 20.4232 38.3471 20.8058 38.1506 21.094C37.7709 21.681 37.2016 22.2474 36.4427 22.7932C35.6958 23.3377 34.8633 23.6624 33.9453 23.7675C32.6935 23.9108 31.6829 23.6822 30.9137 23.0818C30.1444 22.4814 29.6922 21.591 29.5571 20.4107C29.463 19.5881 29.5485 18.8053 29.8137 18.0623C30.0776 17.3074 30.4897 16.6865 31.0499 16.1997C31.6221 15.7114 32.2957 15.423 33.0706 15.3343C33.7621 15.2551 34.3404 15.4003 34.8054 15.7698C35.2691 16.1274 35.5412 16.6579 35.6217 17.3613C35.7159 18.184 35.499 18.9274 34.9711 19.5918C34.4538 20.2428 33.5115 20.8217 32.1443 21.3285C32.5051 21.8428 33.1028 22.0522 33.9373 21.9567C34.4738 21.8953 35.0607 21.6409 35.698 21.1935C36.3458 20.7329 36.8853 20.1699 37.3164 19.5045C37.4404 19.3212 37.5918 19.2194 37.7706 19.1989ZM32.9672 17.1216C32.5261 17.1721 32.1799 17.4714 31.9286 18.0196C31.6892 18.5663 31.6111 19.2033 31.6944 19.9306L31.6985 19.9664C32.3828 19.7189 32.9085 19.4051 33.2757 19.0249C33.6428 18.6447 33.8011 18.234 33.7506 17.7929C33.7247 17.5664 33.6387 17.395 33.4925 17.2789C33.3569 17.1495 33.1818 17.0971 32.9672 17.1216ZM33.0965 14.1356C32.9296 14.1547 32.7737 14.1121 32.6289 14.0079C32.4947 13.8904 32.4174 13.7422 32.3969 13.5634C32.3873 13.4799 32.4042 13.3633 32.4474 13.2134L33.6848 9.30331C33.7648 9.05259 33.8821 8.86402 34.0368 8.73762C34.2019 8.59793 34.3918 8.5158 34.6064 8.49124C34.9045 8.45712 35.1791 8.5344 35.4301 8.72307C35.6932 8.91038 35.8431 9.16498 35.8799 9.48688C35.9181 9.8207 35.8252 10.1695 35.6011 10.5334L33.634 13.766C33.5022 13.9865 33.323 14.1096 33.0965 14.1356ZM46.4247 18.2446C46.5797 18.2268 46.7078 18.2907 46.809 18.4361C46.9208 18.5683 46.9896 18.7476 47.0155 18.9741C47.0469 19.2483 47.0297 19.4677 46.964 19.6323C46.8983 19.7968 46.7829 19.9489 46.6177 20.0886C45.6715 20.8974 44.9791 21.4961 44.5404 21.8845L43.4839 22.7844C43.3133 25.3042 42.939 27.3098 42.3608 28.8012C41.796 30.3032 40.9472 31.119 39.8146 31.2486C39.2066 31.3182 38.69 31.1841 38.2648 30.8462C37.841 30.5203 37.5943 30.0533 37.5247 29.4453C37.4278 28.5988 37.6572 27.6486 38.213 26.5945C38.7701 25.5524 39.8855 24.2169 41.5591 22.5881L41.5866 21.8783C41.4207 22.2234 41.1811 22.5045 40.8678 22.7215C40.565 22.9253 40.2526 23.0456 39.9307 23.0824C39.1916 23.167 38.5707 22.9663 38.0682 22.4803C37.5657 21.9943 37.2646 21.3162 37.165 20.4458C37.0558 19.4921 37.1733 18.5667 37.5176 17.6697C37.8605 16.7608 38.3662 16.0085 39.0347 15.4126C39.7139 14.8034 40.4648 14.4517 41.2874 14.3576C41.5497 14.3275 41.7287 14.3614 41.8244 14.4592C41.9307 14.5436 42.0287 14.7136 42.1183 14.969C42.3394 14.8954 42.5989 14.8416 42.897 14.8074C43.195 14.7733 43.4091 14.7971 43.5393 14.8789C43.68 14.9473 43.7653 15.1127 43.7954 15.375C43.8117 15.518 43.8187 15.632 43.8164 15.7168C43.811 16.0918 43.7691 17.0448 43.6906 18.5756C43.6757 18.8672 43.6582 19.1893 43.6382 19.5419C43.6287 19.8811 43.616 20.245 43.6 20.6333C44.4362 19.8129 45.2461 19.08 46.0298 18.4347C46.1739 18.3216 46.3055 18.2582 46.4247 18.2446ZM40.3678 21.2025C40.642 21.1711 40.8852 20.9742 41.0974 20.6117C41.3095 20.2493 41.4338 19.7519 41.4701 19.1197L41.6923 15.9961C41.2049 16.064 40.7737 16.3066 40.3987 16.724C40.0224 17.1294 39.7431 17.6445 39.561 18.2693C39.3789 18.894 39.326 19.5402 39.4024 20.2079C39.4447 20.5774 39.5477 20.8435 39.7112 21.0059C39.8866 21.167 40.1055 21.2326 40.3678 21.2025ZM39.8128 29.4914C40.1108 29.4573 40.4037 29.0614 40.6914 28.3038C40.9911 27.5448 41.2244 26.3646 41.3914 24.7632C40.5634 25.6552 39.9829 26.4403 39.6499 27.1185C39.3169 27.7968 39.1776 28.3744 39.2322 28.8513C39.2554 29.054 39.3103 29.2168 39.3968 29.3397C39.4953 29.4613 39.634 29.5119 39.8128 29.4914ZM48.85 22.0615C48.1108 22.1461 47.49 21.9454 46.9875 21.4594C46.4849 20.9734 46.1839 20.2953 46.0842 19.425C45.9751 18.4712 46.0926 17.5458 46.4368 16.6488C46.7797 15.74 47.2854 14.9876 47.954 14.3917C48.6331 13.7825 49.384 13.4308 50.2067 13.3367C50.4689 13.3067 50.648 13.3405 50.7437 13.4383C50.85 13.5227 50.9479 13.6927 51.0376 13.9481C51.2825 13.8718 51.542 13.8179 51.8163 13.7866C52.4004 13.7197 52.7164 13.8949 52.7642 14.3122C52.7928 14.5625 52.7716 15.1689 52.7006 16.1312C52.5833 17.5336 52.5554 18.5031 52.6168 19.0396C52.6373 19.2184 52.6954 19.3567 52.7911 19.4545C52.8988 19.5508 53.0241 19.5908 53.1672 19.5745C53.3937 19.5485 53.6516 19.3741 53.9407 19.0511C54.2285 18.7162 54.6091 18.1895 55.0824 17.471C55.2064 17.2878 55.3578 17.1859 55.5366 17.1654C55.6916 17.1477 55.819 17.2056 55.9188 17.3391C56.0306 17.4712 56.1008 17.6625 56.1295 17.9128C56.184 18.3897 56.1131 18.7723 55.9166 19.0605C55.4974 19.7245 55.0374 20.2965 54.5368 20.7765C54.0361 21.2566 53.5295 21.5259 53.0168 21.5846C52.6234 21.6296 52.2447 21.5401 51.8809 21.316C51.5276 21.0787 51.2409 20.7371 51.0208 20.2912C50.5155 21.3636 49.7919 21.9537 48.85 22.0615ZM49.2871 20.1816C49.5494 20.1516 49.782 19.968 49.985 19.6307C50.1879 19.2934 50.3137 18.8623 50.3623 18.3374L50.6474 14.9712C50.148 15.0404 49.7049 15.2844 49.318 15.7031C48.9417 16.1085 48.6624 16.6236 48.4803 17.2484C48.2981 17.8731 48.2453 18.5193 48.3217 19.187C48.364 19.5566 48.4669 19.8226 48.6305 19.985C48.8059 20.1461 49.0248 20.2117 49.2871 20.1816ZM56.8568 21.1451C56.4038 21.1969 56.0546 20.9953 55.8092 20.5403C55.5758 20.0839 55.3991 19.3311 55.279 18.2819C55.1016 16.7321 55.1536 15.2344 55.4351 13.789C55.5028 13.431 55.647 13.1609 55.8677 12.9786C56.099 12.783 56.4352 12.66 56.8763 12.6095C57.1148 12.5822 57.2851 12.5929 57.3873 12.6416C57.4895 12.6903 57.5501 12.7981 57.5692 12.965C57.5911 13.1558 57.5508 13.5952 57.4484 14.2833C57.3837 14.7738 57.3361 15.202 57.3055 15.5679C57.2749 15.9337 57.2658 16.3817 57.2781 16.9117C57.5542 15.8414 57.8998 14.9563 58.3149 14.2566C58.7301 13.5569 59.1544 13.0433 59.588 12.7158C60.0335 12.387 60.453 12.2001 60.8464 12.1551C61.2279 12.1114 61.5256 12.18 61.7396 12.3609C61.9641 12.5284 62.0982 12.803 62.1418 13.1845C62.1773 13.4944 62.1786 14.0861 62.1457 14.9595C62.1097 15.7004 62.0935 16.4028 62.097 17.0667C62.0992 17.7187 62.146 18.4441 62.2374 19.2429C62.2893 19.6959 62.2314 20.0347 62.0639 20.2592C61.9069 20.4704 61.6197 20.5999 61.2024 20.6477C60.809 20.6927 60.5113 20.6241 60.3093 20.4419C60.1072 20.2597 59.983 19.9659 59.9366 19.5606C59.882 19.0837 59.8754 18.2873 59.9168 17.1713C59.9507 16.2012 59.9526 15.585 59.9226 15.3227C59.9008 15.1319 59.8243 15.0441 59.6931 15.0591C59.5381 15.0768 59.3408 15.3047 59.1011 15.7428C58.8719 16.1677 58.6458 16.725 58.4228 17.4148C58.2117 18.1033 58.0584 18.8214 57.9628 19.5691C57.8958 20.1445 57.7844 20.5437 57.6288 20.7669C57.4837 20.9767 57.2264 21.1028 56.8568 21.1451Z" fill="#3D7000"/>
</g>
<defs>
<filter id="filter0_d_5_2" x="6.66175" y="1.23605" width="65.1835" height="42.3599" filterUnits="userSpaceOnUse" color-interpolation-filters="sRGB">
<feFlood flood-opacity="0" result="BackgroundImageFix"/>
<feColorMatrix in="SourceAlpha" type="matrix" values="0 0 0 0 0 0 0 0 0 0 0 0 0 0 0 0 0 0 127 0" result="hardAlpha"/>
<feOffset dy="4"/>
<feGaussianBlur stdDeviation="2"/>
<feComposite in2="hardAlpha" operator="out"/>
<feColorMatrix type="matrix" values="0 0 0 0 0 0 0 0 0 0 0 0 0 0 0 0 0 0 0.25 0"/>
<feBlend mode="normal" in2="BackgroundImageFix" result="effect1_dropShadow_5_2"/>
<feBlend mode="normal" in="SourceGraphic" in2="effect1_dropShadow_5_2" result="shape"/>
</filter>
<clipPath id="clip0_5_2">
<rect width="80" height="40" fill="white"/>
</clipPath>
</defs>
</svg>
