<svg width="189" height="72" viewBox="0 0 189 72" fill="none" xmlns="http://www.w3.org/2000/svg">
<g filter="url(#filter0_di_2_34)">
<path d="M167.711 23.6529C164.211 69.1529 105.211 64.4087 85.7112 61.6529C38.7113 55.0107 31.6367 49.1529 23.2112 32.6529C11.2112 9.15286 36.716 1.65287 94.7112 1.65287C108.211 1.65287 170.195 -8.64001 167.711 23.6529Z" fill="#95D274"/>
<path d="M165.717 23.4995C164.879 34.3985 160.744 42.1587 154.799 47.7116C148.811 53.3051 140.86 56.772 132.252 58.8022C115.003 62.8706 95.6823 61.0421 85.9911 59.6725C62.4727 56.3488 49.2602 53.2541 40.8917 49.0614C32.7408 44.9777 29.1164 39.8194 24.9924 31.7433C22.1211 26.1203 21.7165 21.888 23.0209 18.6405C24.3353 15.3679 27.6144 12.5157 33.4508 10.1993C45.1736 5.54664 65.6807 3.65287 94.7112 3.65287C96.805 3.65287 100.066 3.41074 103.987 3.11958C106.521 2.93136 109.332 2.72264 112.282 2.54559C119.921 2.08709 128.742 1.81656 137.032 2.53556C145.371 3.25878 152.921 4.96538 158.185 8.28366C160.787 9.92421 162.784 11.9297 164.073 14.3699C165.358 16.8026 166.003 19.7884 165.717 23.4995Z" stroke="white" stroke-width="4" stroke-linejoin="bevel"/>
</g>
<g filter="url(#filter1_d_2_34)">
<path d="M63.2538 32.3331C63.2528 32.4364 63.1252 32.8176 62.871 33.4765C62.6168 34.1355 62.3098 34.9076 61.9501 35.7929C61.6113 36.6578 61.2515 37.5534 60.8707 38.4799C60.4903 39.365 60.1629 40.1162 59.8884 40.7337L60.7797 38.262C60.0611 39.9499 59.2392 41.6266 58.3142 43.2919L58.3133 43.3849C57.8793 43.3808 57.4557 43.3665 57.0426 43.3419C56.65 43.3382 56.237 43.3033 55.8036 43.2372C55.6827 42.9054 55.5311 42.5423 55.3488 42.1479C55.1874 41.733 55.0156 41.318 54.8335 40.903C54.6721 40.4881 54.5003 40.0835 54.318 39.6891C54.1564 39.2948 54.0048 38.9317 53.8632 38.5997L53.7375 38.7845C53.3119 37.8918 52.8451 36.9884 52.337 36.0742C51.8496 35.1602 51.3722 34.2877 50.9047 33.4566C50.4374 32.6048 50.0106 31.836 49.6244 31.1504C49.2384 30.444 48.9544 29.873 48.7725 29.4373C48.2867 28.3579 47.8735 27.2483 47.5329 26.1084C47.1923 24.9685 46.8414 23.8284 46.4801 22.6883C46.6256 22.607 46.7502 22.5359 46.8541 22.4748C46.9787 22.414 47.0927 22.3841 47.196 22.3851C47.32 22.3862 47.4328 22.4803 47.5344 22.6673C47.6566 22.8544 47.7683 23.0622 47.8695 23.2905C47.9707 23.5188 48.0512 23.7469 48.111 23.9748C48.1916 24.2029 48.2419 24.348 48.2619 24.4102L48.5427 24.2268C48.4431 23.8332 48.3641 23.4398 48.3058 23.0466C48.2475 22.6533 48.2203 22.2501 48.2242 21.8367L48.2266 21.5887C48.2279 21.4441 48.2395 21.3099 48.2614 21.1861C48.3041 21.0418 48.3569 20.9183 48.4199 20.8155C48.4829 20.7128 48.566 20.6619 48.6693 20.6629C48.814 20.6643 49.0694 20.9767 49.4355 21.6002C49.8017 22.2236 50.2076 23.0128 50.6532 23.9678C51.1196 24.9229 51.6056 25.9815 52.1113 27.1437C52.6379 28.2854 53.1338 29.3958 53.5989 30.4749C54.085 31.5335 54.5101 32.4779 54.8742 33.308C55.2384 34.1382 55.5017 34.709 55.6641 35.0206C55.9074 35.5189 56.1403 36.0274 56.3627 36.5462C56.6061 37.0445 56.87 37.543 57.1547 38.0418C58.0829 36.0458 58.8464 33.9862 59.4451 31.8631L61.2413 25.4938C61.3052 25.2877 61.4023 24.8546 61.5326 24.1945C61.6628 23.5343 61.8139 22.8537 61.9859 22.1527C62.158 21.4309 62.3397 20.7919 62.531 20.2357C62.7222 19.6795 62.9109 19.4023 63.0969 19.404L63.1896 19.4359C62.8455 20.8587 62.5221 22.2714 62.2195 23.6739C61.9171 25.0558 61.5836 26.4477 61.2191 27.8497C61.6246 26.4894 61.9889 25.1185 62.3119 23.7368C62.635 22.3551 62.9993 20.9842 63.4048 19.6239L63.682 19.8126C63.7247 19.6683 63.7886 19.4726 63.8736 19.2253C63.9794 18.9577 64.0955 18.7004 64.2219 18.4536C64.3484 18.1861 64.4849 17.9601 64.6313 17.7754C64.7984 17.591 64.9646 17.4996 65.1299 17.5011C65.2539 17.5023 65.3566 17.5756 65.4379 17.721C65.5398 17.8667 65.6106 18.0327 65.6502 18.2191C65.6897 18.4055 65.719 18.5917 65.7379 18.7779C65.7568 18.9641 65.7659 19.0985 65.7651 19.1812C65.7647 19.2225 65.7328 19.3152 65.6695 19.4593C65.627 19.5829 65.5951 19.6756 65.5738 19.7374C65.0197 21.5096 64.5172 23.2926 64.0663 25.0864C63.636 26.8804 63.185 28.6743 62.7134 30.4679C62.2626 32.2411 61.75 34.0033 61.1754 35.7546C60.6219 37.4648 59.955 39.1532 59.1745 40.8199C59.9546 39.1946 60.6317 37.5269 61.2058 35.8169C61.8011 34.0658 62.3447 32.3038 62.8368 30.5311C63.3498 28.7378 63.8317 26.9443 64.2827 25.1505C64.7543 23.3568 65.2774 21.5844 65.8519 19.833C65.8443 20.639 65.7748 21.4341 65.6434 22.2182C65.512 23.0023 65.3496 23.7861 65.1562 24.5697C64.9628 25.3532 64.7487 26.1366 64.514 26.9197C64.2794 27.6822 64.0656 28.4449 63.8724 29.2078L63.5934 29.2051C63.0972 31.4119 62.4877 33.5762 61.765 35.6982C61.9557 35.204 62.1567 34.7098 62.368 34.2158C62.5793 33.7218 62.8009 33.2382 63.0327 32.765L63.2538 32.3331ZM54.9733 42.5164C54.8115 42.1428 54.6299 41.6761 54.4285 41.1162C54.2273 40.5356 54.0463 40.0068 53.8855 39.53C54.1498 39.9871 54.3829 40.475 54.5847 40.9936C54.7867 41.4916 54.9162 41.9991 54.9733 42.5164ZM61.2191 27.8497C60.7907 29.437 60.3315 31.0138 59.8413 32.5799C59.4791 33.7338 59.0653 34.877 58.5999 36.0093C59.0858 34.8978 59.5202 33.7549 59.9033 32.5805C60.4139 31.0352 60.8525 29.4583 61.2191 27.8497ZM58.7148 43.5437C58.4259 43.4997 58.1367 43.4763 57.8474 43.4735L56.9795 43.4653C57.1863 43.4466 57.3827 43.4382 57.5687 43.4399L58.6227 43.4499L59.3813 41.9069L59.5053 41.9081L58.7148 43.5437ZM55.3055 43.4495C55.2652 43.3458 55.2148 43.211 55.1543 43.0451C55.1144 42.9 55.0539 42.7341 54.973 42.5474C55.0545 42.6721 55.1875 42.8181 55.3719 42.9851C55.5562 43.1729 55.6992 43.3499 55.8009 43.5162L55.3055 43.4495ZM59.5056 41.8771L59.3816 41.876C59.4237 41.7937 59.4869 41.6599 59.5714 41.4747C59.656 41.2688 59.7615 41.0322 59.8881 40.7647L59.5056 41.8771ZM77.9971 43.2917C77.2093 43.553 76.6086 43.692 76.1951 43.7087C75.7814 43.7462 75.4195 43.7738 75.1093 43.7915C73.952 43.7806 72.9104 43.5537 71.9846 43.111C71.0587 42.6682 70.2686 42.0717 69.6144 41.3215C68.9601 40.5713 68.4516 39.6985 68.089 38.703C67.7472 37.6871 67.5817 36.6108 67.5925 35.4742C67.5987 34.8129 67.6671 34.1315 67.7978 33.43C67.9286 32.7079 68.1212 32.007 68.3756 31.3274C68.6303 30.6271 68.9567 29.9791 69.355 29.3835C69.7327 28.7877 70.1821 28.2546 70.7032 27.7842C70.1618 28.2131 69.7023 28.7255 69.3246 29.3212C68.9263 29.9168 68.5895 30.5647 68.3142 31.2648C68.0391 31.9442 67.8361 32.6553 67.7051 33.3981C67.5742 34.1203 67.5056 34.8223 67.4992 35.5043C67.491 36.3723 67.6165 37.3035 67.8758 38.298C68.156 39.272 68.602 40.1856 69.214 41.0387C69.8262 41.8712 70.6153 42.571 71.5813 43.1382C72.568 43.7055 73.764 43.9958 75.1692 44.0091C75.8305 44.0153 76.5237 43.9289 77.2488 43.7497C76.4586 44.2589 75.5779 44.509 74.6066 44.4998C73.8213 44.4924 73.0785 44.3614 72.3782 44.1067C71.6984 43.873 71.0608 43.5363 70.4656 43.0966C69.8909 42.6779 69.3686 42.1769 68.8987 41.5938C68.4289 41.0106 68.0318 40.3869 67.7074 39.7224L67.9887 39.4771C67.644 38.7711 67.3923 38.0661 67.2336 37.3619C67.0956 36.6579 67.03 35.9442 67.0368 35.2209C67.0468 34.167 67.201 33.1557 67.4995 32.1871C67.8186 31.2188 68.2303 30.303 68.7345 29.4397L69.4881 28.4238C69.6142 28.1976 69.792 27.9719 70.0215 27.7468C70.2716 27.5218 70.5423 27.3073 70.8336 27.1034C71.1251 26.8788 71.4266 26.6853 71.7381 26.5229C72.0705 26.34 72.3821 26.1776 72.6728 26.0357C73.4203 25.6707 74.1673 25.3471 74.914 25.0648C75.6609 24.7619 76.531 24.5427 77.5244 24.4074L77.4012 24.3133C75.4982 24.4813 73.8819 24.9311 72.5523 25.6626C71.2229 26.3734 70.1399 27.2519 69.3033 28.298C68.4667 29.3442 67.8565 30.4958 67.4726 31.7529C67.0889 32.9893 66.8914 34.2068 66.8801 35.4054C66.874 36.0461 66.9195 36.6975 67.0166 37.3598C67.1346 38.0016 67.3042 38.6439 67.5255 39.2867C67.0205 38.0419 66.7746 36.7272 66.7877 35.3426C66.8005 33.9786 67.0406 32.6272 67.508 31.2882C67.9753 29.9492 68.7 28.716 69.682 27.5885C70.9327 26.4636 72.2945 25.6085 73.7674 25.023C75.2405 24.4169 76.659 24.1203 78.023 24.1331C78.457 24.1372 78.9006 24.2137 79.3539 24.3627C79.8072 24.5117 80.2183 24.7429 80.5874 25.0564C80.9566 25.3492 81.2527 25.7344 81.4755 26.2118C81.719 26.6895 81.8375 27.2693 81.8311 27.9512C81.8258 28.5092 81.6851 29.1899 81.4088 29.9933C81.1325 30.7968 80.7222 31.5783 80.1776 32.3378C79.654 33.0769 78.9969 33.7114 78.2066 34.2413C77.4164 34.7505 76.5047 35.0003 75.4714 34.9905L74.4484 34.9809C73.6853 34.8083 72.9845 34.6157 72.3458 34.403C71.728 34.1698 71.1406 33.9886 70.5838 33.8593C70.498 34.1892 70.4434 34.509 70.4198 34.8188C70.417 35.1082 70.4143 35.3975 70.4116 35.6868C70.4059 36.2861 70.4624 36.8757 70.5809 37.4555C70.7203 38.0148 70.9324 38.5335 71.2172 39.0115C71.5021 39.4896 71.8599 39.896 72.2908 40.2307C72.7425 40.545 73.2883 40.7465 73.9281 40.8352C74.32 40.9216 74.6605 40.9765 74.9496 40.9999C75.2389 41.0026 75.4765 41.0152 75.6623 41.0376C75.869 41.0395 76.0133 41.0719 76.0954 41.1347C76.1983 41.177 76.2491 41.2705 76.2478 41.4151C76.0405 41.4752 75.8231 41.5145 75.5956 41.533C75.3888 41.5517 75.1717 41.56 74.9444 41.5578C74.2211 41.551 73.5712 41.4312 72.9947 41.1984C72.4184 40.945 71.925 40.6613 71.5146 40.3474C71.9855 40.8272 72.5505 41.1736 73.2099 41.3865C73.8694 41.5787 74.5195 41.6778 75.1602 41.6839C75.5115 41.6872 75.8734 41.6596 76.246 41.6011C76.2035 41.7247 76.1822 41.7969 76.182 41.8175C76.1808 41.9415 76.2317 42.0247 76.3346 42.067C76.4175 42.0471 76.5626 41.9968 76.7701 41.9161C76.9777 41.8147 77.1852 41.7237 77.3927 41.643C77.621 41.5418 77.8387 41.4612 78.046 41.4011C78.2534 41.3204 78.3985 41.2804 78.4811 41.2812C78.5845 41.2822 78.6773 41.3037 78.7595 41.3458C78.842 41.3673 78.8823 41.4813 78.8803 41.688C78.8784 41.8947 78.8037 42.142 78.6563 42.4299C78.5089 42.7179 78.2892 43.0051 77.9971 43.2917ZM73.8352 30.9759L74.516 31.1063C74.7429 31.1498 74.9494 31.1724 75.1354 31.1742C75.342 31.1761 75.5803 31.1164 75.8501 30.9949C76.1408 30.853 76.4216 30.6593 76.6926 30.4138C76.9843 30.1686 77.2352 29.8609 77.4454 29.4909C77.6762 29.1211 77.8455 28.699 77.9534 28.2247L78.0171 28.0392C77.7278 28.0365 77.2931 28.1047 76.7131 28.2439C76.1331 28.3831 75.5319 28.5738 74.9096 28.8159C74.2875 29.0374 73.7062 29.3109 73.1658 29.6365C72.6256 29.9414 72.2504 30.2789 72.0402 30.6489C72.3496 30.7139 72.6487 30.7787 72.9374 30.8434C73.247 30.8877 73.5463 30.9318 73.8352 30.9759ZM72.3876 33.2563C72.4293 33.2154 72.4506 33.1536 72.4514 33.0709C72.4728 32.9885 72.4837 32.9266 72.4841 32.8852L71.0322 32.3445L70.8731 32.777L72.3876 33.2563ZM71.4532 40.2848C71.3101 40.1181 71.167 39.9514 71.0239 39.7848C70.9013 39.6389 70.7993 39.4933 70.718 39.3478C70.9007 39.7009 71.1458 40.0133 71.4532 40.2848ZM71.8215 24.2606C71.7182 24.2596 71.6255 24.2277 71.5434 24.165C71.4615 24.0815 71.39 23.9982 71.3287 23.9149C72.2447 23.2209 73.2415 22.7136 74.3192 22.3931C73.781 22.4913 73.2521 22.6827 72.7327 22.9671C72.2136 23.2309 71.715 23.5052 71.2369 23.7901C71.1964 23.707 71.1454 23.6342 71.084 23.5716C71.0434 23.4885 70.9923 23.4261 70.9307 23.3841L70.7433 23.5374C70.4134 23.4516 70.1567 23.2735 69.9733 23.0031C69.79 22.712 69.6996 22.4425 69.7019 22.1945L69.8265 22.1337C70.3659 21.9114 70.9682 21.6071 71.6332 21.2207C72.3189 20.8345 72.9527 20.4684 73.5346 20.1226C72.9119 20.406 72.2889 20.7205 71.6656 21.066C71.063 21.4116 70.3989 21.7051 69.6732 21.9462C69.6766 21.5949 69.7926 21.348 70.0213 21.2055C70.2706 21.0631 70.5614 20.9109 70.8936 20.7487L71.2638 20.9382C71.4933 20.713 71.743 20.5294 72.0131 20.3872C72.3038 20.2453 72.584 20.1136 72.8538 19.9921C73.1443 19.8709 73.4143 19.7391 73.6636 19.5968C73.9336 19.4547 74.1835 19.2607 74.4131 19.0148C74.3718 19.0144 74.3515 18.9729 74.3523 18.8902C73.8741 19.1957 73.3961 19.4702 72.9185 19.7137C72.4615 19.9574 71.9837 20.2113 71.4852 20.4753C72.2541 20.0278 73.0128 19.57 73.7613 19.1017C74.5304 18.6336 75.4134 18.1459 76.4102 17.6386C76.472 17.6599 76.5752 17.6712 76.7199 17.6725C76.9886 17.6751 77.2371 17.6154 77.4656 17.4936C77.5056 17.6386 77.5765 17.7943 77.6782 17.9606C77.78 18.1269 77.8302 18.2824 77.8288 18.427C77.8275 18.5717 77.7337 18.6535 77.5475 18.6724L77.6996 18.9838C77.9678 19.0277 78.2248 19.1748 78.4704 19.4251C78.7161 19.6755 78.8378 19.9143 78.8357 20.1416C78.833 20.4309 78.7275 20.6573 78.5193 20.8207C78.3317 20.9842 78.0617 21.1264 77.7092 21.247C77.4185 21.389 77.0757 21.5821 76.6807 21.8264C76.3066 22.0502 75.891 22.2839 75.434 22.5276C74.9977 22.7715 74.5305 23.0048 74.0323 23.2274C73.5549 23.4503 73.0574 23.6109 72.5397 23.7093C72.4153 23.7495 72.2904 23.8517 72.1648 24.0158C72.0393 24.18 71.9248 24.2616 71.8215 24.2606ZM96.8051 31.9988L96.8057 31.9368L96.002 31.6812L96.5375 30.7872L100.154 31.9374C100.147 32.6194 100.172 33.3223 100.227 34.0462C100.303 34.7496 100.379 35.4737 100.454 36.2184C100.551 36.9634 100.626 37.7288 100.681 38.5146C100.756 39.2801 100.79 40.0554 100.783 40.8407C100.773 41.8947 100.67 42.9581 100.474 44.0309C100.278 45.1038 99.9579 46.1238 99.5147 47.091C99.0922 48.0584 98.5258 48.9521 97.8153 49.7721C97.1256 50.5923 96.2615 51.2662 95.2231 51.7937C94.6617 52.1604 93.9351 52.4946 93.0436 52.7962C92.1725 53.1187 91.3131 53.2965 90.4654 53.3299L90.0934 53.3264C89.2668 53.3186 88.5754 53.219 88.0192 53.0278C87.4628 52.8572 87.0203 52.6567 86.6918 52.4262C86.3631 52.2164 86.1274 52.0075 85.9847 51.7995C85.8624 51.6124 85.8015 51.4981 85.8019 51.4568C85.8027 51.3741 85.8444 51.3332 85.9271 51.334C86.5632 51.8153 87.2523 52.1628 87.9943 52.3765C88.7363 52.5902 89.4793 52.7005 90.2233 52.7076C91.4839 52.7195 92.6539 52.4825 93.7332 51.9967C94.7711 51.5104 95.7069 50.8993 96.5406 50.1631C95.7071 50.8786 94.7612 51.469 93.7027 51.9344C92.6236 52.3995 91.4745 52.6264 90.2552 52.6149C89.5319 52.608 88.8199 52.498 88.1192 52.2847C87.4392 52.0716 86.8018 51.7246 86.2069 51.2436C86.2689 51.2442 86.3415 51.2242 86.4245 51.1836C86.5074 51.1638 86.5492 51.1125 86.55 51.0298L86.304 50.8105C86.1607 50.6645 85.9868 50.4768 85.7823 50.2475C85.5985 50.0185 85.4254 49.7481 85.263 49.4366C85.1212 49.1252 85.052 48.7939 85.0553 48.4426C85.0586 48.0913 85.1946 47.9169 85.4633 47.9194C85.6699 47.9214 85.9063 48.0579 86.1724 48.3291C86.4386 48.6003 86.7562 48.8927 87.1252 49.2062C87.4941 49.5403 87.9356 49.8442 88.4497 50.1177C88.9844 50.3914 89.6135 50.5317 90.3368 50.5385C91.3701 50.5483 92.302 50.3504 93.1325 49.9449C93.9628 49.5601 94.6913 49.0192 95.3179 48.3225C94.7124 48.9781 94.0049 49.4881 93.1954 49.8525C92.4066 50.2171 91.5059 50.3946 90.4932 50.385C89.8733 50.3792 89.2853 50.2703 88.7292 50.0583C88.1939 49.8466 87.7625 49.5635 87.4352 49.2091C87.7855 49.3157 88.2184 49.4335 88.7339 49.5624C89.2701 49.6914 89.8481 49.7589 90.4681 49.7647C91.584 49.7753 92.5684 49.4952 93.4211 48.9246C94.2944 48.3748 95.0451 47.6689 95.6732 46.8068L96.1066 46.8728C96.5898 46.0507 96.9288 45.1652 97.1238 44.2163C97.3392 43.2883 97.4518 42.3077 97.4615 41.2744C97.4682 40.5717 97.4439 39.8585 97.3887 39.1346C97.3336 38.4107 97.2578 37.6763 97.1615 36.9314L97.0045 37.1469C97.101 37.8712 97.1666 38.5848 97.2013 39.2878C97.2568 39.9704 97.2815 40.6423 97.2753 41.3036C97.2675 42.1303 97.1771 42.9458 97.0042 43.7502C96.831 44.5752 96.5656 45.3271 96.2078 46.0058C96.566 45.2858 96.8213 44.5132 96.9737 43.6879C97.126 42.8833 97.2065 42.016 97.2153 41.0861C97.1171 40.5478 97.0705 40.01 97.0755 39.4727C97.0806 38.9354 97.065 38.3978 97.0288 37.8601L96.9726 37.2396C96.826 37.4449 96.6063 37.7322 96.3134 38.1014C96.0206 38.4707 95.6761 38.8394 95.28 39.2077C94.884 39.5553 94.4367 39.8611 93.9382 40.1251C93.4604 40.3892 92.9528 40.5188 92.4155 40.5137L91.6397 40.5994C90.5444 40.5891 89.5654 40.3008 88.7027 39.7346C87.84 39.1685 87.1027 38.4588 86.4907 37.6057C85.8789 36.7318 85.4125 35.7871 85.0914 34.7713C84.7705 33.7349 84.6145 32.7414 84.6235 31.7908C84.6038 31.6873 84.5943 31.6045 84.5948 31.5425L84.5975 31.2635C84.6094 30.0029 84.8469 28.9201 85.3102 28.0151C85.7736 27.0894 86.4007 26.341 87.1914 25.7697C88.0029 25.1987 88.9472 24.7839 90.0243 24.5254C91.1017 24.2463 92.2603 24.1125 93.5003 24.1242C94.9469 24.1379 96.4123 24.3481 97.8965 24.7548C97.7721 24.7949 97.7094 24.8667 97.7085 24.97C97.7077 25.0527 97.7172 25.1354 97.7371 25.2183C97.7779 25.2807 97.7978 25.3532 97.7971 25.4358L97.7965 25.4978C97.7335 25.6006 97.5884 25.6509 97.361 25.6487C97.1337 25.6466 96.8034 25.6125 96.37 25.5464C95.9366 25.4803 95.3277 25.3919 94.5434 25.2811L94.5399 25.6531C95.2417 25.7424 95.8398 25.8824 96.334 26.0731C96.8284 26.2431 97.2296 26.4329 97.5377 26.6425C97.8457 26.852 98.0608 27.0504 98.1831 27.2376C98.326 27.4249 98.3968 27.5806 98.3957 27.7046C98.3949 27.7873 98.3426 27.8488 98.2389 27.8891C98.1561 27.909 98.063 27.9185 97.9596 27.9175C97.7323 27.9153 97.3194 27.8701 96.7209 27.7818C96.143 27.6937 95.4098 27.6454 94.5211 27.637C93.6738 27.629 92.8777 27.6732 92.1328 27.7695C91.3878 27.8658 90.735 28.056 90.1743 28.34C89.6343 28.6243 89.2068 29.0233 88.892 29.537C88.5771 30.0507 88.4158 30.7209 88.408 31.5475C88.4015 32.2295 88.4987 32.8814 88.6995 33.5033C88.921 34.1254 89.1845 34.6756 89.49 35.1539C89.8161 35.6323 90.1742 36.018 90.5641 36.3111C90.9542 36.5834 91.3352 36.7214 91.7072 36.7249C91.9552 36.7272 92.2565 36.5544 92.6112 36.2064C92.9865 35.8586 93.3729 35.4282 93.7704 34.9153C94.1886 34.4025 94.5864 33.8586 94.9639 33.2835C95.3413 32.7083 95.6665 32.1947 95.9395 31.7426L96.8051 31.9988ZM95.6303 38.219C95.4217 38.4237 95.1922 38.6488 94.9419 38.8945C94.6918 39.1195 94.4107 39.3338 94.0988 39.5376C93.8077 39.7208 93.4754 39.8934 93.1019 40.0552C92.7285 40.1963 92.3246 40.2855 91.8903 40.3228L92.1064 40.4178C92.7271 40.341 93.2971 40.1707 93.8163 39.9069C94.3357 39.6225 94.7934 39.2961 95.1896 38.9278C95.6064 38.5598 95.9717 38.1808 96.2854 37.7911C96.5991 37.4014 96.8709 37.063 97.101 36.7758L97.0425 36.4032C96.854 36.6701 96.6238 36.9676 96.3521 37.2957C96.1009 37.624 95.8604 37.9318 95.6303 38.219ZM97.8648 41.2472C97.8562 42.1565 97.7549 43.0442 97.5607 43.9104C97.3669 44.7353 97.1012 45.5078 96.7638 46.228C97.1221 45.4874 97.4088 44.6737 97.6238 43.787C97.8597 42.8799 97.9822 41.951 97.9912 41.0004C97.9956 40.5251 97.9796 40.0392 97.9429 39.5429C97.9269 39.0467 97.9006 38.5504 97.864 38.054L97.7262 36.2237L97.5695 36.4082C97.6445 37.2149 97.7093 38.0216 97.7636 38.8281C97.8387 39.6349 97.8724 40.4412 97.8648 41.2472ZM100.16 41.0829C100.171 39.9876 100.129 38.9228 100.036 37.8885C99.9627 36.8545 99.869 35.8305 99.7546 34.8167C99.8283 35.7681 99.9123 36.7196 100.007 37.6712C100.101 38.6022 100.144 39.5636 100.134 40.5556C100.128 41.2376 100.08 41.9605 99.99 42.7243C99.9209 43.4677 99.7899 44.2105 99.5969 44.9527C99.4039 45.6949 99.1388 46.4158 98.8015 47.1153C98.4852 47.7737 98.0867 48.3899 97.606 48.9641C98.4416 48.0213 99.0407 46.9522 99.4033 45.7569C99.787 44.5205 100.036 43.2931 100.151 42.0748L100.16 41.0829ZM114.82 34.959C114.262 34.9537 113.838 34.9394 113.549 34.916C113.281 34.8928 113.033 34.8801 112.806 34.8779C112.186 34.8721 111.638 34.8979 111.162 34.9554C110.686 35.0129 110.282 35.1331 109.949 35.316C109.617 35.4989 109.366 35.7652 109.198 36.1149C109.029 36.4647 108.942 36.9289 108.937 37.5075C108.929 38.3548 109.016 38.986 109.198 39.4011C109.401 39.7957 109.677 40.0876 110.027 40.2769C110.397 40.4458 110.84 40.5533 111.357 40.5995C111.873 40.6457 112.451 40.7442 113.09 40.8949C113.461 40.9397 113.833 40.9742 114.205 40.9984C114.577 41.0019 114.949 41.0054 115.321 41.009L117.553 41.03C116.52 40.9583 115.487 40.9175 114.454 40.9078C113.441 40.8775 112.523 40.7759 111.698 40.6027C110.893 40.4298 110.235 40.1342 109.722 39.716C109.23 39.2981 108.988 38.6654 108.996 37.8181C109.002 37.1361 109.09 36.6203 109.258 36.2705C109.448 35.9003 109.688 35.6339 109.979 35.4713C110.291 35.2882 110.653 35.1883 111.067 35.1715C111.48 35.1341 111.925 35.1176 112.4 35.1221C112.979 35.1276 113.568 35.1641 114.166 35.2318C113.69 35.372 113.203 35.4811 112.706 35.559C112.23 35.6165 111.785 35.6847 111.371 35.7634C110.957 35.8215 110.595 35.9111 110.284 36.0322C109.993 36.1328 109.796 36.2859 109.69 36.4916L109.677 37.8865L109.428 38.0082C109.506 38.5256 109.574 38.919 109.634 39.1882C109.714 39.437 109.919 39.6352 110.248 39.783C110.578 39.9101 111.104 40.0184 111.826 40.1079C112.569 40.1976 113.643 40.3421 115.046 40.5413L117.278 40.5624C117.671 40.5661 117.898 40.5579 117.96 40.5379C118.043 40.4973 118.095 40.4771 118.116 40.4773L117.853 38.8008C117.815 38.3871 117.767 38.0146 117.708 37.6833C117.649 37.3521 117.57 37 117.47 36.6271C117.449 36.6889 117.387 36.7193 117.283 36.7183C117.383 37.0706 117.463 37.4434 117.521 37.8366C117.6 38.23 117.658 38.6026 117.696 38.9543C117.755 39.3062 117.794 39.6062 117.812 39.8544C117.851 40.1028 117.891 40.2479 117.932 40.2896L117.745 40.3498C117.704 40.3701 117.642 40.3798 117.559 40.3791L117.373 40.3773C117.228 40.3759 117.063 40.364 116.877 40.3416C116.692 40.2985 116.454 40.2756 116.165 40.2729L115.142 40.2632C114.336 40.2556 113.592 40.2073 112.911 40.1182C112.271 40.0295 111.714 39.9209 111.24 39.7924C111.714 39.9002 112.292 39.9883 112.974 40.0568C113.696 40.1463 114.367 40.1939 114.987 40.1998C115.256 40.2023 115.535 40.2049 115.824 40.2077C116.135 40.1899 116.465 40.1827 116.817 40.186L117.84 40.1957C117.778 40.1331 117.706 40.1014 117.624 40.1007L117.562 40.1001C117.492 38.6734 117.319 37.3077 117.042 36.003C116.765 34.6983 116.311 33.5573 115.679 32.58C115.048 31.582 114.219 30.7888 113.191 30.2004C112.163 29.5913 110.874 29.2795 109.324 29.2648C108.89 29.2607 108.456 29.2876 108.022 29.3455C107.587 29.4034 107.142 29.4819 106.686 29.5809C106.728 29.54 106.749 29.4989 106.75 29.4575C106.75 29.3542 106.71 29.2608 106.628 29.1774C106.546 29.0733 106.506 28.9695 106.507 28.8662C106.508 28.7422 106.633 28.6297 106.882 28.5287C107.152 28.4073 107.711 28.2989 108.559 28.2036C108.518 28.1618 108.488 28.0996 108.468 28.0167C108.469 27.934 108.47 27.872 108.47 27.8307C107.354 27.8202 106.486 27.7913 105.867 27.7441C105.247 27.6763 104.939 27.5184 104.941 27.2704C104.942 27.167 105.067 27.0235 105.317 26.8399C105.588 26.6564 105.961 26.4843 106.438 26.3235C106.915 26.1419 107.485 25.9923 108.147 25.8746C108.831 25.7363 109.586 25.6711 110.412 25.6789C112.004 25.694 113.365 25.9548 114.497 26.4615C115.629 26.9476 116.574 27.5972 117.331 28.4104C118.109 29.2031 118.731 30.108 119.196 31.1251C119.683 32.1424 120.066 33.1691 120.345 34.2051C120.646 35.2206 120.864 36.2147 120.999 37.1874C121.135 38.1394 121.261 38.9673 121.379 39.6711C121.378 39.7951 121.376 39.9191 121.375 40.0431C121.395 40.1673 121.404 40.312 121.402 40.4773C121.396 41.0766 121.278 41.6025 121.046 42.0551C120.835 42.4871 120.532 42.8459 120.137 43.1315C119.762 43.438 119.316 43.6611 118.798 43.8009C118.3 43.9615 117.762 44.0391 117.183 44.0337C116.729 44.0294 116.14 44.0135 115.417 43.986C114.694 43.9585 114.002 43.89 113.342 43.7804C112.909 43.673 112.434 43.5858 111.918 43.5189C111.402 43.4727 110.876 43.3851 110.339 43.256C109.803 43.127 109.278 42.9463 108.763 42.7141C108.27 42.4821 107.818 42.1369 107.409 41.6783C107.021 41.1993 106.706 40.5866 106.465 39.8403C106.245 39.0942 106.14 38.1528 106.151 37.0162C106.161 35.9416 106.417 35.0863 106.919 34.4504C107.422 33.7937 108.015 33.293 108.701 32.9481C109.407 32.5828 110.122 32.3518 110.846 32.2553C111.571 32.1382 112.16 32.0817 112.615 32.086C113.194 32.0915 113.576 32.1364 113.761 32.2208C113.946 32.3053 114.038 32.3888 114.037 32.4715C114.037 32.5335 114.026 32.585 114.005 32.6262C113.488 32.6213 112.827 32.6357 112.02 32.6694C111.214 32.7032 110.427 32.8301 109.661 33.0502C108.915 33.2705 108.271 33.6157 107.729 34.086C107.187 34.5356 106.912 35.184 106.904 36.0313C107.098 35.2684 107.413 34.672 107.851 34.2421C108.31 33.7918 108.83 33.466 109.411 33.2648C109.991 33.043 110.582 32.9142 111.181 32.8785C111.802 32.8224 112.36 32.7966 112.856 32.8013L113.91 32.8113C113.827 32.8932 113.785 32.9754 113.784 33.0581C113.783 33.1408 113.824 33.2135 113.906 33.2763L115.115 33.2877C115.445 33.3528 115.681 33.4687 115.824 33.6354C115.968 33.7814 116.039 33.9164 116.038 34.0404C116.036 34.2264 115.941 34.3909 115.754 34.5338C115.567 34.6767 115.255 34.8184 114.82 34.959ZM109.541 42.4115C110.118 42.6442 110.705 42.8255 111.303 42.9551C111.922 43.085 112.531 43.1734 113.13 43.2204C113.729 43.288 114.286 43.3243 114.803 43.3292C114.39 43.2839 113.977 43.2077 113.565 43.1005C113.132 42.9931 112.751 42.8964 112.421 42.8107C112.07 42.7247 111.719 42.6697 111.368 42.6457C111.038 42.6013 110.687 42.5463 110.316 42.4808C109.965 42.4155 109.604 42.3191 109.233 42.1915C108.863 42.0434 108.493 41.8332 108.123 41.561C108.513 41.9161 108.985 42.1995 109.541 42.4115ZM109.882 39.1595C109.862 39.1387 109.923 39.2013 110.066 39.3473C110.189 39.4724 110.354 39.567 110.56 39.631C110.457 39.5886 110.302 39.5355 110.096 39.4716C109.87 39.3868 109.757 39.2617 109.759 39.0964L109.882 39.1595ZM110.653 39.6318C110.632 39.6316 110.601 39.6313 110.56 39.631C110.58 39.6311 110.611 39.6314 110.653 39.6318ZM125.261 41.1958C125.262 41.0925 125.294 40.9688 125.357 40.8247C125.421 40.6806 125.453 40.5259 125.455 40.3606C125.521 39.8652 125.566 39.5143 125.589 39.3078C125.611 39.0807 125.624 38.8845 125.625 38.7191C125.633 37.8512 125.611 36.9209 125.559 35.9284C125.527 34.9154 125.484 33.9436 125.431 33.013C125.434 32.7237 125.427 32.3826 125.41 31.9898C125.413 31.5971 125.396 31.287 125.357 31.0592C125.425 30.3365 125.484 29.6241 125.532 28.9218C125.58 28.2196 125.607 27.5068 125.614 26.7835L125.621 26.0085C125.624 25.7399 125.616 25.4711 125.598 25.2023C125.659 25.2648 125.721 25.2964 125.783 25.297C125.866 25.2978 125.949 25.2676 126.032 25.2064C126.136 25.1453 126.229 25.1152 126.312 25.116C126.456 25.1174 126.569 25.2734 126.648 25.5842C126.749 25.8952 126.794 26.5776 126.784 27.6316L127.063 27.6342C127.177 26.4779 127.341 25.5597 127.554 24.8797C127.788 24.1999 128.018 23.8611 128.246 23.8632C128.349 23.8642 128.512 24.0931 128.735 24.5498C128.958 24.986 129.065 25.6794 129.057 26.63L129.403 26.0752C129.633 25.8087 129.883 25.5321 130.155 25.2453C130.447 24.9587 130.769 24.7034 131.123 24.4794C131.476 24.2554 131.871 24.0731 132.306 23.9325C132.742 23.7713 133.238 23.6933 133.796 23.6986C134.871 23.7087 135.799 23.9655 136.579 24.4689C137.381 24.9518 138.046 25.5885 138.576 26.3788C139.106 27.1485 139.532 28.0309 139.853 29.026C140.196 30.0006 140.455 30.9951 140.631 32.0095C140.808 33.0032 140.923 33.9653 140.976 34.8959C141.029 35.8264 141.053 36.6223 141.046 37.2836C141.041 37.8829 140.996 38.2442 140.912 38.3674C140.849 38.4702 140.725 38.531 140.538 38.5499C140.512 36.9582 140.424 35.335 140.274 33.6802C140.125 32.0254 139.747 30.4201 139.142 28.8643C139.684 30.5021 140.021 32.1174 140.15 33.71C140.301 35.2822 140.368 36.8639 140.353 38.4551C140.23 38.392 140.117 38.3599 140.013 38.3589C139.931 38.3581 139.858 38.3885 139.795 38.4499C139.794 38.6152 139.803 38.791 139.821 38.9771C139.841 39.1427 139.849 39.3081 139.848 39.4734C139.867 39.6389 139.876 39.794 139.874 39.9387C139.746 40.4128 139.619 40.7526 139.493 40.9581C139.367 41.1636 139.252 41.2659 139.149 41.2649C139.025 41.2637 138.922 41.2111 138.84 41.107C138.759 40.9822 138.677 40.8368 138.596 40.6707C138.536 40.5047 138.465 40.3284 138.384 40.1416C138.324 39.9344 138.233 39.7372 138.111 39.55C138.156 39.1991 138.189 38.9204 138.212 38.7139C138.235 38.4868 138.247 38.3009 138.248 38.1563C138.253 37.5983 138.249 36.9265 138.236 36.1411C138.223 35.3556 138.169 34.5387 138.073 33.6904C137.999 32.8217 137.862 31.9627 137.664 31.1134C137.486 30.2437 137.224 29.4765 136.879 28.8119C136.555 28.1268 136.137 27.5752 135.624 27.157C135.111 26.7181 134.493 26.4953 133.77 26.4885C133.274 26.4838 132.828 26.6449 132.432 26.9719C132.057 27.299 131.723 27.7195 131.428 28.2334C131.155 28.7475 130.912 29.3136 130.699 29.9316C130.487 30.529 130.316 31.1061 130.187 31.6629C130.378 31.086 130.57 30.4988 130.762 29.9012C130.974 29.3039 131.217 28.7585 131.49 28.265C131.784 27.7718 132.119 27.3719 132.494 27.0654C132.869 26.7383 133.304 26.5771 133.8 26.5818C134.441 26.5878 134.987 26.7686 135.438 27.1242C135.91 27.48 136.298 27.9384 136.603 28.4993C136.929 29.0604 137.181 29.7035 137.36 30.4285C137.56 31.1331 137.708 31.8579 137.805 32.6028C137.901 33.3271 137.956 34.0407 137.97 34.7435C138.005 35.4258 138.02 36.015 138.016 36.511C138.012 36.9036 137.998 37.2962 137.974 37.6886C137.97 38.0813 137.956 38.4842 137.931 38.8973C137.753 38.1102 137.616 37.2926 137.52 36.4443C137.446 35.5756 137.361 34.7274 137.265 33.8998C137.17 33.0515 137.043 32.2443 136.885 31.4781C136.748 30.6914 136.538 29.9661 136.255 29.302L136.475 28.9941C136.272 28.5168 136.038 28.1529 135.772 27.9024C135.526 27.6314 135.28 27.4328 135.033 27.3064C134.787 27.1801 134.56 27.1056 134.353 27.083C134.147 27.0604 134.013 27.0488 133.951 27.0482C133.434 27.0433 132.967 27.2249 132.551 27.593C132.154 27.9613 131.798 28.4643 131.482 29.102C131.187 29.7192 130.922 30.4401 130.687 31.2646C130.452 32.0891 130.247 32.9552 130.073 33.8629C129.899 34.7706 129.746 35.6889 129.613 36.6177C129.481 37.5258 129.369 38.3825 129.279 39.1876L129.558 39.1903C129.668 38.4886 129.779 37.7146 129.89 36.8683C130.022 36.0222 130.154 35.1657 130.286 34.2989C130.439 33.4117 130.613 32.5556 130.806 31.7307C131 30.9058 131.224 30.1639 131.478 29.505C131.753 28.8462 132.068 28.3118 132.424 27.9018C132.758 27.5123 133.163 27.2888 133.639 27.2313C133.183 27.3303 132.798 27.616 132.484 28.0884C132.149 28.5813 131.853 29.1882 131.599 29.9091C131.344 30.6301 131.109 31.4236 130.894 32.2896C130.7 33.1351 130.517 33.9498 130.344 34.7335L129.681 39.2534C129.596 39.542 129.532 39.7997 129.488 40.0266L129.358 40.6764C129.315 40.8827 129.271 41.1096 129.227 41.3572C129.184 41.5842 129.13 41.8523 129.065 42.1617L128.968 42.5329L128.782 42.5311L125.661 41.4476C125.558 41.4259 125.476 41.3942 125.414 41.3523C125.373 41.3105 125.322 41.2584 125.261 41.1958ZM130.805 25.3444C130.388 25.6918 130.054 26.071 129.802 26.482C129.571 26.8725 129.35 27.2734 129.14 27.6848L129.139 27.7158C129.434 27.1192 129.843 26.5134 130.365 25.8983C130.867 25.3243 131.532 24.8966 132.362 24.6151C132.092 24.6952 131.833 24.7754 131.584 24.8558C131.294 24.9564 131.034 25.1192 130.805 25.3444ZM134.534 24.3566C134.431 24.3349 134.287 24.3232 134.101 24.3215C134.76 24.4931 135.378 24.6849 135.955 24.897C136.532 25.0885 137.076 25.476 137.587 26.0595C137.24 25.5808 136.779 25.2045 136.203 24.9304C135.647 24.6564 135.091 24.4652 134.534 24.3566ZM135.338 27.8983C135.174 27.7728 134.978 27.6779 134.751 27.6138C134.546 27.5292 134.288 27.4234 133.979 27.2965L133.949 27.2342C134.3 27.2582 134.609 27.3438 134.877 27.491C135.144 27.6175 135.4 27.8472 135.645 28.1802L135.338 27.8983ZM137.649 26.1221C137.935 26.4761 138.2 26.8816 138.443 27.3386C138.687 27.7956 138.9 28.2006 139.083 28.5537C138.881 28.0764 138.688 27.6406 138.506 27.2462C138.324 26.8518 138.038 26.4771 137.649 26.1221Z" fill="white"/>
</g>
<defs>
<filter id="filter0_di_2_34" x="16.3107" y="0.0929203" width="155.473" height="71.199" filterUnits="userSpaceOnUse" color-interpolation-filters="sRGB">
<feFlood flood-opacity="0" result="BackgroundImageFix"/>
<feColorMatrix in="SourceAlpha" type="matrix" values="0 0 0 0 0 0 0 0 0 0 0 0 0 0 0 0 0 0 127 0" result="hardAlpha"/>
<feOffset dy="4"/>
<feGaussianBlur stdDeviation="2"/>
<feComposite in2="hardAlpha" operator="out"/>
<feColorMatrix type="matrix" values="0 0 0 0 0 0 0 0 0 0 0 0 0 0 0 0 0 0 0.25 0"/>
<feBlend mode="normal" in2="BackgroundImageFix" result="effect1_dropShadow_2_34"/>
<feBlend mode="normal" in="SourceGraphic" in2="effect1_dropShadow_2_34" result="shape"/>
<feColorMatrix in="SourceAlpha" type="matrix" values="0 0 0 0 0 0 0 0 0 0 0 0 0 0 0 0 0 0 127 0" result="hardAlpha"/>
<feOffset dy="4"/>
<feGaussianBlur stdDeviation="2"/>
<feComposite in2="hardAlpha" operator="arithmetic" k2="-1" k3="1"/>
<feColorMatrix type="matrix" values="0 0 0 0 0 0 0 0 0 0 0 0 0 0 0 0 0 0 0.25 0"/>
<feBlend mode="normal" in2="shape" result="effect2_innerShadow_2_34"/>
</filter>
<filter id="filter1_d_2_34" x="42.1948" y="17.2016" width="103.033" height="44.6043" filterUnits="userSpaceOnUse" color-interpolation-filters="sRGB">
<feFlood flood-opacity="0" result="BackgroundImageFix"/>
<feColorMatrix in="SourceAlpha" type="matrix" values="0 0 0 0 0 0 0 0 0 0 0 0 0 0 0 0 0 0 127 0" result="hardAlpha"/>
<feOffset dy="4"/>
<feGaussianBlur stdDeviation="2"/>
<feComposite in2="hardAlpha" operator="out"/>
<feColorMatrix type="matrix" values="0 0 0 0 0 0 0 0 0 0 0 0 0 0 0 0 0 0 0.25 0"/>
<feBlend mode="normal" in2="BackgroundImageFix" result="effect1_dropShadow_2_34"/>
<feBlend mode="normal" in="SourceGraphic" in2="effect1_dropShadow_2_34" result="shape"/>
</filter>
</defs>
</svg>
