<svg width="230" height="86" viewBox="0 0 230 86" fill="none" xmlns="http://www.w3.org/2000/svg">
<g filter="url(#filter0_di_2_9)">
<path d="M224.601 40.853C220.101 67.853 175.576 76.8531 115.101 76.8531C37.1009 81.3531 11.3161 62.353 5.60086 40.853C-6.7599 -5.64697 54.6257 4.85303 115.101 4.85303C179.101 -8.14697 230.519 5.34285 224.601 40.853Z" fill="#81AF5D"/>
<path d="M115.101 74.8531L114.986 74.8564C76.1155 77.0989 50.5113 73.4641 33.9973 66.7503C17.5799 60.0758 10.207 50.3959 7.53374 40.3392C4.54221 29.0854 6.13291 21.8131 10.4828 16.9432C14.9608 11.9299 22.7686 8.97002 33.3326 7.39363C43.8331 5.82671 56.6429 5.68092 70.7037 5.93863C75.7227 6.03062 80.9071 6.17431 86.191 6.32075C95.6348 6.58248 105.397 6.85303 115.101 6.85303L115.499 6.813C147.318 0.349728 175.805 0.521581 195.482 6.57335C205.316 9.59774 212.79 14.0402 217.445 19.6907C222.047 25.2778 224.017 32.1888 222.628 40.5242C220.579 52.8215 209.363 61.4833 190.281 67.0583C171.305 72.6024 145.282 74.8531 115.101 74.8531Z" stroke="white" stroke-width="4" stroke-linejoin="bevel"/>
</g>
<g filter="url(#filter1_d_2_9)">
<path d="M47.096 41.6974C47.1025 41.8005 47.0027 42.1898 46.7966 42.8654C46.5905 43.541 46.34 44.3332 46.045 45.2422C45.7694 46.1292 45.4751 47.0484 45.1621 47.9999C44.8465 48.9101 44.574 49.6831 44.3448 50.3187L45.0557 47.7892C44.4606 49.5245 43.7617 51.256 42.959 52.9837L42.9648 53.0765C42.5317 53.1037 42.1082 53.12 41.6944 53.1252C41.3025 53.1498 40.888 53.1448 40.451 53.1101C40.3065 52.7879 40.1292 52.4366 39.9189 52.0564C39.728 51.6542 39.5268 51.2527 39.3153 50.8518C39.1244 50.4497 38.9238 50.0585 38.7136 49.6782C38.524 49.2967 38.3466 48.9454 38.1815 48.6245L38.0694 48.8179C37.5806 47.9582 37.0498 47.0907 36.4772 46.2155C35.9252 45.3391 35.3861 44.5032 34.8599 43.7079C34.3325 42.8921 33.8514 42.1561 33.4168 41.5C32.9809 40.8233 32.6565 40.2742 32.4437 39.8528C31.8813 38.8113 31.3892 37.7343 30.9673 36.6219C30.5455 35.5095 30.1133 34.3977 29.6708 33.2866C29.81 33.195 29.9292 33.115 30.0285 33.0467C30.1484 32.977 30.2599 32.939 30.363 32.9325C30.4867 32.9247 30.606 33.0104 30.7208 33.1896C30.8562 33.3675 30.9826 33.5666 31.1 33.787C31.2174 34.0074 31.3141 34.2291 31.3902 34.4521C31.487 34.6738 31.5476 34.815 31.5721 34.8756L31.8389 34.6725C31.7112 34.287 31.6041 33.9003 31.5176 33.5123C31.4311 33.1243 31.3749 32.724 31.349 32.3115L31.3335 32.064C31.3244 31.9196 31.3263 31.7849 31.3392 31.6599C31.3714 31.5129 31.4152 31.3859 31.4706 31.2789C31.526 31.1719 31.6052 31.1151 31.7084 31.1086C31.8527 31.0996 32.13 31.3928 32.5401 31.9883C32.9502 32.5837 33.4119 33.3416 33.9253 34.2619C34.4592 35.181 35.0203 36.2018 35.6085 37.3245C36.216 38.4253 36.7906 39.497 37.3323 40.5398C37.8934 41.5607 38.3854 42.472 38.8085 43.2737C39.2316 44.0754 39.5353 44.6258 39.7197 44.9248C39.9983 45.4043 40.2672 45.8948 40.5265 46.3962C40.8051 46.8757 41.1043 47.3539 41.4241 47.8308C42.2061 45.7731 42.8191 43.6639 43.2633 41.5031L44.5958 35.0209C44.6447 34.8107 44.7104 34.3718 44.7927 33.704C44.875 33.0362 44.9767 32.3464 45.0976 31.6348C45.2173 30.9025 45.3525 30.2521 45.5032 29.6836C45.6539 29.115 45.822 28.8249 46.0076 28.8132L46.1024 28.8384C45.8617 30.2823 45.641 31.7146 45.4403 33.1353C45.2383 34.5353 45.006 35.9477 44.7434 37.3723C45.0498 35.9863 45.3144 34.5927 45.537 33.1913C45.7597 31.79 46.0242 30.3963 46.3306 29.0104L46.6207 29.1785C46.6529 29.0316 46.7025 28.8317 46.7695 28.579C46.8558 28.3044 46.953 28.0395 47.0612 27.7842C47.1682 27.5083 47.288 27.273 47.4207 27.0783C47.5741 26.8823 47.7333 26.7791 47.8983 26.7688C48.022 26.761 48.1297 26.8267 48.2213 26.9659C48.3334 27.1038 48.416 27.2643 48.4689 27.4474C48.5218 27.6304 48.5644 27.8141 48.5967 27.9984C48.629 28.1828 48.6477 28.3162 48.6529 28.3987C48.6555 28.4399 48.6303 28.5347 48.5775 28.683C48.544 28.8093 48.5189 28.9041 48.5022 28.9673C48.0773 30.7748 47.7046 32.5893 47.3841 34.411C47.0842 36.2314 46.7637 38.053 46.4226 39.876C46.1008 41.677 45.7165 43.4716 45.2696 45.2598C44.8408 47.0054 44.2973 48.7375 43.639 50.4562C44.2999 48.7788 44.855 47.0667 45.3044 45.3197C45.7719 43.5303 46.1872 41.7337 46.5502 39.9301C46.9326 38.1045 47.284 36.2809 47.6045 34.4593C47.9456 32.6363 48.3396 30.8308 48.7865 29.0426C48.837 29.847 48.8249 30.645 48.7504 31.4366C48.6758 32.2281 48.5703 33.0216 48.4339 33.8171C48.2975 34.6125 48.1404 35.4092 47.9627 36.2073C47.7838 36.9847 47.6254 37.7608 47.4877 38.5356L47.2092 38.5531C46.8734 40.7899 46.4215 42.9925 45.8536 45.161C46.0081 44.6543 46.173 44.147 46.3482 43.639C46.5234 43.1311 46.7095 42.6327 46.9066 42.1441L47.096 41.6974ZM39.571 52.451C39.3827 52.09 39.1679 51.6376 38.9267 51.0937C38.6841 50.5291 38.4655 50.0148 38.2707 49.5507C38.5673 49.9877 38.835 50.4575 39.0736 50.9602C39.3109 51.4423 39.4767 51.9392 39.571 52.451ZM44.7434 37.3723C44.4306 38.9864 44.0862 40.5921 43.7102 42.1895C43.4321 43.3665 43.1017 44.5365 42.7192 45.6994C43.1236 44.5559 43.4746 43.3846 43.7721 42.1856C44.17 40.6075 44.4938 39.0031 44.7434 37.3723ZM43.3768 53.206C43.0854 53.1829 42.7953 53.1804 42.5066 53.1985L41.6403 53.2529C41.8452 53.2193 42.0405 53.1967 42.2262 53.185L43.2781 53.119L43.9235 51.5254L44.0473 51.5177L43.3768 53.206ZM39.9696 53.3578C39.9218 53.2572 39.8619 53.1264 39.7896 52.9653C39.7393 52.8235 39.6671 52.6624 39.5729 52.4819C39.6632 52.6005 39.8063 52.7364 40.0023 52.8898C40.1996 53.0638 40.355 53.23 40.4685 53.3886L39.9696 53.3578ZM44.0453 51.4867L43.9216 51.4945C43.9577 51.4094 44.0111 51.2714 44.082 51.0806C44.1515 50.8692 44.2398 50.6255 44.3467 50.3496L44.0453 51.4867ZM62.5908 51.565C61.8238 51.8823 61.2347 52.0642 60.8235 52.1108C60.4136 52.1779 60.0546 52.2315 59.7465 52.2716C58.5914 52.3441 57.5362 52.1929 56.5808 51.818C55.6255 51.4431 54.7945 50.9051 54.0878 50.204C53.3812 49.5029 52.8111 48.669 52.3777 47.7022C51.9636 46.7136 51.721 45.652 51.6497 44.5176C51.6083 43.8576 51.6275 43.173 51.7072 42.464C51.7856 41.7343 51.9272 41.0213 52.132 40.3251C52.3355 39.6083 52.6144 38.9385 52.9688 38.3158C53.3025 37.6943 53.7123 37.1302 54.1982 36.6234C53.6891 37.0902 53.2677 37.6344 52.934 38.2558C52.5796 38.8786 52.2904 39.549 52.0663 40.2672C51.8409 40.9646 51.6896 41.6885 51.6124 42.4389C51.534 43.1685 51.5161 43.8737 51.5589 44.5544C51.6133 45.4207 51.8056 46.3404 52.1359 47.3136C52.4855 48.2649 52.9962 49.144 53.6681 49.9508C54.3387 50.737 55.1762 51.3781 56.1806 51.8742C57.2056 52.3689 58.4194 52.5723 59.8219 52.4842C60.482 52.4428 61.1671 52.3066 61.8774 52.0757C61.126 52.6405 60.2655 52.9534 59.2961 53.0142C58.5123 53.0634 57.762 52.9863 57.0452 52.7828C56.3503 52.5986 55.6902 52.3088 55.0648 51.9132C54.4614 51.5369 53.9043 51.0749 53.3937 50.5271C52.883 49.9794 52.442 49.3859 52.0705 48.7465L52.3334 48.4816C51.9388 47.8023 51.6369 47.1172 51.4279 46.4262C51.2395 45.734 51.1226 45.027 51.0773 44.305C51.0113 43.2531 51.0922 42.2334 51.3201 41.2458C51.5686 40.257 51.9132 39.3139 52.3539 38.4165L53.0323 37.3489C53.1418 37.1142 53.3029 36.8763 53.5156 36.6352C53.7488 36.3928 54.0034 36.1594 54.2792 35.935C54.5537 35.69 54.8405 35.4753 55.1395 35.2908C55.4579 35.0845 55.7569 34.9 56.0366 34.7375C56.7558 34.3197 57.4777 33.943 58.2021 33.6076C58.9252 33.2516 59.7772 32.9704 60.7582 32.7638L60.6286 32.6788C58.7427 32.9835 57.163 33.5486 55.8896 34.374C54.6148 35.1788 53.5979 36.1331 52.8389 37.2368C52.0799 38.3405 51.5543 39.5331 51.262 40.8146C50.9684 42.0755 50.8592 43.3041 50.9343 44.5004C50.9744 45.1398 51.0668 45.7863 51.2113 46.4398C51.3752 47.0715 51.5907 47.6999 51.8577 48.3251C51.2644 47.1199 50.9243 45.8263 50.8376 44.4443C50.7521 43.083 50.8942 41.7178 51.2638 40.3486C51.6334 38.9794 52.2673 37.6972 53.1655 36.5019C54.3319 35.2898 55.6285 34.3387 57.0554 33.6486C58.481 32.9379 59.8745 32.5398 61.2358 32.4543C61.6689 32.4271 62.1169 32.4715 62.5798 32.5874C63.0426 32.7033 63.4694 32.9043 63.86 33.1903C64.2494 33.4558 64.5725 33.8186 64.8291 34.2788C65.1064 34.7376 65.2665 35.3074 65.3092 35.988C65.3441 36.5449 65.2528 37.234 65.0352 38.0553C64.8175 38.8765 64.4645 39.6856 63.9761 40.4824C63.5071 41.2573 62.8975 41.9375 62.1474 42.523C61.396 43.0878 60.5046 43.4026 59.4733 43.4674L58.4523 43.5315C57.6788 43.4144 56.9659 43.2728 56.3135 43.1066C55.6805 42.9186 55.0816 42.7802 54.517 42.6914C54.4552 43.0266 54.4237 43.3495 54.4225 43.6602C54.4406 43.949 54.4587 44.2377 54.4769 44.5265C54.5144 45.1246 54.6132 45.7086 54.7732 46.2784C54.9525 46.8262 55.2015 47.3283 55.52 47.7845C55.8386 48.2408 56.2248 48.6204 56.6786 48.9232C57.1518 49.2041 57.7107 49.3657 58.3553 49.4081C58.7524 49.466 59.096 49.4962 59.386 49.4987C59.6748 49.4806 59.9126 49.476 60.0996 49.485C60.3058 49.472 60.4522 49.4939 60.5385 49.5506C60.6443 49.5854 60.7017 49.6749 60.7107 49.8193C60.5083 49.8941 60.2944 49.949 60.0688 49.9839C59.8638 50.0174 59.6479 50.0413 59.421 50.0556C58.6991 50.1009 58.0422 50.0283 57.4505 49.8376C56.8574 49.6264 56.3449 49.379 55.9129 49.0955C56.4171 49.5401 57.0057 49.8448 57.6787 50.0097C58.3504 50.1539 59.0059 50.2059 59.6453 50.1657C59.996 50.1437 60.355 50.0901 60.7224 50.005C60.6889 50.1313 60.6728 50.2048 60.6741 50.2254C60.6819 50.3492 60.7386 50.4284 60.8443 50.4632C60.9255 50.4374 61.0667 50.3768 61.2678 50.2813C61.4675 50.1652 61.668 50.0595 61.8691 49.964C62.0895 49.8467 62.3009 49.7506 62.5032 49.6757C62.7043 49.5803 62.8461 49.53 62.9286 49.5248C63.0317 49.5183 63.1259 49.5331 63.211 49.5692C63.2948 49.5846 63.3431 49.6955 63.3561 49.9017C63.369 50.108 63.3124 50.36 63.1861 50.6579C63.0599 50.9557 62.8614 51.2581 62.5908 51.565ZM57.5521 39.5811L58.2405 39.6621C58.47 39.6891 58.6775 39.6968 58.8632 39.6852C59.0694 39.6722 59.3027 39.5954 59.5631 39.4549C59.8428 39.2923 60.1089 39.0789 60.3616 38.8146C60.6348 38.5489 60.8629 38.224 61.0458 37.8398C61.2494 37.4543 61.3879 37.0211 61.4612 36.5402L61.5114 36.3507C61.2227 36.3688 60.7941 36.4682 60.2256 36.6488C59.6571 36.8295 59.0713 37.063 58.468 37.3493C57.8635 37.6151 57.3034 37.9298 56.7879 38.2935C56.271 38.6365 55.9211 39.0001 55.7382 39.3844C56.0514 39.4268 56.3544 39.4699 56.6471 39.5137C56.959 39.5355 57.2607 39.558 57.5521 39.5811ZM56.2726 41.9599C56.3112 41.9161 56.328 41.8529 56.3228 41.7704C56.3383 41.6866 56.3447 41.6241 56.3421 41.5828L54.8549 41.1482L54.7274 41.591L56.2726 41.9599ZM55.8472 49.0375C55.6924 48.8816 55.5377 48.7256 55.383 48.5697C55.2501 48.4331 55.1379 48.2951 55.0464 48.1559C55.254 48.4949 55.521 48.7888 55.8472 49.0375ZM55.0596 33.0284C54.9565 33.0349 54.8617 33.0098 54.7753 32.9531C54.6876 32.8757 54.6103 32.7978 54.5432 32.7191C55.4067 31.9609 56.3644 31.3831 57.4163 30.9857C56.8865 31.1225 56.3728 31.3515 55.8753 31.6726C55.3765 31.9731 54.8989 32.2827 54.4426 32.6012C54.3962 32.5213 54.3401 32.4523 54.2743 32.3943C54.2279 32.3144 54.1725 32.2558 54.108 32.2184L53.9321 32.3848C53.5969 32.323 53.328 32.1638 53.1256 31.9074C52.9218 31.6302 52.8122 31.3679 52.7966 31.1204L52.9165 31.0508C53.4385 30.7902 54.0173 30.4433 54.6527 30.01C55.3088 29.5753 55.9145 29.1646 56.4701 28.7777C55.8694 29.1053 55.2707 29.4638 54.6739 29.8533C54.0978 30.2415 53.4565 30.582 52.7501 30.8749C52.7281 30.5242 52.826 30.2696 53.0439 30.1109C53.2823 29.951 53.5614 29.7782 53.881 29.5925L54.2639 29.7548C54.4766 29.5137 54.7125 29.3125 54.9715 29.1513C55.2512 28.9888 55.5213 28.8372 55.7816 28.6966C56.0626 28.5548 56.3224 28.4039 56.5608 28.2439C56.8199 28.0827 57.0551 27.8712 57.2664 27.6095C57.2252 27.6121 57.202 27.5721 57.1968 27.4896C56.7418 27.8288 56.2849 28.137 55.826 28.4143C55.3878 28.6903 54.9296 28.9779 54.4514 29.2771C55.1861 28.7754 55.9098 28.2641 56.6225 27.7431C57.3559 27.2208 58.2015 26.6707 59.1591 26.0929C59.2223 26.1097 59.3261 26.1135 59.4705 26.1044C59.7386 26.0876 59.9822 26.0102 60.2014 25.8722C60.2517 26.014 60.3336 26.1641 60.4471 26.3227C60.5606 26.4812 60.6218 26.6327 60.6309 26.7771C60.64 26.9214 60.5523 27.0098 60.368 27.042L60.5421 27.3417C60.8128 27.3661 61.0797 27.4943 61.3428 27.7263C61.6058 27.9583 61.7445 28.1877 61.7587 28.4146C61.7768 28.7034 61.6879 28.9367 61.492 29.1147C61.3168 29.2914 61.0577 29.4526 60.7148 29.5983C60.4351 29.7608 60.1071 29.9782 59.7307 30.2503C59.3737 30.5005 58.9761 30.7636 58.5378 31.0396C58.1202 31.3143 57.671 31.5806 57.1903 31.8386C56.7301 32.0952 56.2454 32.2913 55.7363 32.4268C55.6151 32.4758 55.4978 32.5867 55.3844 32.7595C55.271 32.9323 55.1627 33.0219 55.0596 33.0284ZM80.5359 38.9459L80.532 38.884L79.7121 38.687L80.1817 37.7567L83.8715 38.6433C83.9142 39.3239 83.9892 40.0233 84.0964 40.7413C84.2229 41.4374 84.3508 42.1541 84.4799 42.8915C84.6296 43.6276 84.76 44.3856 84.8711 45.1655C85.0015 45.9234 85.0913 46.6943 85.1405 47.4781C85.2066 48.5301 85.1804 49.5981 85.0621 50.6823C84.9438 51.7665 84.6985 52.8069 84.3262 53.8036C83.9746 54.7989 83.474 55.7311 82.8245 56.6001C82.1956 57.4679 81.3824 58.2023 80.3847 58.8033C79.8512 59.2096 79.1506 59.5952 78.2831 59.9603C77.4375 60.3447 76.5932 60.5841 75.7501 60.6784L75.3789 60.7017C74.5538 60.7535 73.857 60.7041 73.2885 60.5534C72.7212 60.4233 72.2654 60.2552 71.9212 60.049C71.5782 59.8635 71.3281 59.6721 71.1707 59.4749C71.0353 59.2971 70.9663 59.1875 70.9637 59.1463C70.9585 59.0638 70.9972 59.0199 71.0797 59.0147C71.7489 59.449 72.4612 59.746 73.2167 59.9056C73.9722 60.0652 74.7212 60.1218 75.4638 60.0751C76.722 59.9962 77.8718 59.6755 78.9133 59.1131C79.9135 58.5534 80.8028 57.8763 81.5813 57.082C80.8015 57.8557 79.9006 58.5128 78.8784 59.0532C77.8357 59.5949 76.7058 59.904 75.4889 59.9804C74.767 60.0257 74.0489 59.9672 73.3347 59.805C72.641 59.6415 71.9803 59.3413 71.3523 58.9044C71.4142 58.9006 71.4851 58.8754 71.565 58.829C71.6462 58.8032 71.6843 58.749 71.6791 58.6665L71.418 58.4655C71.2645 58.3301 71.0775 58.1555 70.857 57.9416C70.6572 57.7263 70.465 57.4692 70.2806 57.1702C70.1168 56.8699 70.0239 56.5444 70.0019 56.1937C69.9798 55.8431 70.1029 55.6593 70.371 55.6425C70.5773 55.6296 70.8229 55.7487 71.1079 56C71.3929 56.2514 71.7307 56.5201 72.1214 56.8061C72.5134 57.1128 72.9756 57.3841 73.5081 57.6199C74.0612 57.8543 74.6987 57.9489 75.4206 57.9036C76.4519 57.8388 77.3672 57.5743 78.1663 57.11C78.9667 56.6663 79.6543 56.0744 80.2291 55.3343C79.6724 56.0319 79.0035 56.5915 78.2223 57.0133C77.4619 57.4338 76.5763 57.6757 75.5656 57.7392C74.9468 57.778 74.3525 57.7118 73.7827 57.5405C73.2334 57.3679 72.7828 57.1166 72.4308 56.7867C72.7879 56.8678 73.2282 56.9541 73.7516 57.0455C74.2956 57.1356 74.877 57.1612 75.4958 57.1223C76.6096 57.0524 77.5712 56.7021 78.3807 56.0715C79.212 55.4602 79.9099 54.702 80.4743 53.7969L80.9113 53.8316C81.3339 52.9768 81.6082 52.0691 81.7343 51.1087C81.8823 50.1675 81.9239 49.1813 81.8592 48.15C81.8152 47.4487 81.7396 46.7391 81.6324 46.0211C81.5252 45.303 81.3967 44.576 81.2469 43.8399L81.1058 44.0662C81.2543 44.7816 81.3712 45.4887 81.4564 46.1874C81.561 46.8642 81.6341 47.5326 81.6755 48.1926C81.7273 49.0177 81.6959 49.8376 81.5814 50.6523C81.4682 51.4877 81.2576 52.2568 80.9497 52.9595C81.255 52.2155 81.454 51.4265 81.5466 50.5924C81.6405 49.7789 81.6583 48.9081 81.6 47.9799C81.4632 47.4501 81.378 46.9171 81.3443 46.3808C81.3107 45.8445 81.2564 45.3095 81.1815 44.7759L81.0807 44.161C80.9493 44.3763 80.7508 44.6786 80.4854 45.068C80.2199 45.4574 79.9029 45.8501 79.5343 46.2459C79.1644 46.6212 78.7404 46.9584 78.2622 47.2576C77.8046 47.5556 77.3077 47.7213 76.7714 47.755L76.0038 47.8964C74.9106 47.965 73.9134 47.7481 73.0121 47.2455C72.1109 46.743 71.3243 46.0883 70.6524 45.2815C69.9793 44.4541 69.446 43.5454 69.0525 42.5554C68.6577 41.5448 68.4306 40.5651 68.371 39.6163C68.3439 39.5145 68.3284 39.4326 68.3245 39.3708L68.3071 39.0923C68.2281 37.8341 68.387 36.737 68.7838 35.801C69.1793 34.8443 69.7508 34.0526 70.4984 33.4259C71.2665 32.7979 72.1785 32.3161 73.2342 31.9806C74.2886 31.6245 75.4346 31.4077 76.6722 31.33C78.116 31.2393 79.5927 31.3433 81.1024 31.642C80.9813 31.691 80.9239 31.7671 80.9304 31.8702C80.9356 31.9527 80.9511 32.0346 80.9769 32.1158C81.022 32.1751 81.0472 32.246 81.0523 32.3285L81.0562 32.3904C81.0008 32.4974 80.8597 32.558 80.6328 32.5723C80.4059 32.5865 80.0739 32.5763 79.6369 32.5416C79.1999 32.5069 78.5862 32.4626 77.796 32.4087L77.8193 32.7799C78.5257 32.8184 79.1323 32.9149 79.639 33.0695C80.1444 33.2034 80.5582 33.3638 80.8806 33.5507C81.2029 33.7375 81.4318 33.9198 81.5672 34.0977C81.7232 34.2743 81.8051 34.4244 81.8129 34.5482C81.8181 34.6307 81.7704 34.6958 81.6699 34.7435C81.5886 34.7694 81.4965 34.7855 81.3933 34.792C81.1665 34.8062 80.7514 34.7909 80.148 34.7459C79.5653 34.6997 78.8305 34.7044 77.9436 34.76C77.0979 34.8131 76.307 34.9145 75.571 35.0643C74.8349 35.214 74.1975 35.4508 73.6587 35.7745C73.1406 36.0969 72.743 36.5257 72.466 37.0608C72.1889 37.5958 72.0763 38.2759 72.1281 39.1009C72.1708 39.7816 72.3148 40.4248 72.5599 41.0307C72.8256 41.6352 73.1281 42.165 73.4672 42.6199C73.827 43.0736 74.2119 43.4325 74.622 43.6967C75.0307 43.9402 75.4207 44.0504 75.7919 44.0271C76.0395 44.0115 76.3275 43.8174 76.6562 43.4448C77.0054 43.0708 77.3598 42.6137 77.7193 42.0735C78.0995 41.5319 78.4571 40.9607 78.7921 40.3599C79.1271 39.759 79.4144 39.2233 79.6541 38.7527L80.5359 38.9459ZM79.8125 45.2345C79.6192 45.4537 79.4065 45.6949 79.1746 45.9579C78.9413 46.2003 78.6764 46.4344 78.38 46.6601C78.1029 46.8638 77.7839 47.0599 77.423 47.2482C77.0608 47.4159 76.6644 47.534 76.2338 47.6024L76.4562 47.6816C77.0698 47.5603 77.626 47.3493 78.1249 47.0488C78.6224 46.7277 79.0554 46.3692 79.424 45.9733C79.8132 45.5762 80.1502 45.1719 80.435 44.7606C80.7198 44.3493 80.9666 43.9921 81.1754 43.6891L81.0902 43.3217C80.9214 43.6015 80.7133 43.9148 80.4658 44.2617C80.239 44.6072 80.0213 44.9315 79.8125 45.2345ZM82.2595 48.0938C82.3164 49.0014 82.2793 49.8941 82.148 50.7721C82.0142 51.6088 81.8049 52.3984 81.5202 53.1411C81.8243 52.3765 82.0516 51.5443 82.2021 50.6444C82.3721 49.7227 82.4272 48.7874 82.3677 47.8386C82.3379 47.3642 82.2868 46.8807 82.2145 46.3883C82.1628 45.8946 82.1008 45.4015 82.0285 44.9091L81.7592 43.0934L81.6161 43.2887C81.7491 44.0879 81.8718 44.8878 81.9842 45.6884C82.1172 46.4876 82.209 47.2894 82.2595 48.0938ZM84.5373 47.7645C84.4687 46.6713 84.3504 45.6123 84.1825 44.5875C84.0353 43.5613 83.8681 42.5468 83.6809 41.5439C83.8229 42.4875 83.9753 43.4305 84.138 44.3728C84.2994 45.2945 84.4112 46.2504 84.4733 47.2405C84.5161 47.9211 84.5201 48.6456 84.4855 49.414C84.4703 50.1604 84.3931 50.9107 84.2541 51.6649C84.1151 52.4191 83.9026 53.1572 83.6166 53.8792C83.3486 54.5586 82.9956 55.202 82.5574 55.8093C83.3229 54.8087 83.8434 53.6993 84.119 52.481C84.4125 51.2201 84.5727 49.9779 84.5994 48.7545L84.5373 47.7645ZM99.6633 49.2377C98.8964 49.555 98.3073 49.737 97.896 49.7835C97.4861 49.8506 97.1271 49.9042 96.819 49.9443C95.6639 50.0168 94.6087 49.8656 93.6534 49.4907C92.698 49.1158 91.867 48.5778 91.1603 47.8767C90.4537 47.1756 89.8837 46.3417 89.4502 45.375C89.0361 44.3863 88.7935 43.3248 88.7223 42.1903C88.6808 41.5303 88.7 40.8457 88.7797 40.1367C88.8582 39.407 88.9998 38.6941 89.2046 37.9979C89.408 37.281 89.687 36.6113 90.0413 35.9885C90.375 35.367 90.7848 34.8029 91.2707 34.2962C90.7616 34.763 90.3402 35.3071 90.0065 35.9286C89.6521 36.5513 89.3629 37.2218 89.1388 37.9399C88.9134 38.6374 88.7621 39.3613 88.685 40.1116C88.6065 40.8413 88.5887 41.5464 88.6314 42.2271C88.6858 43.0934 88.8781 44.0131 89.2084 44.9864C89.558 45.9377 90.0688 46.8167 90.7406 47.6235C91.4112 48.4097 92.2487 49.0509 93.2531 49.5469C94.2781 50.0417 95.4919 50.245 96.8945 50.157C97.5545 50.1155 98.2396 49.9793 98.9499 49.7484C98.1985 50.3132 97.3381 50.6261 96.3686 50.687C95.5848 50.7362 94.8345 50.659 94.1177 50.4555C93.4228 50.2714 92.7627 49.9815 92.1373 49.5859C91.5339 49.2096 90.9769 48.7476 90.4662 48.1999C89.9556 47.6521 89.5145 47.0586 89.1431 46.4193L89.406 46.1543C89.0113 45.475 88.7095 44.7899 88.5004 44.099C88.312 43.4068 88.1952 42.6997 88.1498 41.9778C88.0838 40.9258 88.1647 39.9061 88.3926 38.9186C88.6412 37.9297 88.9858 36.9866 89.4264 36.0892L90.1049 35.0216C90.2144 34.787 90.3754 34.5491 90.5881 34.3079C90.8214 34.0655 91.0759 33.8321 91.3517 33.6077C91.6262 33.3627 91.913 33.148 92.212 32.9636C92.5304 32.7572 92.8294 32.5728 93.1091 32.4103C93.8284 31.9924 94.5502 31.6157 95.2746 31.2804C95.9977 30.9244 96.8498 30.6431 97.8308 30.4366L97.7012 30.3515C95.8152 30.6563 94.2355 31.2214 92.9621 32.0468C91.6873 32.8515 90.6705 33.8058 89.9114 34.9095C89.1524 36.0132 88.6268 37.2058 88.3345 38.4873C88.0409 39.7482 87.9317 40.9768 88.0068 42.1731C88.0469 42.8125 88.1393 43.459 88.2838 44.1126C88.4477 44.7442 88.6632 45.3726 88.9302 45.9978C88.3369 44.7926 87.9968 43.499 87.9101 42.1171C87.8246 40.7557 87.9667 39.3905 88.3363 38.0213C88.7059 36.6521 89.3398 35.3699 90.238 34.1746C91.4044 32.9625 92.701 32.0114 94.1279 31.3213C95.5535 30.6106 96.947 30.2125 98.3083 30.127C98.7415 30.0998 99.1894 30.1442 99.6523 30.2601C100.115 30.376 100.542 30.577 100.933 30.8631C101.322 31.1285 101.645 31.4913 101.902 31.9515C102.179 32.4103 102.339 32.9801 102.382 33.6608C102.417 34.2177 102.325 34.9067 102.108 35.728C101.89 36.5492 101.537 37.3583 101.049 38.1551C100.58 38.93 99.9701 39.6102 99.2199 40.1957C98.4685 40.7606 97.5771 41.0754 96.5458 41.1401L95.5249 41.2042C94.7513 41.0871 94.0384 40.9455 93.386 40.7794C92.753 40.5913 92.1542 40.4529 91.5895 40.3641C91.5277 40.6993 91.4962 41.0222 91.495 41.3329C91.5131 41.6217 91.5313 41.9105 91.5494 42.1992C91.5869 42.7974 91.6857 43.3813 91.8457 43.9511C92.0251 44.4989 92.274 45.001 92.5926 45.4573C92.9111 45.9135 93.2973 46.2931 93.7512 46.5959C94.2244 46.8768 94.7833 47.0384 95.4279 47.0808C95.8249 47.1387 96.1685 47.1689 96.4586 47.1714C96.7473 47.1533 96.9852 47.1487 97.1721 47.1577C97.3784 47.1447 97.5247 47.1666 97.6111 47.2233C97.7168 47.2581 97.7742 47.3477 97.7832 47.492C97.5809 47.5669 97.3669 47.6217 97.1413 47.6566C96.9363 47.6902 96.7204 47.7141 96.4935 47.7283C95.7716 47.7736 95.1148 47.701 94.523 47.5103C93.9299 47.2991 93.4174 47.0517 92.9855 46.7682C93.4897 47.2128 94.0782 47.5176 94.7512 47.6824C95.4229 47.8266 96.0784 47.8786 96.7179 47.8385C97.0685 47.8165 97.4275 47.7629 97.7949 47.6777C97.7614 47.804 97.7453 47.8775 97.7466 47.8981C97.7544 48.0219 97.8111 48.1012 97.9168 48.1359C97.9981 48.1101 98.1392 48.0495 98.3403 47.9541C98.5401 47.838 98.7405 47.7322 98.9416 47.6368C99.162 47.5194 99.3734 47.4233 99.5758 47.3485C99.7769 47.253 99.9186 47.2027 100.001 47.1975C100.104 47.191 100.198 47.2058 100.283 47.2419C100.367 47.2574 100.416 47.3682 100.429 47.5745C100.442 47.7807 100.385 48.0328 100.259 48.3306C100.132 48.6284 99.9339 48.9308 99.6633 49.2377ZM94.6246 37.2538L95.313 37.3349C95.5425 37.3619 95.75 37.3695 95.9357 37.3579C96.1419 37.3449 96.3753 37.2682 96.6356 37.1276C96.9153 36.9651 97.1815 36.7516 97.4341 36.4873C97.7073 36.2217 97.9354 35.8967 98.1184 35.5125C98.3219 35.127 98.4604 34.6938 98.5337 34.2129L98.584 34.0234C98.2952 34.0415 97.8666 34.1409 97.2981 34.3216C96.7297 34.5022 96.1438 34.7357 95.5406 35.0221C94.936 35.2878 94.376 35.6025 93.8604 35.9662C93.3436 36.3092 92.9936 36.6729 92.8107 37.0571C93.124 37.0995 93.4269 37.1426 93.7196 37.1864C94.0316 37.2082 94.3332 37.2307 94.6246 37.2538ZM93.3451 39.6327C93.3838 39.5888 93.4005 39.5257 93.3953 39.4431C93.4108 39.3593 93.4172 39.2968 93.4146 39.2556L91.9275 38.8209L91.8 39.2638L93.3451 39.6327ZM92.9197 46.7102C92.765 46.5543 92.6102 46.3983 92.4555 46.2424C92.3227 46.1058 92.2105 45.9679 92.1189 45.8287C92.3265 46.1677 92.5935 46.4615 92.9197 46.7102ZM92.1321 30.7011C92.029 30.7076 91.9343 30.6825 91.8479 30.6258C91.7602 30.5485 91.6828 30.4705 91.6158 30.3919C92.4793 29.6336 93.437 29.0558 94.4888 28.6585C93.959 28.7952 93.4453 29.0242 92.9478 29.3453C92.449 29.6459 91.9714 29.9554 91.5152 30.2739C91.4687 30.194 91.4126 30.1251 91.3469 30.0671C91.3004 29.9872 91.245 29.9285 91.1805 29.8911L91.0046 30.0575C90.6694 29.9957 90.4006 29.8366 90.1981 29.5801C89.9943 29.303 89.8847 29.0407 89.8692 28.7931L89.989 28.7235C90.5111 28.4629 91.0898 28.116 91.7252 27.6827C92.3813 27.2481 92.9871 26.8373 93.5426 26.4504C92.9419 26.778 92.3432 27.1366 91.7465 27.526C91.1703 27.9142 90.5291 28.2547 89.8227 28.5476C89.8007 28.1969 89.8986 27.9423 90.1164 27.7837C90.3548 27.6238 90.6339 27.4509 90.9536 27.2652L91.3365 27.4275C91.5491 27.1864 91.785 26.9852 92.0441 26.824C92.3238 26.6615 92.5938 26.51 92.8542 26.3694C93.1352 26.2275 93.3949 26.0766 93.6333 25.9167C93.8924 25.7554 94.1276 25.544 94.339 25.2822C94.2977 25.2848 94.2745 25.2448 94.2693 25.1623C93.8143 25.5015 93.3574 25.8097 92.8986 26.087C92.4603 26.363 92.0021 26.6506 91.5239 26.9499C92.2586 26.4482 92.9823 25.9368 93.6951 25.4158C94.4285 24.8935 95.274 24.3434 96.2317 23.7656C96.2948 23.7824 96.3986 23.7862 96.543 23.7772C96.8111 23.7603 97.0548 23.6829 97.2739 23.5449C97.3242 23.6867 97.4061 23.8369 97.5196 23.9954C97.6331 24.1539 97.6944 24.3054 97.7034 24.4498C97.7125 24.5942 97.6248 24.6825 97.4405 24.7148L97.6146 25.0144C97.8854 25.0389 98.1522 25.1671 98.4153 25.399C98.6783 25.631 98.817 25.8604 98.8312 26.0873C98.8494 26.3761 98.7605 26.6095 98.5646 26.7874C98.3893 26.9641 98.1302 27.1253 97.7874 27.2711C97.5076 27.4336 97.1796 27.6509 96.8033 27.923C96.4462 28.1732 96.0486 28.4363 95.6104 28.7123C95.1928 28.987 94.7436 29.2533 94.2628 29.5113C93.8026 29.768 93.318 29.964 92.8088 30.0995C92.6876 30.1486 92.5703 30.2595 92.4569 30.4322C92.3435 30.605 92.2353 30.6946 92.1321 30.7011ZM116.64 32.0823C116.455 32.094 116.199 32.1411 115.873 32.2237C115.567 32.305 115.252 32.3973 114.927 32.5005C114.623 32.6024 114.339 32.703 114.076 32.8024C113.834 32.9004 113.683 32.972 113.624 33.0171C114.155 32.901 114.644 32.7771 115.092 32.6455C115.538 32.4932 116.029 32.4003 116.565 32.3666C116.474 32.5587 116.349 32.7115 116.19 32.825C116.031 32.9385 115.851 33.0326 115.649 33.1075C115.466 33.1604 115.262 33.2146 115.038 33.2701C114.812 33.3049 114.577 33.3611 114.334 33.4385L114.1 33.1736C113.717 33.3426 113.424 33.4542 113.22 33.5084C113.015 33.542 112.799 33.5659 112.572 33.5801C112.325 33.5957 112.067 33.6119 111.799 33.6287C111.55 33.6236 111.271 33.6308 110.961 33.6502C110.968 33.7533 110.963 33.8365 110.946 33.8997C111.42 33.8699 111.823 33.8446 112.153 33.8239C112.481 33.7826 112.881 33.7161 113.351 33.6244C112.903 33.7354 112.505 33.8225 112.157 33.8858C111.829 33.9478 111.428 33.9936 110.954 34.0234C110.901 34.503 110.858 34.9716 110.825 35.4293C110.791 35.8869 110.788 36.3323 110.815 36.7655C110.831 37.013 110.859 37.3011 110.901 37.6298C110.942 37.9586 110.984 38.2976 111.027 38.6469C111.089 38.9744 111.14 39.2921 111.18 39.6002C111.218 39.8877 111.242 40.1036 111.251 40.248L111.368 42.1043C111.497 42.5104 111.815 42.801 112.323 42.9762C112.831 43.1514 113.549 43.2098 114.478 43.1516L115.468 43.0894C115.818 43.0674 116.058 43.0938 116.187 43.1685C116.335 43.2213 116.413 43.3096 116.421 43.4334C116.428 43.5365 116.349 43.6035 116.185 43.6345C116.02 43.6449 115.855 43.6552 115.69 43.6656C115.092 43.7032 114.46 43.7014 113.795 43.6603C113.171 43.6167 112.557 43.562 111.952 43.4965C112.559 43.6033 113.197 43.6979 113.865 43.7802C114.552 43.8406 115.215 43.8507 115.855 43.8106L116.133 43.7931C116.216 43.7879 116.308 43.7718 116.41 43.7447C116.416 43.8478 116.422 43.9406 116.427 44.0231C116.453 44.1044 116.49 44.1952 116.537 44.2958L116.781 44.2184C116.842 44.1938 116.913 44.179 116.996 44.1738C117.077 44.148 117.137 44.1132 117.175 44.0693C117.839 44.0898 118.184 44.296 118.208 44.6879C118.222 44.9147 118.172 45.1043 118.058 45.2564C117.943 45.4086 117.795 45.5317 117.615 45.6259C117.434 45.72 117.232 45.7949 117.008 45.8504C116.782 45.8852 116.566 45.9091 116.36 45.9221C115.638 45.9674 114.924 45.9708 114.217 45.9323C113.53 45.8719 112.853 45.8109 112.187 45.7492C112.777 45.9192 113.52 46.0382 114.415 46.1063C115.309 46.1744 116.21 46.18 117.118 46.123C116.9 46.2816 116.639 46.4119 116.335 46.5138C116.031 46.6157 115.714 46.6771 115.384 46.6978L113.138 46.5592C112.847 46.536 112.618 46.509 112.45 46.4781C112.303 46.4459 112.156 46.4138 112.009 46.3816C111.861 46.3288 111.692 46.2772 111.502 46.227C111.334 46.1755 111.092 46.1182 110.777 46.0551L110.756 45.7148C110.211 45.6041 109.762 45.3837 109.41 45.0538C109.058 44.7239 108.776 44.3585 108.564 43.9576C108.353 43.5568 108.203 43.152 108.116 42.7434C108.026 42.3141 107.972 41.9345 107.951 41.6044C107.929 41.2538 107.909 40.9341 107.891 40.6453C107.892 40.3347 107.883 40.0246 107.863 39.7152C107.849 39.4883 107.821 39.2002 107.778 38.8509C107.756 38.5002 107.722 38.1296 107.677 37.739C107.632 37.3484 107.586 36.9475 107.54 36.5363C107.514 36.1237 107.489 35.7318 107.466 35.3606C107.451 35.1337 107.438 34.9171 107.425 34.7109C107.433 34.5033 107.442 34.3164 107.452 34.1501L107.142 34.1695C107.131 34.3152 107.131 34.4808 107.143 34.6665L107.178 35.2234C107.215 35.8215 107.263 36.419 107.321 37.0159C107.378 37.5921 107.422 38.1278 107.453 38.6228C107.505 39.1165 107.553 39.5484 107.597 39.9183C107.639 40.2677 107.666 40.5249 107.676 40.6899L107.754 41.9274L107.769 42.1749C107.672 41.6219 107.561 40.8317 107.434 39.8043C107.297 38.6119 107.183 37.2937 107.093 35.8499L107.058 35.293C107.043 35.0661 107.03 34.8495 107.017 34.6433C107.025 34.4357 107.046 34.2791 107.081 34.1734L106.025 34.1775C105.789 34.0474 105.555 33.9482 105.323 33.8799C105.091 33.8117 104.882 33.7834 104.696 33.795L104.657 33.1762C104.65 33.0525 104.653 32.9487 104.669 32.8649C104.704 32.7592 104.804 32.7011 104.969 32.6908C105.01 32.6882 105.114 32.7024 105.282 32.7332L105.258 32.362C105.024 32.2525 104.828 32.0991 104.671 31.9019C104.512 31.6841 104.425 31.4617 104.411 31.2348C104.378 30.6986 104.742 30.4065 105.505 30.3586C105.794 30.3404 106.095 30.3423 106.407 30.3641C106.719 30.3859 107.04 30.3968 107.372 30.3967C107.426 29.9378 107.472 29.531 107.512 29.1765C107.551 28.8014 107.591 28.4468 107.632 28.1129C107.672 27.7584 107.723 27.4135 107.784 27.0783C107.845 26.7225 107.925 26.3551 108.026 25.976C108.186 25.5519 108.302 25.0993 108.375 24.6185C108.448 24.117 108.489 23.6277 108.501 23.1507L109.152 23.1409C109.256 23.1344 109.34 23.1602 109.406 23.2182C109.492 23.2749 109.542 23.4167 109.557 23.6436C109.568 23.8292 109.553 24.0786 109.511 24.3919L109.888 24.4614C110.018 23.8942 110.185 23.4281 110.39 23.0632C110.615 22.697 110.842 22.5068 111.069 22.4926C111.419 22.4706 111.664 22.9004 111.802 23.7822L111.837 24.3391C111.87 24.8753 111.861 25.3833 111.808 25.8628C111.775 26.3205 111.721 26.7795 111.646 27.2397C111.571 27.7 111.497 28.1705 111.424 28.6514C111.351 29.1323 111.29 29.6537 111.243 30.2158C111.7 30.2492 112.146 30.2523 112.579 30.2251C112.785 30.2122 112.992 30.1992 113.198 30.1863C113.403 30.1527 113.608 30.1294 113.815 30.1165C114.021 30.1035 114.232 30.0074 114.449 29.8282C114.665 29.6489 114.866 29.5535 115.052 29.5418C115.217 29.5315 115.344 29.5753 115.433 29.6732C115.522 29.7712 115.57 29.882 115.578 30.0058C115.213 30.1322 114.849 30.269 114.486 30.416C114.142 30.5412 113.808 30.6657 113.484 30.7895C113.812 30.7276 114.158 30.6334 114.522 30.5069C114.886 30.3599 115.271 30.2218 115.677 30.0928C115.683 30.1959 115.689 30.2887 115.694 30.3712C115.72 30.4524 115.757 30.5433 115.805 30.6439C115.846 30.6413 115.897 30.6277 115.957 30.6032C116.078 30.5542 116.149 30.529 116.17 30.5277C116.383 30.6179 116.525 30.7436 116.597 30.9047C116.668 31.0452 116.71 31.2083 116.721 31.3939C116.73 31.5383 116.718 31.6736 116.685 31.8C116.65 31.9057 116.635 31.9998 116.64 32.0823ZM109.158 44.0135C108.834 43.4748 108.645 42.9379 108.591 42.4029C108.537 41.8679 108.474 41.3645 108.403 40.8927L107.829 36.2074L107.772 36.7702C107.858 38.1521 107.979 39.4077 108.132 40.537C108.305 41.6443 108.504 42.5015 108.729 43.1087C108.74 43.2943 108.738 43.4187 108.721 43.4819C108.725 43.5438 108.728 43.5953 108.731 43.6366C108.733 43.6778 108.757 43.7281 108.802 43.7874C108.868 43.8454 108.987 43.9208 109.158 44.0135ZM110.817 42.2321C110.765 42.0697 110.734 41.8957 110.722 41.71L110.627 40.194C110.619 40.4016 110.611 40.6091 110.604 40.8167C110.595 41.0036 110.597 41.2002 110.61 41.4065C110.643 41.9428 110.7 42.3533 110.78 42.6382C110.858 42.8818 110.994 43.0803 111.19 43.2337C111.079 43.1164 110.999 42.9869 110.948 42.8451C110.917 42.6814 110.874 42.477 110.817 42.2321ZM107.814 42.3896L107.769 42.1749L107.814 42.3896ZM111.254 43.2607C111.232 43.2414 111.211 43.2324 111.19 43.2337C111.211 43.2324 111.232 43.2414 111.254 43.2607ZM131.197 38.561C130.64 38.596 130.217 38.6122 129.927 38.6097C129.657 38.6059 129.409 38.6111 129.182 38.6254C128.564 38.6642 128.019 38.7295 127.548 38.8211C127.078 38.9128 126.683 39.0618 126.365 39.2682C126.047 39.4745 125.816 39.7582 125.673 40.1192C125.53 40.4802 125.477 40.9495 125.513 41.527C125.566 42.3726 125.698 42.9959 125.91 43.3968C126.141 43.7757 126.437 44.047 126.8 44.2106C127.181 44.3523 127.631 44.4276 128.149 44.4365C128.668 44.4454 129.251 44.502 129.899 44.6062C130.273 44.6241 130.647 44.6318 131.019 44.6291C131.39 44.6058 131.762 44.5825 132.133 44.5592L134.361 44.4193C133.325 44.4222 132.292 44.456 131.261 44.5207C130.249 44.5636 129.325 44.5284 128.49 44.4152C127.675 44.3006 126.997 44.0533 126.455 43.6732C125.934 43.2917 125.647 42.6782 125.594 41.8325C125.552 41.1518 125.602 40.631 125.745 40.27C125.907 39.8871 126.127 39.604 126.406 39.4209C126.703 39.2158 127.058 39.0901 127.469 39.0435C127.879 38.9764 128.321 38.9279 128.796 38.8981C129.373 38.8619 129.963 38.8559 130.565 38.8803C130.1 39.0544 129.622 39.1983 129.132 39.3119C128.662 39.4035 128.223 39.5036 127.815 39.612C127.407 39.6997 127.052 39.8152 126.75 39.9584C126.468 40.0796 126.282 40.2466 126.191 40.4594L126.279 41.8516L126.039 41.9909C126.154 42.5014 126.251 42.8888 126.329 43.153C126.427 43.3954 126.646 43.5784 126.985 43.702C127.323 43.8051 127.855 43.8752 128.582 43.9124C129.33 43.9482 130.411 44.015 131.825 44.1126L134.053 43.9727C134.445 43.9481 134.671 43.9236 134.732 43.8991C134.812 43.8526 134.862 43.8288 134.882 43.8275L134.499 42.1742C134.432 41.7643 134.357 41.3963 134.275 41.0701C134.192 40.744 134.087 40.3985 133.961 40.0338C133.944 40.0969 133.884 40.1317 133.781 40.1382C133.906 40.4824 134.012 40.8485 134.099 41.2365C134.206 41.6232 134.291 41.9906 134.354 42.3386C134.438 42.6854 134.498 42.9819 134.534 43.2281C134.591 43.473 134.641 43.6148 134.685 43.6535L134.503 43.727C134.463 43.7502 134.402 43.7644 134.32 43.7696L134.134 43.7813C133.99 43.7903 133.824 43.7904 133.637 43.7814C133.449 43.7518 133.21 43.7461 132.922 43.7642L131.901 43.8283C131.096 43.8788 130.351 43.8842 129.665 43.8444C129.021 43.802 128.457 43.7338 127.975 43.6399C128.456 43.7132 129.039 43.7595 129.723 43.7786C130.45 43.8158 131.123 43.815 131.742 43.7761C132.01 43.7593 132.289 43.7418 132.577 43.7237C132.886 43.6836 133.215 43.6526 133.566 43.6306L134.587 43.5665C134.521 43.5085 134.447 43.4821 134.364 43.4873L134.302 43.4912C134.13 42.0731 133.859 40.7235 133.489 39.4422C133.119 38.1608 132.583 37.0555 131.883 36.1263C131.182 35.1764 130.297 34.445 129.229 33.9322C128.161 33.3988 126.853 33.1806 125.306 33.2778C124.873 33.3049 124.441 33.3631 124.012 33.4522C123.583 33.5412 123.145 33.6516 122.697 33.7832C122.736 33.7393 122.754 33.6968 122.751 33.6555C122.745 33.5524 122.698 33.4622 122.61 33.3849C122.521 33.2869 122.473 33.1864 122.467 33.0832C122.459 32.9595 122.576 32.8383 122.817 32.7196C123.077 32.579 123.627 32.4306 124.466 32.2744C124.422 32.2357 124.388 32.1758 124.362 32.0946C124.357 32.0121 124.353 31.9502 124.35 31.9089C123.236 31.9789 122.369 32.0126 121.747 32.0102C121.125 31.9872 120.806 31.8519 120.79 31.6044C120.784 31.5013 120.898 31.3491 121.134 31.1479C121.391 30.9455 121.751 30.7468 122.215 30.5521C122.678 30.3366 123.235 30.1463 123.887 29.9811C124.559 29.794 125.307 29.6746 126.132 29.6228C127.721 29.5231 129.097 29.6851 130.263 30.109C131.427 30.5121 132.416 31.092 133.23 31.8485C134.063 32.5831 134.748 33.4408 135.286 34.4217C135.844 35.4013 136.3 36.3977 136.654 37.4109C137.027 38.4021 137.316 39.3779 137.521 40.3383C137.725 41.278 137.911 42.0947 138.079 42.7882C138.086 42.9119 138.094 43.0357 138.102 43.1595C138.13 43.2819 138.15 43.4256 138.16 43.5907C138.198 44.1888 138.117 44.7219 137.919 45.1899C137.74 45.636 137.463 46.0157 137.09 46.3291C136.738 46.6618 136.308 46.9165 135.802 47.0933C135.317 47.2894 134.786 47.4055 134.209 47.4418C133.755 47.4703 133.166 47.4969 132.443 47.5216C131.72 47.5463 131.025 47.5278 130.359 47.4661C129.919 47.3901 129.439 47.3374 128.92 47.3079C128.402 47.299 127.87 47.2495 127.326 47.1594C126.782 47.0693 126.245 46.927 125.715 46.7325C125.206 46.5367 124.731 46.2249 124.29 45.797C123.868 45.3472 123.51 44.7588 123.216 44.0318C122.943 43.3035 122.771 42.3721 122.699 41.2377C122.632 40.1651 122.826 39.2936 123.281 38.6231C123.734 37.932 124.29 37.3898 124.949 36.9964C125.627 36.5811 126.324 36.2992 127.039 36.1508C127.753 35.9817 128.337 35.8829 128.791 35.8545C129.369 35.8182 129.753 35.8355 129.943 35.9064C130.134 35.9772 130.232 36.0539 130.237 36.1364C130.241 36.1983 130.234 36.2505 130.216 36.293C129.701 36.3254 129.042 36.3875 128.24 36.4792C127.438 36.571 126.663 36.7542 125.914 37.029C125.186 37.3025 124.568 37.6933 124.062 38.2014C123.554 38.6888 123.327 39.3554 123.38 40.201C123.517 39.4262 123.789 38.8086 124.195 38.3483C124.62 37.866 125.115 37.5036 125.68 37.2611C126.243 36.998 126.823 36.827 127.418 36.7482C128.033 36.6475 128.588 36.5816 129.083 36.5505L130.135 36.4845C130.058 36.5722 130.022 36.6573 130.027 36.7398C130.032 36.8223 130.078 36.8919 130.164 36.9486L131.371 36.8728C131.705 36.914 131.949 37.0125 132.104 37.1685C132.257 37.3038 132.338 37.4333 132.346 37.5571C132.357 37.7427 132.275 37.9136 132.098 38.0696C131.922 38.2256 131.621 38.3894 131.197 38.561ZM126.47 46.3746C127.061 46.5652 127.66 46.7036 128.266 46.7898C128.893 46.8747 129.506 46.919 130.107 46.9227C130.709 46.9471 131.268 46.9431 131.784 46.9107C131.368 46.8953 130.951 46.849 130.532 46.7718C130.093 46.6959 129.705 46.627 129.37 46.5652C129.014 46.5047 128.66 46.4752 128.309 46.4766C127.976 46.456 127.622 46.4265 127.247 46.3879C126.892 46.348 126.526 46.2779 126.147 46.1774C125.766 46.0563 125.382 45.8734 124.994 45.6286C125.408 45.9546 125.9 46.2033 126.47 46.3746ZM126.575 43.1065C126.553 43.0872 126.619 43.1452 126.772 43.2805C126.904 43.3965 127.075 43.479 127.285 43.5279C127.179 43.4931 127.021 43.4513 126.811 43.4023C126.579 43.3341 126.458 43.2174 126.447 43.0524L126.575 43.1065ZM127.378 43.5221C127.357 43.5234 127.326 43.5253 127.285 43.5279C127.305 43.5266 127.336 43.5247 127.378 43.5221ZM147.249 46.033C147.046 46.0872 146.82 46.1221 146.572 46.1376L145.675 46.1939C145.139 46.2276 144.761 46.3134 144.542 46.4514C144.344 46.5881 144.224 46.6578 144.183 46.6604L144.024 46.1112L143.989 45.5543L143.652 42.6558C143.575 42.1014 143.424 41.5104 143.199 40.8827C142.973 40.2549 142.788 39.6142 142.643 38.9607C142.554 38.5314 142.477 38.1221 142.411 37.7328L142.211 36.534C142.144 36.124 142.066 35.7044 141.977 35.2752C141.908 34.8446 141.807 34.3851 141.673 33.8965C141.665 33.7728 141.657 33.649 141.65 33.5253C141.662 33.4002 141.665 33.2758 141.657 33.152C141.617 32.5126 141.526 31.8868 141.384 31.2745C141.242 30.6622 141.06 30.0628 140.836 29.4762C140.977 29.4053 141.108 29.3453 141.229 29.2963C141.349 29.2267 141.46 29.1886 141.563 29.1821C141.666 29.1756 141.788 29.2923 141.927 29.532C142.065 29.7511 142.229 30.2274 142.42 30.9609C142.462 30.9583 142.523 30.9441 142.604 30.9183C142.684 30.8719 142.745 30.8474 142.786 30.8448C142.743 30.4954 142.668 30.1274 142.561 29.7407C142.453 29.3334 142.346 28.9466 142.24 28.5805C142.134 28.2145 142.031 27.8896 141.93 27.606C141.849 27.3005 141.803 27.055 141.791 26.8693C141.788 26.8281 141.785 26.7765 141.781 26.7146C141.798 26.6515 141.848 26.6173 141.93 26.6121C142.033 26.6056 142.174 26.7107 142.354 26.9272C142.533 27.1437 142.726 27.4215 142.934 27.7605C143.142 28.0994 143.341 28.47 143.532 28.8722C143.742 29.2524 143.93 29.6133 144.097 29.9549C144.588 28.868 145.167 28.0344 145.834 27.4541C146.521 26.8519 147.442 26.5145 148.597 26.442C149.443 26.3889 150.141 26.4487 150.69 26.6213C151.238 26.7733 151.664 26.9639 151.968 27.1933C152.292 27.4008 152.512 27.6044 152.628 27.8042L152.833 28.1019C152.841 28.2257 152.784 28.3121 152.663 28.3611C152.094 27.8791 151.461 27.5254 150.763 27.3C150.066 27.0746 149.356 26.9846 148.634 27.0299C147.933 27.0739 147.413 27.1997 147.074 27.4074C146.754 27.5931 146.417 27.8214 146.061 28.0922C146.437 27.8201 146.786 27.6015 147.107 27.4364C147.448 27.27 147.949 27.1661 148.609 27.1246C149.331 27.0793 150.031 27.1803 150.709 27.4277C151.386 27.6544 151.975 27.9694 152.477 28.3728C152.377 28.4205 152.287 28.4779 152.208 28.5449C152.149 28.5901 152.123 28.6642 152.129 28.7673C152.232 28.7609 152.35 28.8259 152.483 28.9625C152.615 29.0785 152.738 29.2261 152.853 29.4053C152.967 29.5844 153.062 29.7752 153.137 29.9776C153.231 30.158 153.282 30.3101 153.29 30.4339C153.312 30.7845 153.189 30.9683 152.921 30.9851C152.714 30.998 152.462 30.9414 152.164 30.8151C152.101 30.7984 151.96 30.6934 151.741 30.5001C151.542 30.3055 151.292 30.1141 150.99 29.9259C150.687 29.7172 150.344 29.5316 149.962 29.3693C149.579 29.207 149.16 29.1401 148.707 29.1686C148.335 29.1919 148.01 29.2951 147.732 29.4782C147.473 29.6394 147.238 29.8612 147.028 30.1436C146.817 30.4054 146.629 30.7071 146.464 31.0488L146.108 31.8165C146.383 31.2402 146.691 30.7135 147.034 30.2364C147.413 29.6743 147.912 29.3737 148.531 29.3349C149.067 29.3012 149.57 29.3939 150.039 29.6129C150.507 29.8113 150.896 30.0768 151.207 30.4093C150.847 30.2869 150.426 30.1685 149.942 30.0539C149.459 29.9393 149.001 29.8956 148.568 29.9227C148.341 29.937 148.148 30.0009 147.989 30.1143C147.831 30.2278 147.695 30.371 147.581 30.5437C147.487 30.6946 147.395 30.8661 147.303 31.0582C147.232 31.249 147.151 31.4302 147.058 31.6016L146.659 31.6888C146.346 32.3089 146.102 33.0283 145.925 33.847C145.768 34.6437 145.717 35.4753 145.771 36.3416C145.804 36.8572 145.853 37.32 145.92 37.7299C146.008 38.1386 146.117 38.5562 146.248 38.9829L146.679 39.9187L146.561 39.0254C146.476 38.3267 146.395 37.7105 146.321 37.1768C146.244 36.6225 146.186 36.0153 146.144 35.3553C146.148 34.7545 146.195 34.1821 146.285 33.6381C146.359 33.1778 146.488 32.7453 146.669 32.3404C146.453 32.851 146.323 33.4286 146.281 34.0732C146.222 34.7809 146.217 35.5267 146.266 36.3105C146.305 36.9293 146.373 37.5152 146.47 38.0682C146.567 38.6212 146.674 39.1736 146.791 39.7253C146.929 40.2757 147.069 40.8468 147.209 41.4385C147.349 42.0095 147.471 42.6437 147.577 43.3412L147.707 43.9232L148.003 45.675L147.249 46.033ZM146.752 32.1799L146.669 32.3404L146.752 32.1799ZM156.477 43.4968C156.524 42.9141 156.554 42.2393 156.568 41.4722C156.601 40.6832 156.624 39.8949 156.637 39.1072C156.649 38.3196 156.663 37.5525 156.678 36.8061C156.692 36.039 156.713 35.3751 156.74 34.8143C156.672 35.3777 156.619 36.023 156.582 36.75C156.545 37.4771 156.509 38.2249 156.474 38.9932C156.44 39.7615 156.405 40.5299 156.37 41.2982C156.334 42.0459 156.304 42.7208 156.28 43.3229C155.958 43.136 155.785 42.8673 155.763 42.5166C155.738 42.1041 155.727 41.7631 155.73 41.4937C155.733 41.2037 155.743 40.8717 155.761 40.4978L156.082 40.1671C156.055 40.0652 156.039 39.9731 156.033 39.8906L156.014 39.5812C155.984 39.1068 156.002 38.5673 156.068 37.9626C156.132 37.3374 156.207 36.7115 156.292 36.0849C156.396 35.4364 156.481 34.8202 156.548 34.2362C156.614 33.6316 156.633 33.1127 156.606 32.6795L156.229 32.61C156.219 33.1076 156.192 33.6787 156.15 34.3233C156.106 34.9473 156.054 35.6028 155.994 36.29C155.953 36.9552 155.912 37.6204 155.871 38.2856C155.851 38.6389 155.831 38.9715 155.809 39.2834C155.814 38.7033 155.827 38.0813 155.847 37.4174C155.891 36.4621 155.935 35.5171 155.98 34.5825C156.044 33.6259 156.099 32.6906 156.145 31.7766C156.191 30.8626 156.242 30.0208 156.297 29.2511C156.278 28.9417 156.329 28.6072 156.452 28.2475C156.594 27.8659 156.683 27.4771 156.72 27.0814C156.847 27.1149 156.951 27.129 157.034 27.1238L157.25 27.1102C157.456 27.0973 157.594 27.1404 157.662 27.2397C157.729 27.3183 157.768 27.4401 157.778 27.6051L157.788 27.7598L158.072 27.8352C158.218 27.5154 158.398 27.2556 158.613 27.0557C158.829 26.8558 159.05 26.7488 159.277 26.7345C159.772 26.7035 160.052 27.2139 160.118 28.2658C160.153 28.8227 160.129 29.4248 160.045 30.0719C159.981 30.6972 159.968 31.3089 160.005 31.907L160.03 32.3093C160.072 32.9693 160.045 33.6957 159.95 34.4886C159.853 35.2608 159.737 36.055 159.602 36.871C159.486 37.6652 159.38 38.4381 159.282 39.1897C159.184 39.9413 159.155 40.6265 159.194 41.2452C159.203 41.3896 159.223 41.5437 159.254 41.7074C159.285 41.8711 159.305 42.0251 159.314 42.1695C159.333 42.4789 159.284 42.6788 159.165 42.769C159.066 42.8374 158.934 42.8767 158.769 42.8871C158.752 42.619 158.721 42.2896 158.675 41.899C158.63 41.5084 158.598 41.1584 158.579 40.849C158.552 41.0785 158.55 41.3892 158.575 41.7811C158.6 42.1729 158.602 42.5455 158.583 42.8987L158.119 42.9279L158.142 43.2991C157.977 43.6408 157.74 43.8214 157.431 43.8408C157.286 43.8499 157.119 43.819 156.928 43.7481C156.737 43.6773 156.587 43.5935 156.477 43.4968ZM161.359 19.3355C161.021 19.5638 160.719 19.852 160.45 20.2001C160.182 20.5483 159.903 20.8868 159.613 21.2156C159.791 21.0802 159.948 20.9357 160.083 20.7823C160.219 20.6288 160.354 20.4754 160.489 20.322C160.645 20.1672 160.801 20.0125 160.957 19.8577C161.134 19.7017 161.331 19.5547 161.551 19.4167C161.618 19.4953 161.674 19.5643 161.719 19.6235C161.785 19.6815 161.819 19.7415 161.823 19.8034L161.156 20.5596C161.154 20.5184 161.11 20.4797 161.025 20.4436C160.96 20.4063 160.908 20.3889 160.866 20.3915C160.817 20.6016 160.725 20.7731 160.588 20.9059C160.451 21.0387 160.314 21.1612 160.176 21.2734C160.038 21.3856 159.901 21.5081 159.764 21.641C159.628 21.7738 159.535 21.9453 159.486 22.1554L159.49 22.2173C159.491 22.2379 159.523 22.2463 159.585 22.2424L161.04 20.6911L160.489 21.3159C160.219 21.6228 159.928 21.9413 159.618 22.2714C159.326 22.5796 159.043 22.8562 158.769 23.1012C158.515 23.3449 158.357 23.4687 158.295 23.4726L158.262 23.4436C158.115 23.4114 157.959 23.4005 157.794 23.4109C157.65 23.4199 157.495 23.4193 157.328 23.4091C157.318 23.244 157.276 23.0707 157.203 22.8889C157.15 22.7059 157.12 22.5628 157.113 22.4597C157.107 22.3565 157.155 22.3017 157.258 22.2952C157.255 22.2334 157.208 22.1431 157.117 22.0246C157.046 21.8841 156.964 21.7339 156.872 21.5741C156.777 21.3936 156.683 21.2132 156.589 21.0327C156.514 20.8303 156.47 20.626 156.457 20.4198C156.444 20.2135 156.515 20.0124 156.668 19.8164C156.841 19.5985 157.036 19.4102 157.254 19.2516C157.492 19.0916 157.722 18.953 157.942 18.8356C158.162 18.7182 158.323 18.6357 158.423 18.588C158.506 18.5828 158.534 18.5396 158.509 18.4584C158.481 18.3566 158.509 18.303 158.592 18.2979L159.16 18.4485C159.125 18.5543 159.002 18.738 158.791 18.9998C158.599 19.2396 158.455 19.4143 158.358 19.5239C158.496 19.4117 158.651 19.2467 158.824 19.0288C159.017 18.8095 159.162 18.6451 159.259 18.5355C159.365 18.5703 159.46 18.6057 159.545 18.6418C159.63 18.6779 159.693 18.6946 159.735 18.692L159.822 18.5934C159.966 18.5843 160.123 18.6056 160.291 18.6571C160.481 18.7073 160.651 18.7691 160.8 18.8426C160.95 18.916 161.079 19.0011 161.189 19.0977C161.298 19.1944 161.355 19.2736 161.359 19.3355ZM155.794 40.0299C155.8 39.8017 155.806 39.5735 155.813 39.3453C155.808 39.5941 155.801 39.8223 155.794 40.0299ZM177.162 44.3726C176.395 44.6899 175.806 44.8719 175.395 44.9184C174.985 44.9855 174.626 45.0391 174.318 45.0792C173.163 45.1517 172.108 45.0005 171.152 44.6256C170.197 44.2508 169.366 43.7128 168.659 43.0117C167.952 42.3106 167.382 41.4766 166.949 40.5099C166.535 39.5212 166.292 38.4597 166.221 37.3252C166.18 36.6652 166.199 35.9807 166.279 35.2716C166.357 34.5419 166.499 33.829 166.703 33.1328C166.907 32.416 167.186 31.7462 167.54 31.1234C167.874 30.502 168.284 29.9378 168.77 29.4311C168.26 29.8979 167.839 30.442 167.505 31.0635C167.151 31.6862 166.862 32.3567 166.638 33.0748C166.412 33.7723 166.261 34.4962 166.184 35.2465C166.105 35.9762 166.087 36.6813 166.13 37.362C166.185 38.2283 166.377 39.1481 166.707 40.1213C167.057 41.0726 167.568 41.9516 168.239 42.7585C168.91 43.5447 169.748 44.1858 170.752 44.6818C171.777 45.1766 172.991 45.3799 174.393 45.2919C175.053 45.2504 175.738 45.1143 176.449 44.8833C175.697 45.4482 174.837 45.761 173.867 45.8219C173.084 45.8711 172.333 45.7939 171.617 45.5904C170.922 45.4063 170.261 45.1164 169.636 44.7208C169.033 44.3445 168.476 43.8825 167.965 43.3348C167.454 42.787 167.013 42.1935 166.642 41.5542L166.905 41.2892C166.51 40.6099 166.208 39.9248 165.999 39.2339C165.811 38.5417 165.694 37.8346 165.649 37.1127C165.583 36.0608 165.664 35.041 165.891 34.0535C166.14 33.0646 166.485 32.1215 166.925 31.2241L167.604 30.1565C167.713 29.9219 167.874 29.684 168.087 29.4429C168.32 29.2004 168.575 28.967 168.851 28.7426C169.125 28.4976 169.412 28.2829 169.711 28.0985C170.029 27.8921 170.328 27.7077 170.608 27.5452C171.327 27.1273 172.049 26.7507 172.773 26.4153C173.497 26.0593 174.349 25.778 175.33 25.5715L175.2 25.4864C173.314 25.7912 171.734 26.3563 170.461 27.1817C169.186 27.9865 168.169 28.9407 167.41 30.0444C166.651 31.1482 166.126 32.3408 165.833 33.6223C165.54 34.8831 165.431 36.1117 165.506 37.308C165.546 37.9474 165.638 38.5939 165.783 39.2475C165.947 39.8791 166.162 40.5075 166.429 41.1327C165.836 39.9275 165.496 38.6339 165.409 37.252C165.323 35.8907 165.466 34.5254 165.835 33.1562C166.205 31.7871 166.839 30.5048 167.737 29.3095C168.903 28.0974 170.2 27.1463 171.627 26.4562C173.052 25.7455 174.446 25.3474 175.807 25.262C176.24 25.2348 176.688 25.2791 177.151 25.395C177.614 25.5109 178.041 25.7119 178.431 25.998C178.821 26.2634 179.144 26.6262 179.4 27.0864C179.678 27.5453 179.838 28.115 179.881 28.7957C179.915 29.3526 179.824 30.0417 179.607 30.8629C179.389 31.6842 179.036 32.4932 178.547 33.29C178.078 34.0649 177.469 34.7451 176.719 35.3306C175.967 35.8955 175.076 36.2103 174.045 36.275L173.024 36.3391C172.25 36.222 171.537 36.0804 170.885 35.9143C170.252 35.7262 169.653 35.5878 169.088 35.499C169.027 35.8342 168.995 36.1572 168.994 36.4678C169.012 36.7566 169.03 37.0454 169.048 37.3341C169.086 37.9323 169.185 38.5162 169.345 39.086C169.524 39.6338 169.773 40.1359 170.091 40.5922C170.41 41.0484 170.796 41.428 171.25 41.7308C171.723 42.0117 172.282 42.1734 172.927 42.2157C173.324 42.2736 173.667 42.3038 173.957 42.3063C174.246 42.2882 174.484 42.2836 174.671 42.2926C174.877 42.2796 175.023 42.3015 175.11 42.3582C175.216 42.393 175.273 42.4826 175.282 42.627C175.08 42.7018 174.866 42.7566 174.64 42.7915C174.435 42.8251 174.219 42.849 173.992 42.8632C173.27 42.9086 172.614 42.8359 172.022 42.6453C171.429 42.434 170.916 42.1866 170.484 41.9031C170.988 42.3478 171.577 42.6525 172.25 42.8173C172.922 42.9615 173.577 43.0135 174.217 42.9734C174.567 42.9514 174.926 42.8978 175.294 42.8126C175.26 42.9389 175.244 43.0124 175.245 43.0331C175.253 43.1568 175.31 43.2361 175.416 43.2709C175.497 43.2451 175.638 43.1844 175.839 43.089C176.039 42.9729 176.239 42.8671 176.44 42.7717C176.661 42.6543 176.872 42.5582 177.075 42.4834C177.276 42.3879 177.417 42.3376 177.5 42.3324C177.603 42.326 177.697 42.3408 177.782 42.3768C177.866 42.3923 177.914 42.5031 177.927 42.7094C177.94 42.9156 177.884 43.1677 177.757 43.4655C177.631 43.7633 177.433 44.0657 177.162 44.3726ZM172.123 32.3887L172.812 32.4698C173.041 32.4968 173.249 32.5045 173.434 32.4928C173.641 32.4799 173.874 32.4031 174.134 32.2625C174.414 32.1 174.68 31.8866 174.933 31.6222C175.206 31.3566 175.434 31.0316 175.617 30.6474C175.821 30.2619 175.959 29.8287 176.033 29.3479L176.083 29.1583C175.794 29.1765 175.365 29.2758 174.797 29.4565C174.228 29.6371 173.643 29.8706 173.039 30.157C172.435 30.4227 171.875 30.7374 171.359 31.1011C170.842 31.4442 170.492 31.8078 170.31 32.192C170.623 32.2345 170.926 32.2776 171.218 32.3213C171.53 32.3431 171.832 32.3656 172.123 32.3887ZM170.844 34.7676C170.883 34.7237 170.899 34.6606 170.894 34.5781C170.91 34.4943 170.916 34.4317 170.913 34.3905L169.426 33.9558L169.299 34.3987L170.844 34.7676ZM170.419 41.8451C170.264 41.6892 170.109 41.5333 169.954 41.3773C169.821 41.2407 169.709 41.1028 169.618 40.9636C169.825 41.3026 170.092 41.5964 170.419 41.8451ZM183.786 41.4098C183.78 41.3066 183.803 41.1809 183.856 41.0327C183.908 40.8844 183.93 40.7278 183.919 40.5628C183.95 40.0639 183.969 39.7106 183.977 39.5031C183.983 39.2749 183.981 39.0783 183.971 38.9133C183.917 38.047 183.827 37.1208 183.703 36.1346C183.599 35.1265 183.486 34.1603 183.366 33.236C183.348 32.9473 183.316 32.6076 183.271 32.217C183.246 31.8251 183.206 31.517 183.151 31.2927C183.167 30.5669 183.174 29.8521 183.172 29.1482C183.169 28.4443 183.145 27.7314 183.099 27.0095L183.051 26.236C183.034 25.9679 183.007 25.7004 182.969 25.4335C183.035 25.4915 183.099 25.5186 183.161 25.5147C183.243 25.5095 183.324 25.4734 183.403 25.4064C183.502 25.338 183.593 25.3012 183.675 25.2961C183.82 25.287 183.943 25.4346 184.045 25.7388C184.167 26.0417 184.262 26.7191 184.328 27.771L184.606 27.7536C184.637 26.592 184.734 25.6645 184.897 24.9709C185.081 24.276 185.287 23.9214 185.514 23.9071C185.617 23.9007 185.796 24.1172 186.052 24.5567C186.306 24.9756 186.462 25.6595 186.522 26.6083L186.827 26.03C187.037 25.7476 187.267 25.4536 187.517 25.148C187.788 24.8411 188.092 24.5632 188.428 24.3144C188.764 24.0655 189.145 23.8552 189.569 23.6836C189.992 23.4914 190.481 23.3779 191.038 23.3429C192.111 23.2756 193.055 23.4648 193.869 23.9106C194.704 24.3345 195.413 24.9216 195.999 25.6717C196.583 26.4012 197.071 27.2506 197.463 28.2199C197.875 29.1673 198.205 30.1406 198.454 31.1396C198.702 32.118 198.886 33.0693 199.006 33.9936C199.126 34.9179 199.207 35.7101 199.249 36.3701C199.286 36.9683 199.268 37.3318 199.193 37.4607C199.137 37.5677 199.018 37.6374 198.833 37.6697C198.692 36.0841 198.488 34.4714 198.219 32.8317C197.95 31.1919 197.458 29.618 196.742 28.1099C197.401 29.7044 197.853 31.2912 198.097 32.8704C198.361 34.4276 198.542 36.0003 198.642 37.5885C198.514 37.5344 198.399 37.5106 198.296 37.5171C198.213 37.5222 198.143 37.5577 198.085 37.6235C198.095 37.7885 198.117 37.9632 198.149 38.1475C198.18 38.3112 198.2 38.4756 198.211 38.6406C198.242 38.8043 198.262 38.9583 198.271 39.1027C198.177 39.5849 198.075 39.933 197.964 40.147C197.853 40.361 197.746 40.4713 197.643 40.4778C197.519 40.4855 197.413 40.4405 197.324 40.3425C197.233 40.2239 197.142 40.0847 197.049 39.9249C196.977 39.7638 196.894 39.593 196.799 39.4125C196.725 39.2101 196.619 39.02 196.484 38.8422C196.503 38.4889 196.517 38.2085 196.524 38.001C196.531 37.7728 196.53 37.5865 196.52 37.4421C196.485 36.8852 196.433 36.2155 196.363 35.433C196.293 34.6505 196.18 33.8397 196.024 33.0005C195.887 32.1394 195.689 31.2925 195.43 30.4597C195.19 29.6051 194.874 28.8588 194.482 28.2207C194.109 27.5608 193.652 27.0408 193.11 26.6606C192.567 26.2598 191.935 26.0821 191.213 26.1274C190.718 26.1585 190.285 26.3513 189.914 26.706C189.563 27.0593 189.26 27.5028 189.003 28.0366C188.768 28.5691 188.566 29.1512 188.399 29.7829C188.23 30.394 188.101 30.9819 188.012 31.5466C188.162 30.9574 188.31 30.3579 188.459 29.7481C188.627 29.137 188.83 28.5755 189.067 28.0637C189.325 27.5505 189.63 27.1276 189.982 26.7949C190.332 26.4416 190.755 26.2494 191.25 26.2183C191.889 26.1782 192.447 26.3192 192.923 26.6413C193.419 26.9622 193.839 27.3914 194.184 27.9288C194.549 28.465 194.847 29.0882 195.078 29.7985C195.328 30.4868 195.528 31.199 195.678 31.9351C195.826 32.6505 195.933 33.3583 195.997 34.0583C196.081 34.7363 196.139 35.3229 196.17 35.8179C196.195 36.2098 196.209 36.6023 196.213 36.9955C196.237 37.3874 196.252 37.7903 196.258 38.2041C196.023 37.432 195.827 36.6263 195.671 35.7871C195.534 34.926 195.388 34.0861 195.233 33.2676C195.077 32.4284 194.893 31.6324 194.68 30.8796C194.486 30.1048 194.224 29.3965 193.894 28.7546L194.091 28.4316C193.855 27.9702 193.595 27.6241 193.312 27.3934C193.047 27.1408 192.787 26.9604 192.532 26.8522C192.277 26.744 192.045 26.686 191.838 26.6784C191.63 26.6707 191.496 26.6688 191.434 26.6727C190.918 26.705 190.466 26.9198 190.076 27.317C189.708 27.7128 189.389 28.2402 189.12 28.899C188.87 29.5359 188.657 30.274 188.482 31.1133C188.307 31.9526 188.165 32.8312 188.057 33.7491C187.949 34.667 187.863 35.5939 187.797 36.5299C187.73 37.4452 187.681 38.3076 187.649 39.1172L187.927 39.0998C187.987 38.392 188.041 37.6121 188.091 36.7599C188.162 35.9065 188.232 35.0427 188.301 34.1687C188.39 33.2727 188.501 32.4063 188.635 31.5696C188.769 30.7329 188.939 29.9768 189.145 29.3012C189.372 28.6244 189.647 28.0687 189.972 27.6341C190.277 27.2215 190.665 26.9694 191.136 26.8777C190.689 27.0093 190.325 27.3221 190.046 27.8159C189.747 28.3316 189.496 28.9582 189.294 29.6957C189.092 30.4331 188.915 31.2415 188.763 32.1207C188.63 32.978 188.506 33.8038 188.39 34.5979L188.055 39.1539C187.991 39.4478 187.945 39.7095 187.918 39.939L187.835 40.5965C187.807 40.8053 187.78 41.0348 187.754 41.2849C187.727 41.5144 187.692 41.7858 187.65 42.0991L187.58 42.4761L187.395 42.4878L184.204 41.632C184.099 41.6179 184.015 41.5921 183.95 41.5548C183.907 41.5161 183.852 41.4678 183.786 41.4098ZM188.173 25.2001C187.783 25.5766 187.476 25.9789 187.255 26.407C187.053 26.8131 186.861 27.2289 186.681 27.6544L186.683 27.6853C186.934 27.069 187.298 26.4353 187.775 25.7842C188.234 25.1756 188.866 24.701 189.673 24.3604C189.41 24.4598 189.158 24.5584 188.915 24.6565C188.633 24.7777 188.386 24.9589 188.173 25.2001ZM191.822 23.946C191.717 23.9319 191.572 23.9306 191.387 23.9423C192.057 24.0658 192.687 24.2126 193.278 24.3826C193.867 24.532 194.438 24.8793 194.989 25.4244C194.609 24.972 194.122 24.6299 193.527 24.398C192.954 24.1649 192.385 24.0142 191.822 23.946ZM192.878 27.4206C192.706 27.3072 192.504 27.2267 192.273 27.1791C192.062 27.1095 191.797 27.0226 191.48 26.9182L191.445 26.8583C191.797 26.8569 192.112 26.92 192.389 27.0476C192.665 27.1545 192.937 27.3652 193.205 27.6797L192.878 27.4206ZM195.055 25.4824C195.366 25.8149 195.659 26.2003 195.935 26.6386C196.211 27.0768 196.453 27.4654 196.661 27.8044C196.425 27.3429 196.202 26.9221 195.991 26.5419C195.781 26.1616 195.469 25.8085 195.055 25.4824Z" fill="white"/>
</g>
<defs>
<filter id="filter0_di_2_9" x="0" y="0" width="229.065" height="85.5191" filterUnits="userSpaceOnUse" color-interpolation-filters="sRGB">
<feFlood flood-opacity="0" result="BackgroundImageFix"/>
<feColorMatrix in="SourceAlpha" type="matrix" values="0 0 0 0 0 0 0 0 0 0 0 0 0 0 0 0 0 0 127 0" result="hardAlpha"/>
<feOffset dy="4"/>
<feGaussianBlur stdDeviation="2"/>
<feComposite in2="hardAlpha" operator="out"/>
<feColorMatrix type="matrix" values="0 0 0 0 0 0 0 0 0 0 0 0 0 0 0 0 0 0 0.25 0"/>
<feBlend mode="normal" in2="BackgroundImageFix" result="effect1_dropShadow_2_9"/>
<feBlend mode="normal" in="SourceGraphic" in2="effect1_dropShadow_2_9" result="shape"/>
<feColorMatrix in="SourceAlpha" type="matrix" values="0 0 0 0 0 0 0 0 0 0 0 0 0 0 0 0 0 0 127 0" result="hardAlpha"/>
<feOffset dy="4"/>
<feGaussianBlur stdDeviation="2"/>
<feComposite in2="hardAlpha" operator="arithmetic" k2="-1" k3="1"/>
<feColorMatrix type="matrix" values="0 0 0 0 0 0 0 0 0 0 0 0 0 0 0 0 0 0 0.25 0"/>
<feBlend mode="normal" in2="shape" result="effect2_innerShadow_2_9"/>
</filter>
<filter id="filter1_d_2_9" x="25.2396" y="15.8265" width="179.044" height="55.6257" filterUnits="userSpaceOnUse" color-interpolation-filters="sRGB">
<feFlood flood-opacity="0" result="BackgroundImageFix"/>
<feColorMatrix in="SourceAlpha" type="matrix" values="0 0 0 0 0 0 0 0 0 0 0 0 0 0 0 0 0 0 127 0" result="hardAlpha"/>
<feOffset dy="4"/>
<feGaussianBlur stdDeviation="2"/>
<feComposite in2="hardAlpha" operator="out"/>
<feColorMatrix type="matrix" values="0 0 0 0 0 0 0 0 0 0 0 0 0 0 0 0 0 0 0.25 0"/>
<feBlend mode="normal" in2="BackgroundImageFix" result="effect1_dropShadow_2_9"/>
<feBlend mode="normal" in="SourceGraphic" in2="effect1_dropShadow_2_9" result="shape"/>
</filter>
</defs>
</svg>
