<svg width="120" height="40" viewBox="0 0 120 40" fill="none" xmlns="http://www.w3.org/2000/svg">
<g id="Vegeta" clip-path="url(#clip0_5_4)">
<g id="Ellipse 3" filter="url(#filter0_d_5_4)">
<path d="M107.578 18.4734C106.884 28.0007 96.0024 31.8527 85.4596 30.6913C69.5887 28.9429 61.891 33.7622 46.0765 34.9605C27.1129 36.3974 20.5093 33.2821 17.3983 29.8805C7.31026 18.85 15.2421 4.00044 25.5089 2.10515C43.5988 -1.23429 57.2379 6.76649 74.5961 4.02699C90.5235 1.5133 107.128 4.48068 107.578 18.4734Z" fill="#FCFFDC"/>
</g>
<path id="Ellipse 4" d="M104.176 21.5845C102.918 29.1289 75.8358 26.999 64.8576 27.8526C53.8794 28.7062 54.3947 33.1105 41.047 34.1219C22.0834 35.5588 14.239 24.9796 15.8358 12.4217C17.8535 -3.44604 68.4634 8.06275 78.7067 7.3965C109.159 5.41582 104.354 11.5736 104.176 21.5845Z" fill="#889914"/>
<path id="V&#195;&#169;g&#195;&#169;tarien" d="M32.9277 16.0977C33.2035 16.0889 33.4034 16.1425 33.5272 16.2585C33.663 16.3742 33.7339 16.528 33.7401 16.7199C33.7502 17.0318 33.6631 17.3107 33.4789 17.5568C33.3067 17.8024 33.0229 17.9376 32.6275 17.9624C31.6688 18.0172 30.8149 17.9727 30.0659 17.8287C29.2718 19.6432 28.2882 21.1636 27.1151 22.39C25.9535 23.604 24.7671 24.2305 23.5557 24.2695C22.3084 24.3096 21.3555 23.6139 20.6971 22.1824C20.0387 20.7508 19.6697 18.7996 19.5902 16.3289C19.5223 14.218 19.6112 12.3182 19.857 10.6294C19.9449 10.0022 20.0813 9.57764 20.2662 9.35557C20.4628 9.12113 20.8009 8.99618 21.2807 8.98074C22.0723 8.95526 22.4791 9.28435 22.5011 9.96799C22.5034 10.04 22.4957 10.1723 22.4778 10.3649C22.1875 12.5354 22.0705 14.4962 22.1269 16.2473C22.186 18.0823 22.3809 19.4748 22.7116 20.4246C23.0539 21.3621 23.5309 21.821 24.1426 21.8013C24.7663 21.7812 25.43 21.3276 26.1339 20.4405C26.8377 19.5534 27.4744 18.4464 28.044 17.1194C27.2977 16.6872 26.7271 16.1172 26.3321 15.4096C25.9368 14.6899 25.7238 13.8563 25.6933 12.9088C25.6628 11.9613 25.7811 11.1591 26.0481 10.5022C26.3267 9.83285 26.7127 9.32817 27.206 8.98813C27.7113 8.64769 28.2758 8.46744 28.8995 8.44737C29.6671 8.42266 30.2816 8.67902 30.7432 9.21645C31.2167 9.7535 31.4689 10.5018 31.4998 11.4613C31.5442 12.8406 31.2928 14.3554 30.7456 16.0059C31.3847 16.0934 32.1121 16.124 32.9277 16.0977ZM27.5063 12.7244C27.5442 13.8998 27.95 14.7572 28.7237 15.2966C29.1482 13.9382 29.3464 12.8213 29.3182 11.9457C29.302 11.442 29.2243 11.0783 29.085 10.8546C28.9454 10.619 28.7616 10.5049 28.5337 10.5122C28.2099 10.5226 27.9522 10.723 27.7607 11.1134C27.5687 11.4918 27.484 12.0288 27.5063 12.7244ZM40.6533 19.613C40.8092 19.608 40.9315 19.6761 41.02 19.8173C41.1206 19.9582 41.175 20.1545 41.1831 20.4064C41.1985 20.8861 41.0965 21.2616 40.8772 21.5328C40.4508 22.0868 39.8371 22.6048 39.0362 23.0868C38.2473 23.5685 37.3911 23.8241 36.4675 23.8539C35.2082 23.8944 34.2197 23.584 33.5021 22.9228C32.7844 22.2615 32.4065 21.3372 32.3683 20.1498C32.3416 19.3223 32.4908 18.5491 32.8159 17.8302C33.1405 17.0994 33.6019 16.5143 34.2001 16.0748C34.8103 15.6349 35.5052 15.4025 36.2848 15.3774C36.9804 15.355 37.5449 15.5469 37.9782 15.9532C38.4111 16.3475 38.6389 16.8984 38.6617 17.6061C38.6883 18.4336 38.4114 19.1569 37.8311 19.7759C37.2623 20.3825 36.2759 20.8825 34.8718 21.2759C35.1894 21.8179 35.768 22.0755 36.6075 22.0484C37.1473 22.0311 37.753 21.8255 38.4246 21.4317C39.1079 21.0255 39.6916 20.5084 40.1756 19.8805C40.3142 19.708 40.4734 19.6188 40.6533 19.613ZM36.0357 17.1503C35.5919 17.1646 35.2224 17.4346 34.9271 17.9604C34.6439 18.4858 34.5141 19.1143 34.5376 19.8459L34.5388 19.8819C35.241 19.6912 35.7906 19.4214 36.1876 19.0724C36.5846 18.7235 36.7759 18.3271 36.7616 17.8833C36.7543 17.6554 36.6825 17.4777 36.5463 17.35C36.4218 17.2099 36.2515 17.1433 36.0357 17.1503ZM36.4085 14.1848C36.2405 14.1902 36.0887 14.135 35.9529 14.0193C35.8287 13.8913 35.7637 13.7373 35.7579 13.5574C35.7552 13.4734 35.7815 13.3585 35.8369 13.2127L37.3896 9.41674C37.4898 9.17339 37.6221 8.99504 37.7866 8.88169C37.9626 8.75596 38.1586 8.68962 38.3745 8.68267C38.6743 8.67302 38.9416 8.77247 39.1765 8.98103C39.4233 9.1892 39.5519 9.4552 39.5624 9.77903C39.5732 10.1149 39.452 10.4549 39.199 10.7992L36.9743 13.8604C36.825 14.0693 36.6363 14.1774 36.4085 14.1848ZM49.3564 19.3689C49.5124 19.3639 49.6348 19.438 49.7238 19.5912C49.8244 19.732 49.8783 19.9164 49.8857 20.1443C49.8945 20.4201 49.8595 20.6374 49.7806 20.796C49.7016 20.9546 49.5741 21.0968 49.3981 21.2225C48.389 21.9514 47.65 22.4914 47.1811 22.8427L46.0546 23.6534C45.6787 26.1507 45.1418 28.119 44.4437 29.5582C43.758 31.009 42.8455 31.7528 41.7061 31.7895C41.0944 31.8091 40.5905 31.6333 40.1943 31.2618C39.7985 30.9024 39.5908 30.4168 39.5711 29.8051C39.5437 28.9536 39.85 28.0252 40.49 27.0201C41.1304 26.027 42.3511 24.7871 44.1522 23.3004L44.2376 22.5953C44.0441 22.9257 43.7824 23.1862 43.4523 23.3769C43.1339 23.5553 42.8128 23.6496 42.4889 23.6601C41.7453 23.684 41.1429 23.4332 40.6818 22.9078C40.2207 22.3824 39.976 21.6819 39.9478 20.8063C39.9169 19.8468 40.1097 18.9342 40.526 18.0683C40.942 17.1905 41.5075 16.4819 42.2225 15.9426C42.9492 15.391 43.7263 15.1018 44.5538 15.0752C44.8177 15.0667 44.9933 15.1151 45.0808 15.2203C45.1798 15.3132 45.2636 15.4906 45.332 15.7525C45.5584 15.6972 45.8215 15.6647 46.1213 15.6551C46.4211 15.6454 46.6326 15.6866 46.7556 15.7787C46.8902 15.8584 46.9618 16.0302 46.9703 16.2941C46.9749 16.438 46.9726 16.5521 46.9633 16.6365C46.9273 17.0098 46.8077 17.9562 46.6045 19.4755C46.5657 19.7649 46.522 20.0845 46.4732 20.4342C46.4361 20.7716 46.3937 21.1331 46.3461 21.5189C47.2464 20.7695 48.1135 20.1053 48.9473 19.5262C49.1001 19.4252 49.2365 19.3728 49.3564 19.3689ZM43.0781 21.8222C43.354 21.8133 43.6124 21.6369 43.8535 21.2929C44.0946 20.949 44.259 20.4635 44.3469 19.8363L44.8236 16.7414C44.3322 16.7692 43.8826 16.9758 43.4748 17.3611C43.0666 17.7344 42.7462 18.225 42.5137 18.8328C42.2811 19.4406 42.1756 20.0803 42.1972 20.7519C42.2092 21.1237 42.29 21.3973 42.4398 21.5726C42.6015 21.7475 42.8143 21.8307 43.0781 21.8222ZM41.8478 30.038C42.1476 30.0283 42.4719 29.6577 42.8205 28.9261C43.1812 28.1941 43.5101 27.037 43.8074 25.4546C42.9093 26.2759 42.2666 27.0109 41.8793 27.6597C41.492 28.3085 41.306 28.8728 41.3215 29.3526C41.328 29.5565 41.3694 29.7232 41.4456 29.8528C41.5338 29.9821 41.6679 30.0438 41.8478 30.038ZM57.3164 19.0767C57.4724 19.0717 57.5946 19.1398 57.6832 19.281C57.7838 19.4218 57.8381 19.6182 57.8462 19.8701C57.8617 20.3498 57.7597 20.7253 57.5403 20.9965C57.1139 21.5505 56.5003 22.0685 55.6994 22.5505C54.9105 23.0321 54.0542 23.2878 53.1307 23.3175C51.8714 23.3581 50.8829 23.0477 50.1652 22.3865C49.4476 21.7252 49.0696 20.8009 49.0314 19.6135C49.0048 18.7859 49.154 18.0127 49.479 17.2939C49.8037 16.5631 50.2651 15.9779 50.8633 15.5385C51.4734 15.0986 52.1683 14.8661 52.9479 14.841C53.6436 14.8186 54.208 15.0106 54.6413 15.4168C55.0742 15.8111 55.3021 16.3621 55.3249 17.0697C55.3515 17.8973 55.0746 18.6206 54.4942 19.2396C53.9254 19.8462 52.939 20.3462 51.5349 20.7395C51.8526 21.2816 52.4311 21.5391 53.2707 21.5121C53.8104 21.4947 54.4161 21.2891 55.0878 20.8953C55.7711 20.4891 56.3548 19.9721 56.8388 19.3442C56.9773 19.1716 57.1365 19.0825 57.3164 19.0767ZM52.6988 16.614C52.2551 16.6282 51.8856 16.8983 51.5903 17.424C51.3071 17.9494 51.1772 18.5779 51.2008 19.3095L51.2019 19.3455C51.9042 19.1548 52.4538 18.885 52.8507 18.5361C53.2477 18.1871 53.4391 17.7908 53.4248 17.347C53.4175 17.1191 53.3457 16.9413 53.2095 16.8136C53.0849 16.6736 52.9147 16.607 52.6988 16.614ZM53.0716 13.6484C52.9037 13.6538 52.7519 13.5987 52.6161 13.483C52.4919 13.3549 52.4269 13.2009 52.4211 13.021C52.4184 12.9371 52.4447 12.8222 52.5001 12.6763L54.0527 8.8804C54.153 8.63705 54.2853 8.4587 54.4497 8.34535C54.6258 8.21962 54.8217 8.15329 55.0376 8.14634C55.3375 8.13669 55.6048 8.23614 55.8396 8.44469C56.0865 8.65286 56.2151 8.91886 56.2255 9.24269C56.2363 9.57852 56.1152 9.91859 55.8622 10.2629L53.6375 13.3241C53.4881 13.533 53.2995 13.6411 53.0716 13.6484ZM64.9189 18.832C65.0748 18.827 65.1971 18.8951 65.2857 19.0363C65.3863 19.1771 65.4406 19.3735 65.4487 19.6254C65.4642 20.1051 65.3622 20.4806 65.1428 20.7518C64.6475 21.404 64.1006 21.9439 63.502 22.3714C62.9035 22.7989 62.2084 23.0254 61.4168 23.0508C58.9701 23.1296 57.6913 21.4479 57.5805 18.0056C57.5635 17.4779 57.5644 16.9436 57.583 16.4027L56.8813 16.4253C56.5215 16.4369 56.2735 16.3788 56.1373 16.2512C56.0132 16.1231 55.9464 15.9151 55.9372 15.6273C55.9156 14.9556 56.1746 14.6111 56.7143 14.5937L57.7398 14.5607C57.9012 13.2348 58.1743 12.0194 58.5589 10.9145C58.9436 9.80954 59.4193 8.92378 59.9862 8.2572C60.565 7.59023 61.1963 7.24575 61.8799 7.22374C62.3836 7.20753 62.7866 7.41667 63.0887 7.85118C63.3908 8.28568 63.5527 8.83876 63.5743 9.51041C63.6342 11.3695 62.9067 13.0137 61.3919 14.4432L63.4069 14.3783C63.5988 14.3721 63.738 14.4097 63.8247 14.4909C63.9114 14.5722 63.9584 14.7268 63.9657 14.9546C63.9923 15.7822 63.328 16.2178 61.9727 16.2614L59.7778 16.3321C59.7731 16.9325 59.7762 17.4007 59.787 17.7365C59.8272 18.9839 59.9993 19.8548 60.3033 20.3493C60.6194 20.8433 61.0953 21.0802 61.7309 21.0597C62.2467 21.0431 62.6974 20.8725 63.0832 20.5479C63.4689 20.2234 63.9216 19.7405 64.4413 19.0995C64.5798 18.9269 64.739 18.8378 64.9189 18.832ZM61.4497 8.96648C61.2698 8.97227 61.0733 9.20672 60.8601 9.66982C60.6585 10.1205 60.4686 10.751 60.2906 11.5611C60.1242 12.3589 59.9906 13.2456 59.89 14.2214C60.5779 13.5869 61.0837 12.8863 61.4072 12.1195C61.7423 11.3403 61.8998 10.6389 61.8797 10.0152C61.8569 9.30756 61.7136 8.95799 61.4497 8.96648ZM66.8424 22.8762C66.0988 22.9001 65.4964 22.6494 65.0353 22.1239C64.5741 21.5985 64.3295 20.898 64.3013 20.0225C64.2704 19.063 64.4632 18.1503 64.8795 17.2844C65.2955 16.4066 65.861 15.6981 66.576 15.1588C67.3026 14.6071 68.0797 14.318 68.9073 14.2913C69.1712 14.2828 69.3468 14.3312 69.4343 14.4364C69.5333 14.5293 69.617 14.7067 69.6855 14.9686C69.9358 14.9126 70.1989 14.8801 70.4748 14.8712C71.0625 14.8523 71.3631 15.0527 71.3766 15.4725C71.3847 15.7244 71.314 16.327 71.1646 17.2803C70.9332 18.6684 70.8261 19.6324 70.8435 20.1721C70.8493 20.352 70.8959 20.4946 70.9833 20.5998C71.0828 20.7047 71.2044 20.7548 71.3484 20.7501C71.5762 20.7428 71.8475 20.59 72.162 20.2917C72.4762 19.9815 72.8985 19.4876 73.429 18.8102C73.5675 18.6377 73.7268 18.5485 73.9067 18.5427C74.0626 18.5377 74.1848 18.6058 74.2734 18.747C74.374 18.8878 74.4284 19.0842 74.4365 19.3361C74.4519 19.8158 74.3499 20.1913 74.1305 20.4625C73.6585 21.09 73.1534 21.6225 72.6152 22.0601C72.077 22.4976 71.55 22.7247 71.0343 22.7413C70.6385 22.754 70.2684 22.6339 69.9241 22.3808C69.5914 22.1154 69.3335 21.7515 69.1506 21.2891C68.5593 22.3167 67.7899 22.8457 66.8424 22.8762ZM67.4316 21.0383C67.6955 21.0298 67.9423 20.8658 68.1722 20.5462C68.402 20.2267 68.5626 19.8073 68.6539 19.2881L69.213 15.9564C68.7097 15.9846 68.2481 16.1915 67.8283 16.5772C67.4201 16.9505 67.0997 17.4411 66.8671 18.0489C66.6346 18.6567 66.5291 19.2964 66.5507 19.9681C66.5627 20.3399 66.6435 20.6134 66.7932 20.7887C66.955 20.9636 67.1677 21.0468 67.4316 21.0383ZM74.8973 22.6169C74.4416 22.6316 74.11 22.4022 73.9027 21.9286C73.7073 21.4546 73.5927 20.6899 73.5587 19.6345C73.5085 18.0753 73.6827 16.5869 74.0813 15.1693C74.1781 14.818 74.3439 14.5606 74.5787 14.3969C74.8252 14.2209 75.1703 14.1258 75.6141 14.1115C75.854 14.1038 76.0228 14.1283 76.1207 14.1852C76.2186 14.2421 76.2702 14.3545 76.2756 14.5224C76.2818 14.7143 76.2058 15.149 76.0475 15.8264C75.943 16.31 75.8605 16.7329 75.8002 17.095C75.7398 17.4572 75.6941 17.9029 75.6631 18.4321C76.0257 17.3879 76.4424 16.5341 76.9133 15.8706C77.3842 15.2071 77.8491 14.7299 78.308 14.439C78.7789 14.1477 79.2122 13.9957 79.608 13.9829C80.3876 13.9578 80.7899 14.3351 80.815 15.1147C80.8201 15.2706 80.7782 15.6501 80.6896 16.2533C80.6091 16.7361 80.5708 17.0375 80.5746 17.1575C80.5881 17.5772 80.7448 17.7823 81.0447 17.7727C81.3805 17.7619 81.8038 17.4841 82.3145 16.9394C82.4654 16.7784 82.6248 16.6953 82.7927 16.6899C82.9487 16.6848 83.0709 16.753 83.1595 16.8942C83.2597 17.023 83.3135 17.2014 83.3208 17.4293C83.3351 17.873 83.2263 18.2247 82.9946 18.4843C82.6699 18.8429 82.2838 19.1555 81.8361 19.4221C81.4001 19.6762 80.9302 19.8114 80.4265 19.8276C79.7908 19.8481 79.2998 19.7018 78.9536 19.3888C78.6193 19.0754 78.4433 18.6428 78.4256 18.0911C78.4198 17.9112 78.432 17.7307 78.4622 17.5496C78.4784 17.309 78.4852 17.1467 78.4825 17.0627C78.4763 16.8708 78.4073 16.777 78.2753 16.7812C78.0954 16.787 77.8621 16.9986 77.5754 17.4161C77.3003 17.8211 77.0294 18.3581 76.7628 19.0271C76.4962 19.696 76.2847 20.3992 76.1283 21.1366C76.0146 21.7045 75.871 22.0933 75.6976 22.303C75.5359 22.5003 75.2691 22.605 74.8973 22.6169ZM84.3927 12.6403C83.889 12.6565 83.5075 12.5547 83.2483 12.335C82.9887 12.1032 82.8521 11.7774 82.8386 11.3576C82.8251 10.9378 82.9758 10.5848 83.2908 10.2985C83.6174 9.99988 84.0265 9.84263 84.5182 9.8268C84.962 9.81252 85.3253 9.90888 85.6081 10.1159C85.8909 10.3229 86.0387 10.6243 86.0514 11.0201C86.0669 11.4998 85.9233 11.8887 85.6207 12.1866C85.3178 12.4725 84.9084 12.6237 84.3927 12.6403ZM84.5597 22.3059C83.7801 22.331 83.2015 22.0735 82.824 21.5334C82.4584 20.9929 82.2609 20.2668 82.2316 19.3553C82.2142 18.8156 82.258 18.1238 82.3629 17.28C82.4794 16.4238 82.6338 15.6264 82.8262 14.8879C82.9218 14.5006 83.0572 14.2321 83.2325 14.0824C83.4078 13.9327 83.6933 13.8514 84.0891 13.8387C84.7008 13.819 85.0132 14.013 85.0263 14.4208C85.036 14.7207 84.9444 15.42 84.7517 16.5188C84.5063 17.8473 84.3911 18.7455 84.4062 19.2133C84.4177 19.5731 84.4746 19.8474 84.5767 20.0362C84.6788 20.225 84.8439 20.3158 85.0717 20.3084C85.2876 20.3015 85.5527 20.1429 85.8668 19.8326C86.181 19.5223 86.5975 19.0347 87.1164 18.3696C87.2549 18.1971 87.4142 18.1079 87.5941 18.1021C87.75 18.0971 87.8722 18.1652 87.9608 18.3064C88.0614 18.4473 88.1158 18.6436 88.1239 18.8955C88.1393 19.3753 88.0373 19.7507 87.8179 20.0219C86.6773 21.5114 85.5912 22.2727 84.5597 22.3059ZM95.2058 17.8571C95.3617 17.8521 95.484 17.9202 95.5726 18.0614C95.6732 18.2023 95.7275 18.3986 95.7356 18.6505C95.751 19.1303 95.6491 19.5057 95.4297 19.7769C95.0033 20.3309 94.3896 20.8489 93.5887 21.331C92.7998 21.8126 91.9436 22.0683 91.0201 22.098C89.7607 22.1385 88.7722 21.8282 88.0546 21.1669C87.3369 20.5057 86.959 19.5813 86.9208 18.3939C86.8942 17.5664 87.0434 16.7932 87.3684 16.0743C87.6931 15.3435 88.1545 14.7584 88.7526 14.3189C89.3628 13.8791 90.0577 13.6466 90.8373 13.6215C91.5329 13.5991 92.0974 13.791 92.5307 14.1973C92.9636 14.5916 93.1914 15.1425 93.2142 15.8502C93.2408 16.6777 92.964 17.401 92.3836 18.02C91.8148 18.6266 90.8284 19.1266 89.4243 19.52C89.7419 20.0621 90.3205 20.3196 91.1601 20.2926C91.6998 20.2752 92.3055 20.0696 92.9772 19.6758C93.6604 19.2696 94.2441 18.7525 94.7282 18.1246C94.8667 17.9521 95.0259 17.8629 95.2058 17.8571ZM90.5882 15.3944C90.1444 15.4087 89.7749 15.6787 89.4797 16.2045C89.1964 16.7299 89.0666 17.3584 89.0901 18.09L89.0913 18.126C89.7935 17.9353 90.3431 17.6655 90.7401 17.3165C91.1371 16.9676 91.3284 16.5712 91.3141 16.1274C91.3068 15.8996 91.2351 15.7218 91.0989 15.5941C90.9743 15.454 90.8041 15.3875 90.5882 15.3944ZM96.1938 21.9315C95.738 21.9461 95.4065 21.7167 95.1991 21.2431C95.0038 20.7691 94.8891 20.0044 94.8552 18.949C94.805 17.3898 94.9792 15.9014 95.3778 14.4839C95.4745 14.1326 95.6403 13.8751 95.8752 13.7115C96.1217 13.5354 96.4668 13.4403 96.9105 13.426C97.1504 13.4183 97.3193 13.4429 97.4172 13.4997C97.5151 13.5566 97.5667 13.669 97.5721 13.8369C97.5783 14.0288 97.5022 14.4635 97.3439 15.1409C97.2394 15.6246 97.157 16.0474 97.0966 16.4096C97.0362 16.7717 96.9906 17.2174 96.9596 17.7467C97.3222 16.7025 97.7389 15.8486 98.2098 15.1851C98.6807 14.5216 99.1456 14.0444 99.6045 13.7535C100.075 13.4622 100.509 13.3102 100.904 13.2974C101.288 13.2851 101.579 13.3778 101.778 13.5755C101.988 13.7608 102.099 14.0454 102.112 14.4292C102.122 14.741 102.074 15.3309 101.97 16.1987C101.874 16.9341 101.8 17.6329 101.75 18.2948C101.699 18.9448 101.686 19.6716 101.712 20.4752C101.726 20.931 101.641 21.2639 101.456 21.4739C101.282 21.6716 100.985 21.7772 100.566 21.7907C100.17 21.8035 99.8786 21.7108 99.6921 21.5127C99.5057 21.3146 99.4059 21.0117 99.3927 20.6039C99.3773 20.1241 99.4358 19.3298 99.5682 18.221C99.6812 17.2569 99.7335 16.6429 99.725 16.379C99.7188 16.1871 99.6498 16.0933 99.5178 16.0975C99.3619 16.1025 99.1466 16.3136 98.8719 16.7306C98.6088 17.1353 98.3379 17.6723 98.0593 18.3416C97.7927 19.0105 97.5812 19.7137 97.4248 20.4511C97.311 21.019 97.1675 21.4079 96.9941 21.6176C96.8324 21.8149 96.5656 21.9195 96.1938 21.9315Z" fill="#FCFFDC"/>
</g>
<defs>
<filter id="filter0_d_5_4" x="8.734" y="1.27528" width="102.844" height="42.0443" filterUnits="userSpaceOnUse" color-interpolation-filters="sRGB">
<feFlood flood-opacity="0" result="BackgroundImageFix"/>
<feColorMatrix in="SourceAlpha" type="matrix" values="0 0 0 0 0 0 0 0 0 0 0 0 0 0 0 0 0 0 127 0" result="hardAlpha"/>
<feOffset dy="4"/>
<feGaussianBlur stdDeviation="2"/>
<feComposite in2="hardAlpha" operator="out"/>
<feColorMatrix type="matrix" values="0 0 0 0 0 0 0 0 0 0 0 0 0 0 0 0 0 0 0.25 0"/>
<feBlend mode="normal" in2="BackgroundImageFix" result="effect1_dropShadow_5_4"/>
<feBlend mode="normal" in="SourceGraphic" in2="effect1_dropShadow_5_4" result="shape"/>
</filter>
<clipPath id="clip0_5_4">
<rect width="120" height="40" fill="white"/>
</clipPath>
</defs>
</svg>
