<svg height="660" width="600" xmlns="http://www.w3.org/2000/svg" xmlns:xlink="http://www.w3.org/1999/xlink"><radialGradient id="a" cx="221.44487" cy="226.33101" gradientTransform="matrix(1.353218 0 0 1.348928 -77.62935 -85.74693)" gradientUnits="userSpaceOnUse" r="300"><stop offset="0" stop-color="#fff" stop-opacity=".313726"/><stop offset=".19" stop-color="#fff" stop-opacity=".25098"/><stop offset=".60000002" stop-color="#6b6b6b" stop-opacity=".12549"/><stop offset="1" stop-opacity=".12549"/></radialGradient><g><path d="m300 658.5s298.50001-112.32031 298.50001-397.77183c0-285.451524 0-258.5516935 0-258.5516935h-597.00001v258.5516935c0 285.45152 298.5 397.77183 298.5 397.77183z" fill="#fcef3c" fill-rule="evenodd"/><path d="m1.5 2.1875v258.53125c0 15.57774.912831 30.66234 2.59375 45.21875 9.057991-3.84574 18.098259-6.625 27.15625-6.625 29.648107 0 59.289393 29.65624 88.9375 29.65625 29.64811 0 59.28939-29.65624 88.9375-29.65625 29.64811 0 59.32063 29.65624 88.96875 29.65625 29.6481 0 59.28939-29.65624 88.9375-29.65625 29.64811 0 59.2894 29.65624 88.9375 29.65625 29.64811 0 59.28942-29.65624 88.9375-29.65625 10.26352 0 20.54898 3.53906 30.8125 8.1875 1.80021-15.04207 2.78125-30.64347 2.78125-46.78125.00001-285.451534 0-258.53125 0-258.53125z" fill="#2b5df2"/><g stroke="#000"><path d="m31.320886 87.3125c-9.923697 0-19.853237 3.330024-29.7768568 7.75v112c9.9236198-4.41998 19.8531598-7.75 29.7768568-7.75 29.652049 0 59.303585 29.65625 88.955624 29.65625 29.65206 0 59.30358-29.65625 88.95563-29.65625 29.65204 0 59.30358 29.65625 88.95563 29.65625 29.65204 0 59.30359-29.65625 88.95563-29.65625 29.65205 0 59.30357 29.65625 88.95562 29.65625 29.65204 0 59.30357-29.65625 88.95563-29.65625 11.12796 0 22.27345 4.15645 33.40132 9.375 0-75.14585 0-100.88691 0-112-11.12787-5.218552-22.27336-9.375-33.40132-9.375-29.65206 0-59.30359 29.65625-88.95563 29.65625-29.65205 0-59.30357-29.65625-88.95562-29.65625-29.65204 0-59.30359 29.65625-88.95563 29.65625-29.65205 0-59.30359-29.65625-88.95563-29.65625-29.65205 0-59.30357 29.65625-88.95563 29.65625-29.652039 0-59.303575-29.65625-88.955624-29.65625z" fill="#fff" stroke-width="3.088058"/><path d="m4.09375 305.9375c9.057991-3.84574 18.098259-6.625 27.15625-6.625 29.648107 0 59.289393 29.65624 88.9375 29.65625 29.64811 0 59.28939-29.65624 88.9375-29.65625 29.64811 0 59.32063 29.65624 88.96875 29.65625 29.6481 0 59.28939-29.65624 88.9375-29.65625 29.64811 0 59.2894 29.65624 88.9375 29.65625 29.64811 0 59.28942-29.65624 88.9375-29.65625 10.26352 0 20.54898 3.53906 30.8125 8.1875" fill="none" stroke-width="3.087627"/></g></g><g stroke="#000" stroke-linecap="round" stroke-linejoin="round" stroke-width="1.964675" transform="matrix(1.0180059 0 0 1.0179539 207.61484 352.16038)"><g stroke-width="1.964695" transform="matrix(.99998 0 0 1 -253.95029 -194.94718)"><path d="m407.08 431.94c-26.03-15.107-12.036-53.578-12.495-77.504-3.4947 5.4887-7.9081 10.288-12.616 14.746-1.4096 2.503-33.757 29.09-25.9 27.838 14.674-4.9855 15.14 8.3476 19.658 9.4754 19.524-4.3394 10.552 16.419 26.803 27.024.85922 1.1722 9.9182 1.2326 4.55-1.5794z" fill="#e20909"/><path d="m270.23 254.47c11.367-.53906 22.571 1.9324 33.617 4.2864 11.442 7.8359 27.972 6.4452 36.864 18.267 13.083 13.668 21.108 32.975 18.316 52.036-1.2207 10.036-4.0477 19.833-7.1006 29.41-3.2235 11.347-32.962 27.564-27.272 28.558 24.17-2.2604 47.875-24.278 24.905 10.809-2.3418 4.0746-5.7256 9.7798-.20453 3.633 14.997-14.501 31.816-27.464 44.449-44.173 10.344-16.343 17.962-34.765 18.931-54.261.87036-19.732-9.3591-35.876-20.538-51.045-18.349-20.589-66.184-53.388-95.609-44.765-7.4799 2.1093-16.257 8.4034-12.904 17.257 2.357 11.654-15.951 7.2174-23.017 5.6026-2.0507 10.405 14.04 12.023 21.655 12.498 6.5142.004 20.695 4.7225 19.956 8.5952-9.7158-.25631-20.062-3.5597-29.432-1.0073-1.16204 1.23724-1.9695 2.75388-2.61587 4.2991z" fill="#2b5df2"/><path d="m359.2 451.22c-31.519 1.0366-23.031-35.282-9.3894-47.939 6.8737-6.3779 17.493-40.053 8.5323-31.804-44.004 37.556-65.258-17.188-98.992-21.51-13.748 5.662 8.0247 1.9956 9.7992 9.7912 9.2403 8.2021-6.3961 22.619 8.3926 25.795 3.9161 19.959 44.551 14.583 45.806 15.87-8.1199 7.1436-18.952 8.1014-29.104 9.8925-12.744 4.6475 10.997 3.4992 14.5 9.242 6.987 4.1819 7.2408 19.114 17.849 11.692 8.0474 6.9918 10.446 20.019 21.772 23.404 3.4918 4.4645 21.7223-2.8411 10.8343-4.4337zm73.4-120.27c-5.743-4.6195-10.808-10.209-14.026-16.888-1.6747-2.6256-3.8856-4.921-4.7475-8.0075-.57232-1.4623-1.1844-4.2635-1.1812-1.1762-.91223 9.2601-3.422 18.514-6.6486 27.273-.65653 3.166-2.1142 5.9721-3.137 8.774 3.0545-.89323 6.6732-3.7976 8.9898.004 2.0535 1.9115 4.2503 4.1539 5.0825 6.5267 2.0637-1.8794 2.084-5.3255 2.4808-7.9983-.32033-3.0108 1.0101-5.6934 4.0752-6.49 2.9361-2.3904 6.5385.44948 9.8102.50461 2.9848.4073.001-1.92-.69819-2.5219z" fill="#e20909"/><path d="m341.93343 368.27c1.6708 6.0962 6.4628-.95238 8.5684-3.2122 7.021-5.1277 13.25-33.592 8.7484-49.818-6.9093 29.315-8.0621 31.146-32.974 43.624 17.527 1.2866 6.9103 2.4268 15.6572 9.4062zm-7.32343-97.62c-7.2896-6.0305-18.195-5.5071-26.891-9.6574 8.9728 9.9633 16.395 13.595 11.154 28.241 11.049 1.2304 5.1888-14.881 9.0151-16.779 7.0902 8.2494 7.8003 18.806 4.3666 28.74 15.29-3.7241 11.2071-23.2206 2.3553-30.5446zm-33.36-64.43c8.2796-.74115 16.426-2.8832 24.592-4.3622 4.2087.0296 8.1736-4.6454 10.42-5.4459 1.623 3.5219-8.9779 8.514-1.2848 8.874 9.5974.892 19.704-2.3246 26.481-9.2925 9.0174 4.1625-14.902 11.448-7.1004 14.791 12.632 4.5209 25.358 8.2148 36.204-2.0313 4.8909 9.2862-15.83 12.684-21.026 14.152 14.285 12.433 29.832 38.074 50.982 24.105-6.6431 15.285-29.274 7.3892-38.611-.96914-3.5914-3.4668-4.5204 1.619-1.5627 3.6771 3.669 5.1362-4.4708 1.0545-4.9143-1.7502-1.6423-8.7328-11.385 2.6704-8.7626-2.8622 6.1832-10.766-13.038-21.607-8.7436-13.022 6.3645 7.24-13.74 19.742-17.149 14.211 27.231-30.294-19.968-37.15-39.525-40.073z" fill="#e20909"/><path d="m346.33 255.82c13.463 9.2851 25.021 22.795 28.354 39.153 4.9472 20.124-2.545 39.011-6.6766 58.318m43.9626-43.121c6.4241 8.8296 3.8771 20.27 3.9653 30.515m-144.4853 38.165c15.276 11.005 37.867 11.065 56.248 12.376m-13.938 32.484c5.2911-8.8636 13.169-15.715 20.125-23.205m-14.965 26.305c6.741-16.999 30.769-31.027 36.641-47.444m19.579 24.294c.44406-12.328 5.4618-25.153 12.902-35.067" fill="none"/><path d="m330.59 229.33c4.6548 8.885 3.2325 18.679-7.6208 25.092 4.8959-1.2177 14.049-7.3566 15.138-14.292.0329-5.3525-2.6055-8.0445-7.5172-10.8z" fill="#e20909" fill-rule="evenodd"/></g><g stroke-width="1.963517" transform="matrix(1.00088 0 0 1.0003 -254.19045 -195.07789)"><ellipse cx="308.567436" cy="228.852752363" fill="#fff" rx="5.156811" ry="4.6393936" stroke-width="1.9635174269"/><circle cx="306.761666637" cy="227.567855637" r="1.8040157" stroke-width="1.9635174269"/><path d="m293.72 226.99c11.406-2.9415 28.796-10.682 35.65 9.6866-9.3816-18.326-20.979-9.9945-35.65-9.6866z" stroke-width="1.963517"/></g></g><path d="m300.00001 658.5s298.5-112.32031 298.5-397.77183c0-285.451504 0-258.5516835 0-258.5516835h-597.00001v258.5516835c0 285.45152 298.50001 397.77183 298.50001 397.77183z" fill="url(#a)" fill-rule="evenodd"/><path d="m299.99999 658.39715s-298.49999-112.41841-298.49999-398.11925c0-285.700818 0-258.7775027 0-258.7775027h596.99999v258.7775027c0 285.70084-298.5 398.11925-298.5 398.11925z" fill="none" stroke="#000" stroke-width="3"/></svg>